<svg width="1223.46875px" height="64.4px" xmlns="http://www.w3.org/2000/svg" viewBox="-361.734375 42.8 1223.46875 64.4" style="background: rgba(89, 104, 134, 0);" preserveAspectRatio="xMidYMid"><defs><filter id="editing-hover" x="-100%" y="-100%" width="300%" height="300%"><feFlood flood-color="rgba(1.9607843137254888%,16.862745098039188%,29.01960784313726%,0)" result="flood"></feFlood><feComposite operator="in" in2="SourceAlpha" in="flood" result="shadow"></feComposite><feOffset dx="-4" dy="-4" in="SourceGraphic" result="offset-1"></feOffset><feOffset dx="4" dy="4" in="shadow" result="offset-2"></feOffset><feMerge><feMergeNode in="offset-2"></feMergeNode><feMergeNode in="offset-1"></feMergeNode></feMerge></filter></defs><g filter="url(#editing-hover)"><g transform="translate(-190.86500072479248, 87.00000190734863)"><path d="M2.38 0L2.38-18.50L4.38-18.50L4.38-10.80L4.48-10.80L4.48-10.80Q5.73-13.20 8.45-13.20L8.45-13.20L8.45-13.20Q10.83-13.20 12.16-11.43L12.16-11.43L12.16-11.43Q13.50-9.65 13.50-6.45L13.50-6.45L13.50-6.45Q13.50-3.25 12.16-1.48L12.16-1.48L12.16-1.48Q10.83 0.30 8.45 0.30L8.45 0.30L8.45 0.30Q5.73 0.30 4.48-2.10L4.48-2.10L4.38-2.10L4.38 0L2.38 0ZM7.68-1.48L7.68-1.48L7.68-1.48Q9.43-1.48 10.39-2.54L10.39-2.54L10.39-2.54Q11.35-3.60 11.35-5.35L11.35-5.35L11.35-7.55L11.35-7.55Q11.35-9.30 10.39-10.36L10.39-10.36L10.39-10.36Q9.43-11.43 7.68-11.43L7.68-11.43L7.68-11.43Q7-11.43 6.40-11.25L6.40-11.25L6.40-11.25Q5.80-11.08 5.35-10.74L5.35-10.74L5.35-10.74Q4.90-10.40 4.64-9.91L4.64-9.91L4.64-9.91Q4.38-9.43 4.38-8.78L4.38-8.78L4.38-4.13L4.38-4.13Q4.38-3.48 4.64-2.99L4.64-2.99L4.64-2.99Q4.90-2.50 5.35-2.16L5.35-2.16L5.35-2.16Q5.80-1.83 6.40-1.65L6.40-1.65L6.40-1.65Q7-1.48 7.68-1.48ZM25.55 0L25.55-2.10L25.45-2.10L25.45-2.10Q25.25-1.63 24.95-1.19L24.95-1.19L24.95-1.19Q24.65-0.75 24.21-0.43L24.21-0.43L24.21-0.43Q23.77-0.10 23.18 0.10L23.18 0.10L23.18 0.10Q22.57 0.30 21.77 0.30L21.77 0.30L21.77 0.30Q19.75 0.30 18.52-0.99L18.52-0.99L18.52-0.99Q17.30-2.27 17.30-4.63L17.30-4.63L17.30-12.90L19.30-12.90L19.30-4.98L19.30-4.98Q19.30-3.20 20.07-2.34L20.07-2.34L20.07-2.34Q20.85-1.48 22.35-1.48L22.35-1.48L22.35-1.48Q22.95-1.48 23.52-1.63L23.52-1.63L23.52-1.63Q24.10-1.78 24.55-2.08L24.55-2.08L24.55-2.08Q25-2.38 25.27-2.84L25.27-2.84L25.27-2.84Q25.55-3.30 25.55-3.95L25.55-3.95L25.55-12.90L27.55-12.90L27.55 0L25.55 0ZM43.15 0L38.13 0L38.13 0Q36.65 0 35.96-0.83L35.96-0.83L35.96-0.83Q35.27-1.65 35.27-2.95L35.27-2.95L35.27-11.20L30.98-11.20L30.98-12.90L34.17-12.90L34.17-12.90Q34.83-12.90 35.09-13.16L35.09-13.16L35.09-13.16Q35.35-13.43 35.35-14.08L35.35-14.08L35.35-17.45L37.27-17.45L37.27-12.90L43.15-12.90L43.15-11.20L37.27-11.20L37.27-1.70L43.15-1.70L43.15 0ZM73.15 0L68.13 0L68.13 0Q66.65 0 65.96-0.83L65.96-0.83L65.96-0.83Q65.28-1.65 65.28-2.95L65.28-2.95L65.28-11.20L60.98-11.20L60.98-12.90L64.17-12.90L64.17-12.90Q64.83-12.90 65.09-13.16L65.09-13.16L65.09-13.16Q65.35-13.43 65.35-14.08L65.35-14.08L65.35-17.45L67.28-17.45L67.28-12.90L73.15-12.90L73.15-11.20L67.28-11.20L67.28-1.70L73.15-1.70L73.15 0ZM77.45 0L77.45-18.50L79.45-18.50L79.45-10.80L79.55-10.80L79.55-10.80Q79.75-11.28 80.05-11.71L80.05-11.71L80.05-11.71Q80.35-12.15 80.79-12.48L80.79-12.48L80.79-12.48Q81.22-12.80 81.83-13L81.83-13L81.83-13Q82.42-13.20 83.22-13.20L83.22-13.20L83.22-13.20Q85.25-13.20 86.47-11.91L86.47-11.91L86.47-11.91Q87.70-10.63 87.70-8.28L87.70-8.28L87.70 0L85.70 0L85.70-7.93L85.70-7.93Q85.70-9.70 84.92-10.56L84.92-10.56L84.92-10.56Q84.15-11.43 82.65-11.43L82.65-11.43L82.65-11.43Q82.05-11.43 81.47-11.28L81.47-11.28L81.47-11.28Q80.90-11.13 80.45-10.83L80.45-10.83L80.45-10.83Q80-10.53 79.72-10.05L79.72-10.05L79.72-10.05Q79.45-9.58 79.45-8.95L79.45-8.95L79.45 0L77.45 0ZM97.72 0.30L97.72 0.30L97.72 0.30Q96.33 0.30 95.21-0.18L95.21-0.18L95.21-0.18Q94.10-0.65 93.31-1.54L93.31-1.54L93.31-1.54Q92.53-2.43 92.10-3.66L92.10-3.66L92.10-3.66Q91.67-4.90 91.67-6.43L91.67-6.43L91.67-6.43Q91.67-7.98 92.11-9.22L92.11-9.22L92.11-9.22Q92.55-10.48 93.33-11.36L93.33-11.36L93.33-11.36Q94.10-12.25 95.19-12.73L95.19-12.73L95.19-12.73Q96.28-13.20 97.60-13.20L97.60-13.20L97.60-13.20Q98.90-13.20 99.96-12.73L99.96-12.73L99.96-12.73Q101.03-12.25 101.78-11.41L101.78-11.41L101.78-11.41Q102.53-10.58 102.92-9.43L102.92-9.43L102.92-9.43Q103.33-8.28 103.33-6.90L103.33-6.90L103.33-5.95L93.78-5.95L93.78-5.35L93.78-5.35Q93.78-4.50 94.05-3.78L94.05-3.78L94.05-3.78Q94.33-3.05 94.84-2.53L94.84-2.53L94.84-2.53Q95.35-2 96.09-1.71L96.09-1.71L96.09-1.71Q96.83-1.43 97.72-1.43L97.72-1.43L97.72-1.43Q99.03-1.43 99.97-2.02L99.97-2.02L99.97-2.02Q100.92-2.63 101.42-3.68L101.42-3.68L102.90-2.68L102.90-2.68Q102.33-1.38 100.99-0.54L100.99-0.54L100.99-0.54Q99.65 0.30 97.72 0.30ZM97.60-11.55L97.60-11.55L97.60-11.55Q96.78-11.55 96.08-11.25L96.08-11.25L96.08-11.25Q95.38-10.95 94.86-10.43L94.86-10.43L94.86-10.43Q94.35-9.90 94.06-9.19L94.06-9.19L94.06-9.19Q93.78-8.47 93.78-7.63L93.78-7.63L93.78-7.45L101.17-7.45L101.17-7.73L101.17-7.73Q101.17-8.58 100.91-9.28L100.91-9.28L100.91-9.28Q100.65-9.98 100.19-10.49L100.19-10.49L100.19-10.49Q99.72-11 99.06-11.28L99.06-11.28L99.06-11.28Q98.40-11.55 97.60-11.55ZM106.92 0L106.92-1.70L110.70-1.70L110.70-11.20L106.92-11.20L106.92-12.90L112.70-12.90L112.70-9.65L112.83-9.65L112.83-9.65Q113.22-11.18 114.34-12.04L114.34-12.04L114.34-12.04Q115.45-12.90 117.17-12.90L117.17-12.90L118.97-12.90L118.97-10.90L116.55-10.90L116.55-10.90Q114.83-10.90 113.76-9.90L113.76-9.90L113.76-9.90Q112.70-8.90 112.70-7.28L112.70-7.28L112.70-1.70L117.70-1.70L117.70 0L106.92 0ZM127.72 0.30L127.72 0.30L127.72 0.30Q126.33 0.30 125.21-0.18L125.21-0.18L125.21-0.18Q124.10-0.65 123.31-1.54L123.31-1.54L123.31-1.54Q122.53-2.43 122.10-3.66L122.10-3.66L122.10-3.66Q121.67-4.90 121.67-6.43L121.67-6.43L121.67-6.43Q121.67-7.98 122.11-9.22L122.11-9.22L122.11-9.22Q122.55-10.48 123.33-11.36L123.33-11.36L123.33-11.36Q124.10-12.25 125.19-12.73L125.19-12.73L125.19-12.73Q126.28-13.20 127.60-13.20L127.60-13.20L127.60-13.20Q128.90-13.20 129.96-12.73L129.96-12.73L129.96-12.73Q131.03-12.25 131.78-11.41L131.78-11.41L131.78-11.41Q132.53-10.58 132.93-9.43L132.93-9.43L132.93-9.43Q133.32-8.28 133.32-6.90L133.32-6.90L133.32-5.95L123.78-5.95L123.78-5.35L123.78-5.35Q123.78-4.50 124.05-3.78L124.05-3.78L124.05-3.78Q124.33-3.05 124.84-2.53L124.84-2.53L124.84-2.53Q125.35-2 126.09-1.71L126.09-1.71L126.09-1.71Q126.83-1.43 127.72-1.43L127.72-1.43L127.72-1.43Q129.03-1.43 129.97-2.02L129.97-2.02L129.97-2.02Q130.93-2.63 131.43-3.68L131.43-3.68L132.90-2.68L132.90-2.68Q132.32-1.38 130.99-0.54L130.99-0.54L130.99-0.54Q129.65 0.30 127.72 0.30ZM127.60-11.55L127.60-11.55L127.60-11.55Q126.78-11.55 126.08-11.25L126.08-11.25L126.08-11.25Q125.38-10.95 124.86-10.43L124.86-10.43L124.86-10.43Q124.35-9.90 124.06-9.19L124.06-9.19L124.06-9.19Q123.78-8.47 123.78-7.63L123.78-7.63L123.78-7.45L131.18-7.45L131.18-7.73L131.18-7.73Q131.18-8.58 130.91-9.28L130.91-9.28L130.91-9.28Q130.65-9.98 130.19-10.49L130.19-10.49L130.19-10.49Q129.72-11 129.06-11.28L129.06-11.28L129.06-11.28Q128.40-11.55 127.60-11.55ZM140.57-11.58L141.90-18.50L145.13-18.50L142.25-11.58L140.57-11.58ZM157.65 0.30L157.65 0.30L157.65 0.30Q155.63 0.30 154.16-0.39L154.16-0.39L154.16-0.39Q152.70-1.07 151.68-2.23L151.68-2.23L153.03-3.40L153.03-3.40Q153.95-2.43 155.05-1.90L155.05-1.90L155.05-1.90Q156.15-1.38 157.70-1.38L157.70-1.38L157.70-1.38Q159.20-1.38 160.16-1.91L160.16-1.91L160.16-1.91Q161.13-2.45 161.13-3.60L161.13-3.60L161.13-3.60Q161.13-4.10 160.94-4.44L160.94-4.44L160.94-4.44Q160.75-4.78 160.43-4.98L160.43-4.98L160.43-4.98Q160.10-5.18 159.70-5.29L159.70-5.29L159.70-5.29Q159.30-5.40 158.85-5.48L158.85-5.48L156.82-5.78L156.82-5.78Q156.15-5.88 155.36-6.05L155.36-6.05L155.36-6.05Q154.57-6.23 153.93-6.61L153.93-6.61L153.93-6.61Q153.28-7 152.84-7.65L152.84-7.65L152.84-7.65Q152.40-8.30 152.40-9.35L152.40-9.35L152.40-9.35Q152.40-10.33 152.79-11.04L152.79-11.04L152.79-11.04Q153.18-11.75 153.88-12.24L153.88-12.24L153.88-12.24Q154.57-12.73 155.53-12.96L155.53-12.96L155.53-12.96Q156.47-13.20 157.60-13.20L157.60-13.20L157.60-13.20Q159.35-13.20 160.64-12.65L160.64-12.65L160.64-12.65Q161.93-12.10 162.85-11.13L162.85-11.13L161.55-9.90L161.55-9.90Q161.32-10.18 160.99-10.46L160.99-10.46L160.99-10.46Q160.65-10.75 160.16-10.99L160.16-10.99L160.16-10.99Q159.68-11.23 159.03-11.38L159.03-11.38L159.03-11.38Q158.38-11.53 157.53-11.53L157.53-11.53L157.53-11.53Q156-11.53 155.19-11L155.19-11L155.19-11Q154.38-10.48 154.38-9.47L154.38-9.47L154.38-9.47Q154.38-8.97 154.56-8.64L154.56-8.64L154.56-8.64Q154.75-8.30 155.07-8.10L155.07-8.10L155.07-8.10Q155.40-7.90 155.81-7.79L155.81-7.79L155.81-7.79Q156.22-7.68 156.65-7.60L156.65-7.60L158.68-7.30L158.68-7.30Q159.38-7.20 160.15-7.03L160.15-7.03L160.15-7.03Q160.93-6.85 161.57-6.46L161.57-6.46L161.57-6.46Q162.22-6.08 162.66-5.43L162.66-5.43L162.66-5.43Q163.10-4.78 163.10-3.73L163.10-3.73L163.10-3.73Q163.10-1.80 161.61-0.75L161.61-0.75L161.61-0.75Q160.13 0.30 157.65 0.30ZM184.45 0L182.45 0L182.45-12.90L184.45-12.90L184.45-10.80L184.55-10.80L184.55-10.80Q184.75-11.28 185.05-11.71L185.05-11.71L185.05-11.71Q185.35-12.15 185.79-12.48L185.79-12.48L185.79-12.48Q186.22-12.80 186.82-13L186.82-13L186.82-13Q187.43-13.20 188.22-13.20L188.22-13.20L188.22-13.20Q190.25-13.20 191.47-11.91L191.47-11.91L191.47-11.91Q192.70-10.63 192.70-8.28L192.70-8.28L192.70 0L190.70 0L190.70-7.93L190.70-7.93Q190.70-9.70 189.93-10.56L189.93-10.56L189.93-10.56Q189.15-11.43 187.65-11.43L187.65-11.43L187.65-11.43Q187.05-11.43 186.47-11.28L186.47-11.28L186.47-11.28Q185.90-11.13 185.45-10.83L185.45-10.83L185.45-10.83Q185-10.53 184.72-10.05L184.72-10.05L184.72-10.05Q184.45-9.58 184.45-8.95L184.45-8.95L184.45 0ZM202.50 0.30L202.50 0.30L202.50 0.30Q201.15 0.30 200.06-0.18L200.06-0.18L200.06-0.18Q198.97-0.65 198.21-1.54L198.21-1.54L198.21-1.54Q197.45-2.43 197.05-3.66L197.05-3.66L197.05-3.66Q196.65-4.90 196.65-6.45L196.65-6.45L196.65-6.45Q196.65-7.98 197.05-9.22L197.05-9.22L197.05-9.22Q197.45-10.48 198.21-11.36L198.21-11.36L198.21-11.36Q198.97-12.25 200.06-12.73L200.06-12.73L200.06-12.73Q201.15-13.20 202.50-13.20L202.50-13.20L202.50-13.20Q203.85-13.20 204.94-12.73L204.94-12.73L204.94-12.73Q206.03-12.25 206.79-11.36L206.79-11.36L206.79-11.36Q207.55-10.48 207.95-9.22L207.95-9.22L207.95-9.22Q208.35-7.98 208.35-6.45L208.35-6.45L208.35-6.45Q208.35-4.90 207.95-3.66L207.95-3.66L207.95-3.66Q207.55-2.43 206.79-1.54L206.79-1.54L206.79-1.54Q206.03-0.65 204.94-0.18L204.94-0.18L204.94-0.18Q203.85 0.30 202.50 0.30ZM202.50-1.43L202.50-1.43L202.50-1.43Q204.18-1.43 205.20-2.43L205.20-2.43L205.20-2.43Q206.22-3.43 206.22-5.53L206.22-5.53L206.22-7.38L206.22-7.38Q206.22-9.47 205.20-10.48L205.20-10.48L205.20-10.48Q204.18-11.48 202.50-11.48L202.50-11.48L202.50-11.48Q200.82-11.48 199.80-10.48L199.80-10.48L199.80-10.48Q198.78-9.47 198.78-7.38L198.78-7.38L198.78-5.53L198.78-5.53Q198.78-3.43 199.80-2.43L199.80-2.43L199.80-2.43Q200.82-1.43 202.50-1.43ZM227.55 5L227.55 3.30L233.80 3.30L233.80-11.20L227.32-11.20L227.32-12.90L235.80-12.90L235.80 2.05L235.80 2.05Q235.80 3.35 235.11 4.17L235.11 4.17L235.11 4.17Q234.43 5 232.95 5L232.95 5L227.55 5ZM234.80-15.75L234.80-15.75L234.80-15.75Q233.93-15.75 233.57-16.11L233.57-16.11L233.57-16.11Q233.22-16.48 233.22-17.03L233.22-17.03L233.22-17.43L233.22-17.43Q233.22-17.98 233.57-18.34L233.57-18.34L233.57-18.34Q233.93-18.70 234.80-18.70L234.80-18.70L234.80-18.70Q235.68-18.70 236.03-18.34L236.03-18.34L236.03-18.34Q236.38-17.98 236.38-17.43L236.38-17.43L236.38-17.03L236.38-17.03Q236.38-16.48 236.03-16.11L236.03-16.11L236.03-16.11Q235.68-15.75 234.80-15.75ZM247.50 0.30L247.50 0.30L247.50 0.30Q246.15 0.30 245.06-0.18L245.06-0.18L245.06-0.18Q243.97-0.65 243.21-1.54L243.21-1.54L243.21-1.54Q242.45-2.43 242.05-3.66L242.05-3.66L242.05-3.66Q241.65-4.90 241.65-6.45L241.65-6.45L241.65-6.45Q241.65-7.98 242.05-9.22L242.05-9.22L242.05-9.22Q242.45-10.48 243.21-11.36L243.21-11.36L243.21-11.36Q243.97-12.25 245.06-12.73L245.06-12.73L245.06-12.73Q246.15-13.20 247.50-13.20L247.50-13.20L247.50-13.20Q248.85-13.20 249.94-12.73L249.94-12.73L249.94-12.73Q251.03-12.25 251.79-11.36L251.79-11.36L251.79-11.36Q252.55-10.48 252.95-9.22L252.95-9.22L252.95-9.22Q253.35-7.98 253.35-6.45L253.35-6.45L253.35-6.45Q253.35-4.90 252.95-3.66L252.95-3.66L252.95-3.66Q252.55-2.43 251.79-1.54L251.79-1.54L251.79-1.54Q251.03-0.65 249.94-0.18L249.94-0.18L249.94-0.18Q248.85 0.30 247.50 0.30ZM247.50-1.43L247.50-1.43L247.50-1.43Q249.18-1.43 250.20-2.43L250.20-2.43L250.20-2.43Q251.22-3.43 251.22-5.53L251.22-5.53L251.22-7.38L251.22-7.38Q251.22-9.47 250.20-10.48L250.20-10.48L250.20-10.48Q249.18-11.48 247.50-11.48L247.50-11.48L247.50-11.48Q245.82-11.48 244.80-10.48L244.80-10.48L244.80-10.48Q243.78-9.47 243.78-7.38L243.78-7.38L243.78-5.53L243.78-5.53Q243.78-3.43 244.80-2.43L244.80-2.43L244.80-2.43Q245.82-1.43 247.50-1.43ZM264.50-7.50L266.68-12.90L268.68-12.90L262.27 2.83L262.27 2.83Q262.05 3.38 261.77 3.79L261.77 3.79L261.77 3.79Q261.50 4.20 261.13 4.46L261.13 4.46L261.13 4.46Q260.75 4.73 260.23 4.86L260.23 4.86L260.23 4.86Q259.70 5 258.98 5L258.98 5L257.07 5L257.07 3.30L260.07 3.30L261.52-0.25L256.32-12.90L258.38-12.90L260.55-7.50L262.48-2.60L262.57-2.60L264.50-7.50ZM293.30-15.75L293.30-15.75L293.30-15.75Q292.43-15.75 292.07-16.11L292.07-16.11L292.07-16.11Q291.73-16.48 291.73-17.03L291.73-17.03L291.73-17.43L291.73-17.43Q291.73-17.98 292.07-18.34L292.07-18.34L292.07-18.34Q292.43-18.70 293.30-18.70L293.30-18.70L293.30-18.70Q294.18-18.70 294.52-18.34L294.52-18.34L294.52-18.34Q294.88-17.98 294.88-17.43L294.88-17.43L294.88-17.03L294.88-17.03Q294.88-16.48 294.52-16.11L294.52-16.11L294.52-16.11Q294.18-15.75 293.30-15.75ZM287.65 0L287.65-1.70L292.30-1.70L292.30-11.20L287.65-11.20L287.65-12.90L294.30-12.90L294.30-1.70L298.65-1.70L298.65 0L287.65 0ZM304.45 0L302.45 0L302.45-12.90L304.45-12.90L304.45-10.80L304.55-10.80L304.55-10.80Q304.75-11.28 305.05-11.71L305.05-11.71L305.05-11.71Q305.35-12.15 305.79-12.48L305.79-12.48L305.79-12.48Q306.23-12.80 306.82-13L306.82-13L306.82-13Q307.43-13.20 308.23-13.20L308.23-13.20L308.23-13.20Q310.25-13.20 311.48-11.91L311.48-11.91L311.48-11.91Q312.70-10.63 312.70-8.28L312.70-8.28L312.70 0L310.70 0L310.70-7.93L310.70-7.93Q310.70-9.70 309.93-10.56L309.93-10.56L309.93-10.56Q309.15-11.43 307.65-11.43L307.65-11.43L307.65-11.43Q307.05-11.43 306.48-11.28L306.48-11.28L306.48-11.28Q305.90-11.13 305.45-10.83L305.45-10.83L305.45-10.83Q305-10.53 304.73-10.05L304.73-10.05L304.73-10.05Q304.45-9.58 304.45-8.95L304.45-8.95L304.45 0ZM332 0L332-1.70L336.50-1.70L336.50-16.80L332-16.80L332-18.50L338.50-18.50L338.50-1.70L343-1.70L343 0L332 0ZM353.30-15.75L353.30-15.75L353.30-15.75Q352.43-15.75 352.07-16.11L352.07-16.11L352.07-16.11Q351.73-16.48 351.73-17.03L351.73-17.03L351.73-17.43L351.73-17.43Q351.73-17.98 352.07-18.34L352.07-18.34L352.07-18.34Q352.43-18.70 353.30-18.70L353.30-18.70L353.30-18.70Q354.18-18.70 354.52-18.34L354.52-18.34L354.52-18.34Q354.88-17.98 354.88-17.43L354.88-17.43L354.88-17.03L354.88-17.03Q354.88-16.48 354.52-16.11L354.52-16.11L354.52-16.11Q354.18-15.75 353.30-15.75ZM347.65 0L347.65-1.70L352.30-1.70L352.30-11.20L347.65-11.20L347.65-12.90L354.30-12.90L354.30-1.70L358.65-1.70L358.65 0L347.65 0ZM368.77 0L366.23 0L361.60-12.90L363.63-12.90L365.48-7.50L367.48-1.68L367.57-1.68L369.57-7.50L371.43-12.90L373.40-12.90L368.77 0ZM383.30-15.75L383.30-15.75L383.30-15.75Q382.43-15.75 382.07-16.11L382.07-16.11L382.07-16.11Q381.73-16.48 381.73-17.03L381.73-17.03L381.73-17.43L381.73-17.43Q381.73-17.98 382.07-18.34L382.07-18.34L382.07-18.34Q382.43-18.70 383.30-18.70L383.30-18.70L383.30-18.70Q384.18-18.70 384.52-18.34L384.52-18.34L384.52-18.34Q384.88-17.98 384.88-17.43L384.88-17.43L384.88-17.03L384.88-17.03Q384.88-16.48 384.52-16.11L384.52-16.11L384.52-16.11Q384.18-15.75 383.30-15.75ZM377.65 0L377.65-1.70L382.30-1.70L382.30-11.20L377.65-11.20L377.65-12.90L384.30-12.90L384.30-1.70L388.65-1.70L388.65 0L377.65 0ZM394.45 0L392.45 0L392.45-12.90L394.45-12.90L394.45-10.80L394.55-10.80L394.55-10.80Q394.75-11.28 395.05-11.71L395.05-11.71L395.05-11.71Q395.35-12.15 395.79-12.48L395.79-12.48L395.79-12.48Q396.23-12.80 396.82-13L396.82-13L396.82-13Q397.43-13.20 398.23-13.20L398.23-13.20L398.23-13.20Q400.25-13.20 401.48-11.91L401.48-11.91L401.48-11.91Q402.70-10.63 402.70-8.28L402.70-8.28L402.70 0L400.70 0L400.70-7.93L400.70-7.93Q400.70-9.70 399.93-10.56L399.93-10.56L399.93-10.56Q399.15-11.43 397.65-11.43L397.65-11.43L397.65-11.43Q397.05-11.43 396.48-11.28L396.48-11.28L396.48-11.28Q395.90-11.13 395.45-10.83L395.45-10.83L395.45-10.83Q395-10.53 394.73-10.05L394.73-10.05L394.73-10.05Q394.45-9.58 394.45-8.95L394.45-8.95L394.45 0ZM419.02 1.48L419.02 1.48L419.02 1.48Q419.02 3.43 417.40 4.36L417.40 4.36L417.40 4.36Q415.77 5.30 412.52 5.30L412.52 5.30L412.52 5.30Q409.40 5.30 408.04 4.48L408.04 4.48L408.04 4.48Q406.68 3.65 406.68 2.10L406.68 2.10L406.68 2.10Q406.68 1.05 407.23 0.48L407.23 0.48L407.23 0.48Q407.77-0.10 408.77-0.38L408.77-0.38L408.77-0.68L408.77-0.68Q408.23-0.95 407.93-1.38L407.93-1.38L407.93-1.38Q407.63-1.80 407.63-2.45L407.63-2.45L407.63-2.45Q407.63-3.45 408.29-3.95L408.29-3.95L408.29-3.95Q408.95-4.45 409.95-4.70L409.95-4.70L409.95-4.80L409.95-4.80Q408.75-5.33 408.09-6.35L408.09-6.35L408.09-6.35Q407.43-7.38 407.43-8.75L407.43-8.75L407.43-8.75Q407.43-9.73 407.77-10.55L407.77-10.55L407.77-10.55Q408.13-11.38 408.79-11.96L408.79-11.96L408.79-11.96Q409.45-12.55 410.38-12.88L410.38-12.88L410.38-12.88Q411.30-13.20 412.43-13.20L412.43-13.20L412.43-13.20Q413.88-13.20 414.98-12.68L414.98-12.68L414.98-12.90L414.98-12.90Q414.98-13.65 415.32-14.15L415.32-14.15L415.32-14.15Q415.68-14.65 416.52-14.65L416.52-14.65L418.90-14.65L418.90-12.90L416-12.90L416-12.03L416-12.03Q416.70-11.43 417.07-10.60L417.07-10.60L417.07-10.60Q417.45-9.78 417.45-8.75L417.45-8.75L417.45-8.75Q417.45-7.78 417.09-6.95L417.09-6.95L417.09-6.95Q416.73-6.13 416.07-5.54L416.07-5.54L416.07-5.54Q415.43-4.95 414.49-4.63L414.49-4.63L414.49-4.63Q413.55-4.30 412.43-4.30L412.43-4.30L412.43-4.30Q412.10-4.30 411.80-4.33L411.80-4.33L411.80-4.33Q411.50-4.35 411.20-4.40L411.20-4.40L411.20-4.40Q410.90-4.35 410.57-4.24L410.57-4.24L410.57-4.24Q410.25-4.13 409.98-3.94L409.98-3.94L409.98-3.94Q409.70-3.75 409.52-3.50L409.52-3.50L409.52-3.50Q409.35-3.25 409.35-2.93L409.35-2.93L409.35-2.93Q409.35-2.35 409.93-2.16L409.93-2.16L409.93-2.16Q410.50-1.98 411.43-1.98L411.43-1.98L414.27-1.98L414.27-1.98Q416.77-1.98 417.90-1.04L417.90-1.04L417.90-1.04Q419.02-0.10 419.02 1.48ZM417.15 1.58L417.15 1.58L417.15 1.58Q417.15 0.80 416.52 0.34L416.52 0.34L416.52 0.34Q415.90-0.13 414.35-0.13L414.35-0.13L409.88-0.13L409.88-0.13Q408.57 0.40 408.57 1.63L408.57 1.63L408.57 1.63Q408.57 2.48 409.25 3.09L409.25 3.09L409.25 3.09Q409.93 3.70 411.50 3.70L411.50 3.70L413.45 3.70L413.45 3.70Q415.20 3.70 416.18 3.16L416.18 3.16L416.18 3.16Q417.15 2.63 417.15 1.58ZM412.43-5.85L412.43-5.85L412.43-5.85Q413.93-5.85 414.64-6.55L414.64-6.55L414.64-6.55Q415.35-7.25 415.35-8.40L415.35-8.40L415.35-9.13L415.35-9.13Q415.35-10.28 414.64-10.96L414.64-10.96L414.64-10.96Q413.93-11.65 412.43-11.65L412.43-11.65L412.43-11.65Q410.93-11.65 410.23-10.96L410.23-10.96L410.23-10.96Q409.52-10.28 409.52-9.13L409.52-9.13L409.52-8.40L409.52-8.40Q409.52-7.25 410.23-6.55L410.23-6.55L410.23-6.55Q410.93-5.85 412.43-5.85ZM444.50-7.50L446.68-12.90L448.68-12.90L442.27 2.83L442.27 2.83Q442.05 3.38 441.77 3.79L441.77 3.79L441.77 3.79Q441.50 4.20 441.13 4.46L441.13 4.46L441.13 4.46Q440.75 4.73 440.23 4.86L440.23 4.86L440.23 4.86Q439.70 5 438.98 5L438.98 5L437.07 5L437.07 3.30L440.07 3.30L441.52-0.25L436.32-12.90L438.38-12.90L440.55-7.50L442.48-2.60L442.57-2.60L444.50-7.50ZM457.50 0.30L457.50 0.30L457.50 0.30Q456.15 0.30 455.06-0.18L455.06-0.18L455.06-0.18Q453.98-0.65 453.21-1.54L453.21-1.54L453.21-1.54Q452.45-2.43 452.05-3.66L452.05-3.66L452.05-3.66Q451.65-4.90 451.65-6.45L451.65-6.45L451.65-6.45Q451.65-7.98 452.05-9.22L452.05-9.22L452.05-9.22Q452.45-10.48 453.21-11.36L453.21-11.36L453.21-11.36Q453.98-12.25 455.06-12.73L455.06-12.73L455.06-12.73Q456.15-13.20 457.50-13.20L457.50-13.20L457.50-13.20Q458.85-13.20 459.94-12.73L459.94-12.73L459.94-12.73Q461.02-12.25 461.79-11.36L461.79-11.36L461.79-11.36Q462.55-10.48 462.95-9.22L462.95-9.22L462.95-9.22Q463.35-7.98 463.35-6.45L463.35-6.45L463.35-6.45Q463.35-4.90 462.95-3.66L462.95-3.66L462.95-3.66Q462.55-2.43 461.79-1.54L461.79-1.54L461.79-1.54Q461.02-0.65 459.94-0.18L459.94-0.18L459.94-0.18Q458.85 0.30 457.50 0.30ZM457.50-1.43L457.50-1.43L457.50-1.43Q459.18-1.43 460.20-2.43L460.20-2.43L460.20-2.43Q461.23-3.43 461.23-5.53L461.23-5.53L461.23-7.38L461.23-7.38Q461.23-9.47 460.20-10.48L460.20-10.48L460.20-10.48Q459.18-11.48 457.50-11.48L457.50-11.48L457.50-11.48Q455.82-11.48 454.80-10.48L454.80-10.48L454.80-10.48Q453.77-9.47 453.77-7.38L453.77-7.38L453.77-5.53L453.77-5.53Q453.77-3.43 454.80-2.43L454.80-2.43L454.80-2.43Q455.82-1.43 457.50-1.43ZM475.55 0L475.55-2.10L475.45-2.10L475.45-2.10Q475.25-1.63 474.95-1.19L474.95-1.19L474.95-1.19Q474.65-0.75 474.21-0.43L474.21-0.43L474.21-0.43Q473.77-0.10 473.18 0.10L473.18 0.10L473.18 0.10Q472.57 0.30 471.77 0.30L471.77 0.30L471.77 0.30Q469.75 0.30 468.52-0.99L468.52-0.99L468.52-0.99Q467.30-2.27 467.30-4.63L467.30-4.63L467.30-12.90L469.30-12.90L469.30-4.98L469.30-4.98Q469.30-3.20 470.07-2.34L470.07-2.34L470.07-2.34Q470.85-1.48 472.35-1.48L472.35-1.48L472.35-1.48Q472.95-1.48 473.52-1.63L473.52-1.63L473.52-1.63Q474.10-1.78 474.55-2.08L474.55-2.08L474.55-2.08Q475-2.38 475.27-2.84L475.27-2.84L475.27-2.84Q475.55-3.30 475.55-3.95L475.55-3.95L475.55-12.90L477.55-12.90L477.55 0L475.55 0ZM481.93 0L481.93-1.70L485.70-1.70L485.70-11.20L481.93-11.20L481.93-12.90L487.70-12.90L487.70-9.65L487.82-9.65L487.82-9.65Q488.23-11.18 489.34-12.04L489.34-12.04L489.34-12.04Q490.45-12.90 492.18-12.90L492.18-12.90L493.98-12.90L493.98-10.90L491.55-10.90L491.55-10.90Q489.82-10.90 488.76-9.90L488.76-9.90L488.76-9.90Q487.70-8.90 487.70-7.28L487.70-7.28L487.70-1.70L492.70-1.70L492.70 0L481.93 0ZM512.73 0L510.75-12.90L512.52-12.90L514-1.75L514.23-1.75L516.42-12.90L518.63-12.90L520.83-1.75L521.05-1.75L522.52-12.90L524.25-12.90L522.27 0L519.67 0L517.63-10.80L517.42-10.80L515.33 0L512.73 0ZM527.45 0L527.45-18.50L529.45-18.50L529.45-10.80L529.55-10.80L529.55-10.80Q529.75-11.28 530.05-11.71L530.05-11.71L530.05-11.71Q530.35-12.15 530.79-12.48L530.79-12.48L530.79-12.48Q531.23-12.80 531.83-13L531.83-13L531.83-13Q532.42-13.20 533.23-13.20L533.23-13.20L533.23-13.20Q535.25-13.20 536.48-11.91L536.48-11.91L536.48-11.91Q537.70-10.63 537.70-8.28L537.70-8.28L537.70 0L535.70 0L535.70-7.93L535.70-7.93Q535.70-9.70 534.92-10.56L534.92-10.56L534.92-10.56Q534.15-11.43 532.65-11.43L532.65-11.43L532.65-11.43Q532.05-11.43 531.48-11.28L531.48-11.28L531.48-11.28Q530.90-11.13 530.45-10.83L530.45-10.83L530.45-10.83Q530-10.53 529.73-10.05L529.73-10.05L529.73-10.05Q529.45-9.58 529.45-8.95L529.45-8.95L529.45 0L527.45 0ZM547.50 0.30L547.50 0.30L547.50 0.30Q546.15 0.30 545.06-0.18L545.06-0.18L545.06-0.18Q543.98-0.65 543.21-1.54L543.21-1.54L543.21-1.54Q542.45-2.43 542.05-3.66L542.05-3.66L542.05-3.66Q541.65-4.90 541.65-6.45L541.65-6.45L541.65-6.45Q541.65-7.98 542.05-9.22L542.05-9.22L542.05-9.22Q542.45-10.48 543.21-11.36L543.21-11.36L543.21-11.36Q543.98-12.25 545.06-12.73L545.06-12.73L545.06-12.73Q546.15-13.20 547.50-13.20L547.50-13.20L547.50-13.20Q548.85-13.20 549.94-12.73L549.94-12.73L549.94-12.73Q551.02-12.25 551.79-11.36L551.79-11.36L551.79-11.36Q552.55-10.48 552.95-9.22L552.95-9.22L552.95-9.22Q553.35-7.98 553.35-6.45L553.35-6.45L553.35-6.45Q553.35-4.90 552.95-3.66L552.95-3.66L552.95-3.66Q552.55-2.43 551.79-1.54L551.79-1.54L551.79-1.54Q551.02-0.65 549.94-0.18L549.94-0.18L549.94-0.18Q548.85 0.30 547.50 0.30ZM547.50-1.43L547.50-1.43L547.50-1.43Q549.17-1.43 550.20-2.43L550.20-2.43L550.20-2.43Q551.23-3.43 551.23-5.53L551.23-5.53L551.23-7.38L551.23-7.38Q551.23-9.47 550.20-10.48L550.20-10.48L550.20-10.48Q549.17-11.48 547.50-11.48L547.50-11.48L547.50-11.48Q545.83-11.48 544.80-10.48L544.80-10.48L544.80-10.48Q543.77-9.47 543.77-7.38L543.77-7.38L543.77-5.53L543.77-5.53Q543.77-3.43 544.80-2.43L544.80-2.43L544.80-2.43Q545.83-1.43 547.50-1.43ZM557 0L557-1.70L561.50-1.70L561.50-16.80L557-16.80L557-18.50L563.50-18.50L563.50-1.70L568-1.70L568 0L557 0ZM577.73 0.30L577.73 0.30L577.73 0.30Q576.33 0.30 575.21-0.18L575.21-0.18L575.21-0.18Q574.10-0.65 573.31-1.54L573.31-1.54L573.31-1.54Q572.52-2.43 572.10-3.66L572.10-3.66L572.10-3.66Q571.67-4.90 571.67-6.43L571.67-6.43L571.67-6.43Q571.67-7.98 572.11-9.22L572.11-9.22L572.11-9.22Q572.55-10.48 573.33-11.36L573.33-11.36L573.33-11.36Q574.10-12.25 575.19-12.73L575.19-12.73L575.19-12.73Q576.27-13.20 577.60-13.20L577.60-13.20L577.60-13.20Q578.90-13.20 579.96-12.73L579.96-12.73L579.96-12.73Q581.02-12.25 581.77-11.41L581.77-11.41L581.77-11.41Q582.52-10.58 582.92-9.43L582.92-9.43L582.92-9.43Q583.33-8.28 583.33-6.90L583.33-6.90L583.33-5.95L573.77-5.95L573.77-5.35L573.77-5.35Q573.77-4.50 574.05-3.78L574.05-3.78L574.05-3.78Q574.33-3.05 574.84-2.53L574.84-2.53L574.84-2.53Q575.35-2 576.09-1.71L576.09-1.71L576.09-1.71Q576.83-1.43 577.73-1.43L577.73-1.43L577.73-1.43Q579.02-1.43 579.98-2.02L579.98-2.02L579.98-2.02Q580.92-2.63 581.42-3.68L581.42-3.68L582.90-2.68L582.90-2.68Q582.33-1.38 580.99-0.54L580.99-0.54L580.99-0.54Q579.65 0.30 577.73 0.30ZM577.60-11.55L577.60-11.55L577.60-11.55Q576.77-11.55 576.08-11.25L576.08-11.25L576.08-11.25Q575.38-10.95 574.86-10.43L574.86-10.43L574.86-10.43Q574.35-9.90 574.06-9.19L574.06-9.19L574.06-9.19Q573.77-8.47 573.77-7.63L573.77-7.63L573.77-7.45L581.17-7.45L581.17-7.73L581.17-7.73Q581.17-8.58 580.91-9.28L580.91-9.28L580.91-9.28Q580.65-9.98 580.19-10.49L580.19-10.49L580.19-10.49Q579.73-11 579.06-11.28L579.06-11.28L579.06-11.28Q578.40-11.55 577.60-11.55ZM602 0L602-1.70L606.50-1.70L606.50-16.80L602-16.80L602-18.50L608.50-18.50L608.50-1.70L613-1.70L613 0L602 0ZM623.30-15.75L623.30-15.75L623.30-15.75Q622.42-15.75 622.08-16.11L622.08-16.11L622.08-16.11Q621.73-16.48 621.73-17.03L621.73-17.03L621.73-17.43L621.73-17.43Q621.73-17.98 622.08-18.34L622.08-18.34L622.08-18.34Q622.42-18.70 623.30-18.70L623.30-18.70L623.30-18.70Q624.17-18.70 624.52-18.34L624.52-18.34L624.52-18.34Q624.88-17.98 624.88-17.43L624.88-17.43L624.88-17.03L624.88-17.03Q624.88-16.48 624.52-16.11L624.52-16.11L624.52-16.11Q624.17-15.75 623.30-15.75ZM617.65 0L617.65-1.70L622.30-1.70L622.30-11.20L617.65-11.20L617.65-12.90L624.30-12.90L624.30-1.70L628.65-1.70L628.65 0L617.65 0ZM632.08 0L632.08-1.70L636.42-1.70L636.42-11.20L631.83-11.20L631.83-12.90L636.42-12.90L636.42-15.55L636.42-15.55Q636.42-16.85 637.11-17.68L637.11-17.68L637.11-17.68Q637.80-18.50 639.27-18.50L639.27-18.50L643.60-18.50L643.60-16.80L638.42-16.80L638.42-12.90L643.60-12.90L643.60-11.20L638.42-11.20L638.42-1.70L643.02-1.70L643.02 0L632.08 0ZM652.73 0.30L652.73 0.30L652.73 0.30Q651.33 0.30 650.21-0.18L650.21-0.18L650.21-0.18Q649.10-0.65 648.31-1.54L648.31-1.54L648.31-1.54Q647.52-2.43 647.10-3.66L647.10-3.66L647.10-3.66Q646.67-4.90 646.67-6.43L646.67-6.43L646.67-6.43Q646.67-7.98 647.11-9.22L647.11-9.22L647.11-9.22Q647.55-10.48 648.33-11.36L648.33-11.36L648.33-11.36Q649.10-12.25 650.19-12.73L650.19-12.73L650.19-12.73Q651.27-13.20 652.60-13.20L652.60-13.20L652.60-13.20Q653.90-13.20 654.96-12.73L654.96-12.73L654.96-12.73Q656.02-12.25 656.77-11.41L656.77-11.41L656.77-11.41Q657.52-10.58 657.92-9.43L657.92-9.43L657.92-9.43Q658.33-8.28 658.33-6.90L658.33-6.90L658.33-5.95L648.77-5.95L648.77-5.35L648.77-5.35Q648.77-4.50 649.05-3.78L649.05-3.78L649.05-3.78Q649.33-3.05 649.84-2.53L649.84-2.53L649.84-2.53Q650.35-2 651.09-1.71L651.09-1.71L651.09-1.71Q651.83-1.43 652.73-1.43L652.73-1.43L652.73-1.43Q654.02-1.43 654.98-2.02L654.98-2.02L654.98-2.02Q655.92-2.63 656.42-3.68L656.42-3.68L657.90-2.68L657.90-2.68Q657.33-1.38 655.99-0.54L655.99-0.54L655.99-0.54Q654.65 0.30 652.73 0.30ZM652.60-11.55L652.60-11.55L652.60-11.55Q651.77-11.55 651.08-11.25L651.08-11.25L651.08-11.25Q650.38-10.95 649.86-10.43L649.86-10.43L649.86-10.43Q649.35-9.90 649.06-9.19L649.06-9.19L649.06-9.19Q648.77-8.47 648.77-7.63L648.77-7.63L648.77-7.45L656.17-7.45L656.17-7.73L656.17-7.73Q656.17-8.58 655.91-9.28L655.91-9.28L655.91-9.28Q655.65-9.98 655.19-10.49L655.19-10.49L655.19-10.49Q654.73-11 654.06-11.28L654.06-11.28L654.06-11.28Q653.40-11.55 652.60-11.55ZM682.50 0.30L682.50 0.30L682.50 0.30Q681.15 0.30 680.06-0.18L680.06-0.18L680.06-0.18Q678.98-0.65 678.21-1.54L678.21-1.54L678.21-1.54Q677.45-2.43 677.05-3.66L677.05-3.66L677.05-3.66Q676.65-4.90 676.65-6.45L676.65-6.45L676.65-6.45Q676.65-7.98 677.05-9.22L677.05-9.22L677.05-9.22Q677.45-10.48 678.21-11.36L678.21-11.36L678.21-11.36Q678.98-12.25 680.06-12.73L680.06-12.73L680.06-12.73Q681.15-13.20 682.50-13.20L682.50-13.20L682.50-13.20Q683.85-13.20 684.94-12.73L684.94-12.73L684.94-12.73Q686.02-12.25 686.79-11.36L686.79-11.36L686.79-11.36Q687.55-10.48 687.95-9.22L687.95-9.22L687.95-9.22Q688.35-7.98 688.35-6.45L688.35-6.45L688.35-6.45Q688.35-4.90 687.95-3.66L687.95-3.66L687.95-3.66Q687.55-2.43 686.79-1.54L686.79-1.54L686.79-1.54Q686.02-0.65 684.94-0.18L684.94-0.18L684.94-0.18Q683.85 0.30 682.50 0.30ZM682.50-1.43L682.50-1.43L682.50-1.43Q684.17-1.43 685.20-2.43L685.20-2.43L685.20-2.43Q686.23-3.43 686.23-5.53L686.23-5.53L686.23-7.38L686.23-7.38Q686.23-9.47 685.20-10.48L685.20-10.48L685.20-10.48Q684.17-11.48 682.50-11.48L682.50-11.48L682.50-11.48Q680.83-11.48 679.80-10.48L679.80-10.48L679.80-10.48Q678.77-9.47 678.77-7.38L678.77-7.38L678.77-5.53L678.77-5.53Q678.77-3.43 679.80-2.43L679.80-2.43L679.80-2.43Q680.83-1.43 682.50-1.43ZM694.45 0L692.45 0L692.45-12.90L694.45-12.90L694.45-10.80L694.55-10.80L694.55-10.80Q694.75-11.28 695.05-11.71L695.05-11.71L695.05-11.71Q695.35-12.15 695.79-12.48L695.79-12.48L695.79-12.48Q696.23-12.80 696.83-13L696.83-13L696.83-13Q697.42-13.20 698.23-13.20L698.23-13.20L698.23-13.20Q700.25-13.20 701.48-11.91L701.48-11.91L701.48-11.91Q702.70-10.63 702.70-8.28L702.70-8.28L702.70 0L700.70 0L700.70-7.93L700.70-7.93Q700.70-9.70 699.92-10.56L699.92-10.56L699.92-10.56Q699.15-11.43 697.65-11.43L697.65-11.43L697.65-11.43Q697.05-11.43 696.48-11.28L696.48-11.28L696.48-11.28Q695.90-11.13 695.45-10.83L695.45-10.83L695.45-10.83Q695-10.53 694.73-10.05L694.73-10.05L694.73-10.05Q694.45-9.58 694.45-8.95L694.45-8.95L694.45 0ZM733.15 0L728.13 0L728.13 0Q726.65 0 725.96-0.83L725.96-0.83L725.96-0.83Q725.27-1.65 725.27-2.95L725.27-2.95L725.27-11.20L720.98-11.20L720.98-12.90L724.17-12.90L724.17-12.90Q724.83-12.90 725.09-13.16L725.09-13.16L725.09-13.16Q725.35-13.43 725.35-14.08L725.35-14.08L725.35-17.45L727.27-17.45L727.27-12.90L733.15-12.90L733.15-11.20L727.27-11.20L727.27-1.70L733.15-1.70L733.15 0ZM737.45 0L737.45-18.50L739.45-18.50L739.45-10.80L739.55-10.80L739.55-10.80Q739.75-11.28 740.05-11.71L740.05-11.71L740.05-11.71Q740.35-12.15 740.79-12.48L740.79-12.48L740.79-12.48Q741.23-12.80 741.83-13L741.83-13L741.83-13Q742.42-13.20 743.23-13.20L743.23-13.20L743.23-13.20Q745.25-13.20 746.48-11.91L746.48-11.91L746.48-11.91Q747.70-10.63 747.70-8.28L747.70-8.28L747.70 0L745.70 0L745.70-7.93L745.70-7.93Q745.70-9.70 744.92-10.56L744.92-10.56L744.92-10.56Q744.15-11.43 742.65-11.43L742.65-11.43L742.65-11.43Q742.05-11.43 741.48-11.28L741.48-11.28L741.48-11.28Q740.90-11.13 740.45-10.83L740.45-10.83L740.45-10.83Q740-10.53 739.73-10.05L739.73-10.05L739.73-10.05Q739.45-9.58 739.45-8.95L739.45-8.95L739.45 0L737.45 0ZM757.73 0.30L757.73 0.30L757.73 0.30Q756.33 0.30 755.21-0.18L755.21-0.18L755.21-0.18Q754.10-0.65 753.31-1.54L753.31-1.54L753.31-1.54Q752.52-2.43 752.10-3.66L752.10-3.66L752.10-3.66Q751.67-4.90 751.67-6.43L751.67-6.43L751.67-6.43Q751.67-7.98 752.11-9.22L752.11-9.22L752.11-9.22Q752.55-10.48 753.33-11.36L753.33-11.36L753.33-11.36Q754.10-12.25 755.19-12.73L755.19-12.73L755.19-12.73Q756.27-13.20 757.60-13.20L757.60-13.20L757.60-13.20Q758.90-13.20 759.96-12.73L759.96-12.73L759.96-12.73Q761.02-12.25 761.77-11.41L761.77-11.41L761.77-11.41Q762.52-10.58 762.92-9.43L762.92-9.43L762.92-9.43Q763.33-8.28 763.33-6.90L763.33-6.90L763.33-5.95L753.77-5.95L753.77-5.35L753.77-5.35Q753.77-4.50 754.05-3.78L754.05-3.78L754.05-3.78Q754.33-3.05 754.84-2.53L754.84-2.53L754.84-2.53Q755.35-2 756.09-1.71L756.09-1.71L756.09-1.71Q756.83-1.43 757.73-1.43L757.73-1.43L757.73-1.43Q759.02-1.43 759.98-2.02L759.98-2.02L759.98-2.02Q760.92-2.63 761.42-3.68L761.42-3.68L762.90-2.68L762.90-2.68Q762.33-1.38 760.99-0.54L760.99-0.54L760.99-0.54Q759.65 0.30 757.73 0.30ZM757.60-11.55L757.60-11.55L757.60-11.55Q756.77-11.55 756.08-11.25L756.08-11.25L756.08-11.25Q755.38-10.95 754.86-10.43L754.86-10.43L754.86-10.43Q754.35-9.90 754.06-9.19L754.06-9.19L754.06-9.19Q753.77-8.47 753.77-7.63L753.77-7.63L753.77-7.45L761.17-7.45L761.17-7.73L761.17-7.73Q761.17-8.58 760.91-9.28L760.91-9.28L760.91-9.28Q760.65-9.98 760.19-10.49L760.19-10.49L760.19-10.49Q759.73-11 759.06-11.28L759.06-11.28L759.06-11.28Q758.40-11.55 757.60-11.55ZM794.02 1.48L794.02 1.48L794.02 1.48Q794.02 3.43 792.40 4.36L792.40 4.36L792.40 4.36Q790.77 5.30 787.52 5.30L787.52 5.30L787.52 5.30Q784.40 5.30 783.04 4.48L783.04 4.48L783.04 4.48Q781.67 3.65 781.67 2.10L781.67 2.10L781.67 2.10Q781.67 1.05 782.23 0.48L782.23 0.48L782.23 0.48Q782.77-0.10 783.77-0.38L783.77-0.38L783.77-0.68L783.77-0.68Q783.23-0.95 782.92-1.38L782.92-1.38L782.92-1.38Q782.63-1.80 782.63-2.45L782.63-2.45L782.63-2.45Q782.63-3.45 783.29-3.95L783.29-3.95L783.29-3.95Q783.95-4.45 784.95-4.70L784.95-4.70L784.95-4.80L784.95-4.80Q783.75-5.33 783.09-6.35L783.09-6.35L783.09-6.35Q782.42-7.38 782.42-8.75L782.42-8.75L782.42-8.75Q782.42-9.73 782.77-10.55L782.77-10.55L782.77-10.55Q783.13-11.38 783.79-11.96L783.79-11.96L783.79-11.96Q784.45-12.55 785.38-12.88L785.38-12.88L785.38-12.88Q786.30-13.20 787.42-13.20L787.42-13.20L787.42-13.20Q788.88-13.20 789.98-12.68L789.98-12.68L789.98-12.90L789.98-12.90Q789.98-13.65 790.33-14.15L790.33-14.15L790.33-14.15Q790.67-14.65 791.52-14.65L791.52-14.65L793.90-14.65L793.90-12.90L791-12.90L791-12.03L791-12.03Q791.70-11.43 792.08-10.60L792.08-10.60L792.08-10.60Q792.45-9.78 792.45-8.75L792.45-8.75L792.45-8.75Q792.45-7.78 792.09-6.95L792.09-6.95L792.09-6.95Q791.73-6.13 791.08-5.54L791.08-5.54L791.08-5.54Q790.42-4.95 789.49-4.63L789.49-4.63L789.49-4.63Q788.55-4.30 787.42-4.30L787.42-4.30L787.42-4.30Q787.10-4.30 786.80-4.33L786.80-4.33L786.80-4.33Q786.50-4.35 786.20-4.40L786.20-4.40L786.20-4.40Q785.90-4.35 785.58-4.24L785.58-4.24L785.58-4.24Q785.25-4.13 784.98-3.94L784.98-3.94L784.98-3.94Q784.70-3.75 784.52-3.50L784.52-3.50L784.52-3.50Q784.35-3.25 784.35-2.93L784.35-2.93L784.35-2.93Q784.35-2.35 784.92-2.16L784.92-2.16L784.92-2.16Q785.50-1.98 786.42-1.98L786.42-1.98L789.27-1.98L789.27-1.98Q791.77-1.98 792.90-1.04L792.90-1.04L792.90-1.04Q794.02-0.10 794.02 1.48ZM792.15 1.58L792.15 1.58L792.15 1.58Q792.15 0.80 791.52 0.34L791.52 0.34L791.52 0.34Q790.90-0.13 789.35-0.13L789.35-0.13L784.88-0.13L784.88-0.13Q783.58 0.40 783.58 1.63L783.58 1.63L783.58 1.63Q783.58 2.48 784.25 3.09L784.25 3.09L784.25 3.09Q784.92 3.70 786.50 3.70L786.50 3.70L788.45 3.70L788.45 3.70Q790.20 3.70 791.17 3.16L791.17 3.16L791.17 3.16Q792.15 2.63 792.15 1.58ZM787.42-5.85L787.42-5.85L787.42-5.85Q788.92-5.85 789.64-6.55L789.64-6.55L789.64-6.55Q790.35-7.25 790.35-8.40L790.35-8.40L790.35-9.13L790.35-9.13Q790.35-10.28 789.64-10.96L789.64-10.96L789.64-10.96Q788.92-11.65 787.42-11.65L787.42-11.65L787.42-11.65Q785.92-11.65 785.23-10.96L785.23-10.96L785.23-10.96Q784.52-10.28 784.52-9.13L784.52-9.13L784.52-8.40L784.52-8.40Q784.52-7.25 785.23-6.55L785.23-6.55L785.23-6.55Q785.92-5.85 787.42-5.85ZM796.92 0L796.92-1.70L800.70-1.70L800.70-11.20L796.92-11.20L796.92-12.90L802.70-12.90L802.70-9.65L802.83-9.65L802.83-9.65Q803.23-11.18 804.34-12.04L804.34-12.04L804.34-12.04Q805.45-12.90 807.17-12.90L807.17-12.90L808.98-12.90L808.98-10.90L806.55-10.90L806.55-10.90Q804.83-10.90 803.76-9.90L803.76-9.90L803.76-9.90Q802.70-8.90 802.70-7.28L802.70-7.28L802.70-1.70L807.70-1.70L807.70 0L796.92 0ZM817.50 0.30L817.50 0.30L817.50 0.30Q816.15 0.30 815.06-0.18L815.06-0.18L815.06-0.18Q813.98-0.65 813.21-1.54L813.21-1.54L813.21-1.54Q812.45-2.43 812.05-3.66L812.05-3.66L812.05-3.66Q811.65-4.90 811.65-6.45L811.65-6.45L811.65-6.45Q811.65-7.98 812.05-9.22L812.05-9.22L812.05-9.22Q812.45-10.48 813.21-11.36L813.21-11.36L813.21-11.36Q813.98-12.25 815.06-12.73L815.06-12.73L815.06-12.73Q816.15-13.20 817.50-13.20L817.50-13.20L817.50-13.20Q818.85-13.20 819.94-12.73L819.94-12.73L819.94-12.73Q821.02-12.25 821.79-11.36L821.79-11.36L821.79-11.36Q822.55-10.48 822.95-9.22L822.95-9.22L822.95-9.22Q823.35-7.98 823.35-6.45L823.35-6.45L823.35-6.45Q823.35-4.90 822.95-3.66L822.95-3.66L822.95-3.66Q822.55-2.43 821.79-1.54L821.79-1.54L821.79-1.54Q821.02-0.65 819.94-0.18L819.94-0.18L819.94-0.18Q818.85 0.30 817.50 0.30ZM817.50-1.43L817.50-1.43L817.50-1.43Q819.17-1.43 820.20-2.43L820.20-2.43L820.20-2.43Q821.23-3.43 821.23-5.53L821.23-5.53L821.23-7.38L821.23-7.38Q821.23-9.47 820.20-10.48L820.20-10.48L820.20-10.48Q819.17-11.48 817.50-11.48L817.50-11.48L817.50-11.48Q815.83-11.48 814.80-10.48L814.80-10.48L814.80-10.48Q813.77-9.47 813.77-7.38L813.77-7.38L813.77-5.53L813.77-5.53Q813.77-3.43 814.80-2.43L814.80-2.43L814.80-2.43Q815.83-1.43 817.50-1.43ZM835.55 0L835.55-2.10L835.45-2.10L835.45-2.10Q835.25-1.63 834.95-1.19L834.95-1.19L834.95-1.19Q834.65-0.75 834.21-0.43L834.21-0.43L834.21-0.43Q833.77-0.10 833.17 0.10L833.17 0.10L833.17 0.10Q832.58 0.30 831.77 0.30L831.77 0.30L831.77 0.30Q829.75 0.30 828.52-0.99L828.52-0.99L828.52-0.99Q827.30-2.27 827.30-4.63L827.30-4.63L827.30-12.90L829.30-12.90L829.30-4.98L829.30-4.98Q829.30-3.20 830.08-2.34L830.08-2.34L830.08-2.34Q830.85-1.48 832.35-1.48L832.35-1.48L832.35-1.48Q832.95-1.48 833.52-1.63L833.52-1.63L833.52-1.63Q834.10-1.78 834.55-2.08L834.55-2.08L834.55-2.08Q835-2.38 835.27-2.84L835.27-2.84L835.27-2.84Q835.55-3.30 835.55-3.95L835.55-3.95L835.55-12.90L837.55-12.90L837.55 0L835.55 0ZM844.45 0L842.45 0L842.45-12.90L844.45-12.90L844.45-10.80L844.55-10.80L844.55-10.80Q844.75-11.28 845.05-11.71L845.05-11.71L845.05-11.71Q845.35-12.15 845.79-12.48L845.79-12.48L845.79-12.48Q846.23-12.80 846.83-13L846.83-13L846.83-13Q847.42-13.20 848.23-13.20L848.23-13.20L848.23-13.20Q850.25-13.20 851.48-11.91L851.48-11.91L851.48-11.91Q852.70-10.63 852.70-8.28L852.70-8.28L852.70 0L850.70 0L850.70-7.93L850.70-7.93Q850.70-9.70 849.92-10.56L849.92-10.56L849.92-10.56Q849.15-11.43 847.65-11.43L847.65-11.43L847.65-11.43Q847.05-11.43 846.48-11.28L846.48-11.28L846.48-11.28Q845.90-11.13 845.45-10.83L845.45-10.83L845.45-10.83Q845-10.53 844.73-10.05L844.73-10.05L844.73-10.05Q844.45-9.58 844.45-8.95L844.45-8.95L844.45 0ZM865.63 0L865.63-2.10L865.52-2.10L865.52-2.10Q864.27 0.30 861.55 0.30L861.55 0.30L861.55 0.30Q859.17 0.30 857.84-1.48L857.84-1.48L857.84-1.48Q856.50-3.25 856.50-6.45L856.50-6.45L856.50-6.45Q856.50-9.65 857.84-11.43L857.84-11.43L857.84-11.43Q859.17-13.20 861.55-13.20L861.55-13.20L861.55-13.20Q864.27-13.20 865.52-10.80L865.52-10.80L865.63-10.80L865.63-18.50L867.63-18.50L867.63 0L865.63 0ZM862.33-1.48L862.33-1.48L862.33-1.48Q863-1.48 863.60-1.65L863.60-1.65L863.60-1.65Q864.20-1.83 864.65-2.16L864.65-2.16L864.65-2.16Q865.10-2.50 865.36-2.99L865.36-2.99L865.36-2.99Q865.63-3.48 865.63-4.13L865.63-4.13L865.63-8.78L865.63-8.78Q865.63-9.43 865.36-9.91L865.36-9.91L865.36-9.91Q865.10-10.40 864.65-10.74L864.65-10.74L864.65-10.74Q864.20-11.08 863.60-11.25L863.60-11.25L863.60-11.25Q863-11.43 862.33-11.43L862.33-11.43L862.33-11.43Q860.58-11.43 859.61-10.36L859.61-10.36L859.61-10.36Q858.65-9.30 858.65-7.55L858.65-7.55L858.65-5.35L858.65-5.35Q858.65-3.60 859.61-2.54L859.61-2.54L859.61-2.54Q860.58-1.48 862.33-1.48ZM877.50 0.23L877.50 0.23L877.50 0.23Q876.48 0.23 876.06-0.20L876.06-0.20L876.06-0.20Q875.65-0.63 875.65-1.28L875.65-1.28L875.65-1.73L875.65-1.73Q875.65-2.38 876.06-2.80L876.06-2.80L876.06-2.80Q876.48-3.23 877.50-3.23L877.50-3.23L877.50-3.23Q878.52-3.23 878.94-2.80L878.94-2.80L878.94-2.80Q879.35-2.38 879.35-1.73L879.35-1.73L879.35-1.28L879.35-1.28Q879.35-0.63 878.94-0.20L878.94-0.20L878.94-0.20Q878.52 0.23 877.50 0.23Z" fill="#e7e7e7"></path></g></g><style>text {
  font-size: 64px;
  font-family: Arial Black;
  dominant-baseline: central;
  text-anchor: middle;
}</style></svg>