<svg width="1019.4875px" height="64.4px" xmlns="http://www.w3.org/2000/svg" viewBox="-259.74375 42.8 1019.4875 64.4" style="background: rgba(89, 104, 134, 0);" preserveAspectRatio="xMidYMid"><defs><filter id="editing-hover" x="-100%" y="-100%" width="300%" height="300%"><feFlood flood-color="rgba(1.9607843137254888%,16.862745098039188%,29.01960784313726%,0)" result="flood"></feFlood><feComposite operator="in" in2="SourceAlpha" in="flood" result="shadow"></feComposite><feOffset dx="-4" dy="-4" in="SourceGraphic" result="offset-1"></feOffset><feOffset dx="4" dy="4" in="shadow" result="offset-2"></feOffset><feMerge><feMergeNode in="offset-2"></feMergeNode><feMergeNode in="offset-1"></feMergeNode></feMerge></filter></defs><g filter="url(#editing-hover)"><g transform="translate(-117.73999309539795, 87.00000190734863)"><path d="M2.38 5L2.38-12.90L4.38-12.90L4.38-10.80L4.48-10.80L4.48-10.80Q5.73-13.20 8.45-13.20L8.45-13.20L8.45-13.20Q10.83-13.20 12.16-11.43L12.16-11.43L12.16-11.43Q13.50-9.65 13.50-6.45L13.50-6.45L13.50-6.45Q13.50-3.25 12.16-1.48L12.16-1.48L12.16-1.48Q10.83 0.30 8.45 0.30L8.45 0.30L8.45 0.30Q5.73 0.30 4.48-2.10L4.48-2.10L4.38-2.10L4.38 5L2.38 5ZM7.68-1.48L7.68-1.48L7.68-1.48Q9.43-1.48 10.39-2.54L10.39-2.54L10.39-2.54Q11.35-3.60 11.35-5.35L11.35-5.35L11.35-7.55L11.35-7.55Q11.35-9.30 10.39-10.36L10.39-10.36L10.39-10.36Q9.43-11.43 7.68-11.43L7.68-11.43L7.68-11.43Q7-11.43 6.40-11.25L6.40-11.25L6.40-11.25Q5.80-11.08 5.35-10.74L5.35-10.74L5.35-10.74Q4.90-10.40 4.64-9.91L4.64-9.91L4.64-9.91Q4.38-9.43 4.38-8.78L4.38-8.78L4.38-4.13L4.38-4.13Q4.38-3.48 4.64-2.99L4.64-2.99L4.64-2.99Q4.90-2.50 5.35-2.16L5.35-2.16L5.35-2.16Q5.80-1.83 6.40-1.65L6.40-1.65L6.40-1.65Q7-1.48 7.68-1.48ZM22.73 0.30L22.73 0.30L22.73 0.30Q21.32 0.30 20.21-0.18L20.21-0.18L20.21-0.18Q19.10-0.65 18.31-1.54L18.31-1.54L18.31-1.54Q17.52-2.43 17.10-3.66L17.10-3.66L17.10-3.66Q16.68-4.90 16.68-6.43L16.68-6.43L16.68-6.43Q16.68-7.98 17.11-9.22L17.11-9.22L17.11-9.22Q17.55-10.48 18.32-11.36L18.32-11.36L18.32-11.36Q19.10-12.25 20.19-12.73L20.19-12.73L20.19-12.73Q21.27-13.20 22.60-13.20L22.60-13.20L22.60-13.20Q23.90-13.20 24.96-12.73L24.96-12.73L24.96-12.73Q26.02-12.25 26.77-11.41L26.77-11.41L26.77-11.41Q27.52-10.58 27.93-9.43L27.93-9.43L27.93-9.43Q28.33-8.28 28.33-6.90L28.33-6.90L28.33-5.95L18.77-5.95L18.77-5.35L18.77-5.35Q18.77-4.50 19.05-3.78L19.05-3.78L19.05-3.78Q19.32-3.05 19.84-2.53L19.84-2.53L19.84-2.53Q20.35-2 21.09-1.71L21.09-1.71L21.09-1.71Q21.82-1.43 22.73-1.43L22.73-1.43L22.73-1.43Q24.02-1.43 24.98-2.02L24.98-2.02L24.98-2.02Q25.93-2.63 26.43-3.68L26.43-3.68L27.90-2.68L27.90-2.68Q27.33-1.38 25.99-0.54L25.99-0.54L25.99-0.54Q24.65 0.30 22.73 0.30ZM22.60-11.55L22.60-11.55L22.60-11.55Q21.77-11.55 21.07-11.25L21.07-11.25L21.07-11.25Q20.38-10.95 19.86-10.43L19.86-10.43L19.86-10.43Q19.35-9.90 19.06-9.19L19.06-9.19L19.06-9.19Q18.77-8.47 18.77-7.63L18.77-7.63L18.77-7.45L26.18-7.45L26.18-7.73L26.18-7.73Q26.18-8.58 25.91-9.28L25.91-9.28L25.91-9.28Q25.65-9.98 25.19-10.49L25.19-10.49L25.19-10.49Q24.73-11 24.06-11.28L24.06-11.28L24.06-11.28Q23.40-11.55 22.60-11.55ZM37.65 0.30L37.65 0.30L37.65 0.30Q35.63 0.30 34.16-0.39L34.16-0.39L34.16-0.39Q32.70-1.07 31.68-2.23L31.68-2.23L33.02-3.40L33.02-3.40Q33.95-2.43 35.05-1.90L35.05-1.90L35.05-1.90Q36.15-1.38 37.70-1.38L37.70-1.38L37.70-1.38Q39.20-1.38 40.16-1.91L40.16-1.91L40.16-1.91Q41.13-2.45 41.13-3.60L41.13-3.60L41.13-3.60Q41.13-4.10 40.94-4.44L40.94-4.44L40.94-4.44Q40.75-4.78 40.42-4.98L40.42-4.98L40.42-4.98Q40.10-5.18 39.70-5.29L39.70-5.29L39.70-5.29Q39.30-5.40 38.85-5.48L38.85-5.48L36.83-5.78L36.83-5.78Q36.15-5.88 35.36-6.05L35.36-6.05L35.36-6.05Q34.58-6.23 33.92-6.61L33.92-6.61L33.92-6.61Q33.27-7 32.84-7.65L32.84-7.65L32.84-7.65Q32.40-8.30 32.40-9.35L32.40-9.35L32.40-9.35Q32.40-10.33 32.79-11.04L32.79-11.04L32.79-11.04Q33.17-11.75 33.88-12.24L33.88-12.24L33.88-12.24Q34.58-12.73 35.52-12.96L35.52-12.96L35.52-12.96Q36.48-13.20 37.60-13.20L37.60-13.20L37.60-13.20Q39.35-13.20 40.64-12.65L40.64-12.65L40.64-12.65Q41.92-12.10 42.85-11.13L42.85-11.13L41.55-9.90L41.55-9.90Q41.33-10.18 40.99-10.46L40.99-10.46L40.99-10.46Q40.65-10.75 40.16-10.99L40.16-10.99L40.16-10.99Q39.67-11.23 39.02-11.38L39.02-11.38L39.02-11.38Q38.38-11.53 37.52-11.53L37.52-11.53L37.52-11.53Q36-11.53 35.19-11L35.19-11L35.19-11Q34.38-10.48 34.38-9.47L34.38-9.47L34.38-9.47Q34.38-8.97 34.56-8.64L34.56-8.64L34.56-8.64Q34.75-8.30 35.08-8.10L35.08-8.10L35.08-8.10Q35.40-7.90 35.81-7.79L35.81-7.79L35.81-7.79Q36.23-7.68 36.65-7.60L36.65-7.60L38.67-7.30L38.67-7.30Q39.38-7.20 40.15-7.03L40.15-7.03L40.15-7.03Q40.92-6.85 41.58-6.46L41.58-6.46L41.58-6.46Q42.23-6.08 42.66-5.43L42.66-5.43L42.66-5.43Q43.10-4.78 43.10-3.73L43.10-3.73L43.10-3.73Q43.10-1.80 41.61-0.75L41.61-0.75L41.61-0.75Q40.13 0.30 37.65 0.30ZM52.65 0.30L52.65 0.30L52.65 0.30Q50.63 0.30 49.16-0.39L49.16-0.39L49.16-0.39Q47.70-1.07 46.67-2.23L46.67-2.23L48.02-3.40L48.02-3.40Q48.95-2.43 50.05-1.90L50.05-1.90L50.05-1.90Q51.15-1.38 52.70-1.38L52.70-1.38L52.70-1.38Q54.20-1.38 55.16-1.91L55.16-1.91L55.16-1.91Q56.13-2.45 56.13-3.60L56.13-3.60L56.13-3.60Q56.13-4.10 55.94-4.44L55.94-4.44L55.94-4.44Q55.75-4.78 55.42-4.98L55.42-4.98L55.42-4.98Q55.10-5.18 54.70-5.29L54.70-5.29L54.70-5.29Q54.30-5.40 53.85-5.48L53.85-5.48L51.83-5.78L51.83-5.78Q51.15-5.88 50.36-6.05L50.36-6.05L50.36-6.05Q49.58-6.23 48.92-6.61L48.92-6.61L48.92-6.61Q48.27-7 47.84-7.65L47.84-7.65L47.84-7.65Q47.40-8.30 47.40-9.35L47.40-9.35L47.40-9.35Q47.40-10.33 47.79-11.04L47.79-11.04L47.79-11.04Q48.17-11.75 48.88-12.24L48.88-12.24L48.88-12.24Q49.58-12.73 50.52-12.96L50.52-12.96L50.52-12.96Q51.48-13.20 52.60-13.20L52.60-13.20L52.60-13.20Q54.35-13.20 55.64-12.65L55.64-12.65L55.64-12.65Q56.92-12.10 57.85-11.13L57.85-11.13L56.55-9.90L56.55-9.90Q56.33-10.18 55.99-10.46L55.99-10.46L55.99-10.46Q55.65-10.75 55.16-10.99L55.16-10.99L55.16-10.99Q54.67-11.23 54.02-11.38L54.02-11.38L54.02-11.38Q53.38-11.53 52.52-11.53L52.52-11.53L52.52-11.53Q51-11.53 50.19-11L50.19-11L50.19-11Q49.38-10.48 49.38-9.47L49.38-9.47L49.38-9.47Q49.38-8.97 49.56-8.64L49.56-8.64L49.56-8.64Q49.75-8.30 50.08-8.10L50.08-8.10L50.08-8.10Q50.40-7.90 50.81-7.79L50.81-7.79L50.81-7.79Q51.23-7.68 51.65-7.60L51.65-7.60L53.67-7.30L53.67-7.30Q54.38-7.20 55.15-7.03L55.15-7.03L55.15-7.03Q55.92-6.85 56.58-6.46L56.58-6.46L56.58-6.46Q57.23-6.08 57.66-5.43L57.66-5.43L57.66-5.43Q58.10-4.78 58.10-3.73L58.10-3.73L58.10-3.73Q58.10-1.80 56.61-0.75L56.61-0.75L56.61-0.75Q55.13 0.30 52.65 0.30ZM68.30-15.75L68.30-15.75L68.30-15.75Q67.42-15.75 67.08-16.11L67.08-16.11L67.08-16.11Q66.72-16.48 66.72-17.03L66.72-17.03L66.72-17.43L66.72-17.43Q66.72-17.98 67.08-18.34L67.08-18.34L67.08-18.34Q67.42-18.70 68.30-18.70L68.30-18.70L68.30-18.70Q69.17-18.70 69.53-18.34L69.53-18.34L69.53-18.34Q69.88-17.98 69.88-17.43L69.88-17.43L69.88-17.03L69.88-17.03Q69.88-16.48 69.53-16.11L69.53-16.11L69.53-16.11Q69.17-15.75 68.30-15.75ZM62.65 0L62.65-1.70L67.30-1.70L67.30-11.20L62.65-11.20L62.65-12.90L69.30-12.90L69.30-1.70L73.65-1.70L73.65 0L62.65 0ZM78.20 0L76.35 0L76.35-12.90L78.20-12.90L78.20-11.40L78.30-11.40L78.30-11.40Q78.60-12.15 79.15-12.68L79.15-12.68L79.15-12.68Q79.70-13.20 80.78-13.20L80.78-13.20L80.78-13.20Q81.90-13.20 82.45-12.64L82.45-12.64L82.45-12.64Q83-12.08 83.13-11.18L83.13-11.18L83.20-11.18L83.20-11.18Q83.55-12.05 84.20-12.63L84.20-12.63L84.20-12.63Q84.85-13.20 86-13.20L86-13.20L86-13.20Q87.58-13.20 88.11-12.10L88.11-12.10L88.11-12.10Q88.65-11 88.65-8.95L88.65-8.95L88.65 0L86.80 0L86.80-8.63L86.80-8.63Q86.80-10.28 86.46-10.91L86.46-10.91L86.46-10.91Q86.13-11.55 85.22-11.55L85.22-11.55L85.22-11.55Q84.42-11.55 83.92-11.04L83.92-11.04L83.92-11.04Q83.42-10.53 83.42-9.47L83.42-9.47L83.42 0L81.58 0L81.58-8.63L81.58-8.63Q81.58-10.28 81.24-10.91L81.24-10.91L81.24-10.91Q80.90-11.55 80.03-11.55L80.03-11.55L80.03-11.55Q79.22-11.55 78.71-11.04L78.71-11.04L78.71-11.04Q78.20-10.53 78.20-9.47L78.20-9.47L78.20 0ZM98.30-15.75L98.30-15.75L98.30-15.75Q97.42-15.75 97.08-16.11L97.08-16.11L97.08-16.11Q96.72-16.48 96.72-17.03L96.72-17.03L96.72-17.43L96.72-17.43Q96.72-17.98 97.08-18.34L97.08-18.34L97.08-18.34Q97.42-18.70 98.30-18.70L98.30-18.70L98.30-18.70Q99.17-18.70 99.53-18.34L99.53-18.34L99.53-18.34Q99.88-17.98 99.88-17.43L99.88-17.43L99.88-17.03L99.88-17.03Q99.88-16.48 99.53-16.11L99.53-16.11L99.53-16.11Q99.17-15.75 98.30-15.75ZM92.65 0L92.65-1.70L97.30-1.70L97.30-11.20L92.65-11.20L92.65-12.90L99.30-12.90L99.30-1.70L103.65-1.70L103.65 0L92.65 0ZM112.65 0.30L112.65 0.30L112.65 0.30Q110.63 0.30 109.16-0.39L109.16-0.39L109.16-0.39Q107.70-1.07 106.67-2.23L106.67-2.23L108.03-3.40L108.03-3.40Q108.95-2.43 110.05-1.90L110.05-1.90L110.05-1.90Q111.15-1.38 112.70-1.38L112.70-1.38L112.70-1.38Q114.20-1.38 115.16-1.91L115.16-1.91L115.16-1.91Q116.13-2.45 116.13-3.60L116.13-3.60L116.13-3.60Q116.13-4.10 115.94-4.44L115.94-4.44L115.94-4.44Q115.75-4.78 115.42-4.98L115.42-4.98L115.42-4.98Q115.10-5.18 114.70-5.29L114.70-5.29L114.70-5.29Q114.30-5.40 113.85-5.48L113.85-5.48L111.83-5.78L111.83-5.78Q111.15-5.88 110.36-6.05L110.36-6.05L110.36-6.05Q109.58-6.23 108.92-6.61L108.92-6.61L108.92-6.61Q108.28-7 107.84-7.65L107.84-7.65L107.84-7.65Q107.40-8.30 107.40-9.35L107.40-9.35L107.40-9.35Q107.40-10.33 107.79-11.04L107.79-11.04L107.79-11.04Q108.17-11.75 108.88-12.24L108.88-12.24L108.88-12.24Q109.58-12.73 110.53-12.96L110.53-12.96L110.53-12.96Q111.47-13.20 112.60-13.20L112.60-13.20L112.60-13.20Q114.35-13.20 115.64-12.65L115.64-12.65L115.64-12.65Q116.92-12.10 117.85-11.13L117.85-11.13L116.55-9.90L116.55-9.90Q116.33-10.18 115.99-10.46L115.99-10.46L115.99-10.46Q115.65-10.75 115.16-10.99L115.16-10.99L115.16-10.99Q114.67-11.23 114.03-11.38L114.03-11.38L114.03-11.38Q113.38-11.53 112.53-11.53L112.53-11.53L112.53-11.53Q111-11.53 110.19-11L110.19-11L110.19-11Q109.38-10.48 109.38-9.47L109.38-9.47L109.38-9.47Q109.38-8.97 109.56-8.64L109.56-8.64L109.56-8.64Q109.75-8.30 110.08-8.10L110.08-8.10L110.08-8.10Q110.40-7.90 110.81-7.79L110.81-7.79L110.81-7.79Q111.22-7.68 111.65-7.60L111.65-7.60L113.67-7.30L113.67-7.30Q114.38-7.20 115.15-7.03L115.15-7.03L115.15-7.03Q115.92-6.85 116.58-6.46L116.58-6.46L116.58-6.46Q117.22-6.08 117.66-5.43L117.66-5.43L117.66-5.43Q118.10-4.78 118.10-3.73L118.10-3.73L118.10-3.73Q118.10-1.80 116.61-0.75L116.61-0.75L116.61-0.75Q115.13 0.30 112.65 0.30ZM133.15 0L128.13 0L128.13 0Q126.65 0 125.96-0.83L125.96-0.83L125.96-0.83Q125.28-1.65 125.28-2.95L125.28-2.95L125.28-11.20L120.97-11.20L120.97-12.90L124.17-12.90L124.17-12.90Q124.83-12.90 125.09-13.16L125.09-13.16L125.09-13.16Q125.35-13.43 125.35-14.08L125.35-14.08L125.35-17.45L127.28-17.45L127.28-12.90L133.15-12.90L133.15-11.20L127.28-11.20L127.28-1.70L133.15-1.70L133.15 0ZM142.65 0.30L142.65 0.30L142.65 0.30Q140.63 0.30 139.16-0.39L139.16-0.39L139.16-0.39Q137.70-1.07 136.68-2.23L136.68-2.23L138.03-3.40L138.03-3.40Q138.95-2.43 140.05-1.90L140.05-1.90L140.05-1.90Q141.15-1.38 142.70-1.38L142.70-1.38L142.70-1.38Q144.20-1.38 145.16-1.91L145.16-1.91L145.16-1.91Q146.13-2.45 146.13-3.60L146.13-3.60L146.13-3.60Q146.13-4.10 145.94-4.44L145.94-4.44L145.94-4.44Q145.75-4.78 145.43-4.98L145.43-4.98L145.43-4.98Q145.10-5.18 144.70-5.29L144.70-5.29L144.70-5.29Q144.30-5.40 143.85-5.48L143.85-5.48L141.82-5.78L141.82-5.78Q141.15-5.88 140.36-6.05L140.36-6.05L140.36-6.05Q139.57-6.23 138.93-6.61L138.93-6.61L138.93-6.61Q138.28-7 137.84-7.65L137.84-7.65L137.84-7.65Q137.40-8.30 137.40-9.35L137.40-9.35L137.40-9.35Q137.40-10.33 137.79-11.04L137.79-11.04L137.79-11.04Q138.18-11.75 138.88-12.24L138.88-12.24L138.88-12.24Q139.57-12.73 140.53-12.96L140.53-12.96L140.53-12.96Q141.47-13.20 142.60-13.20L142.60-13.20L142.60-13.20Q144.35-13.20 145.64-12.65L145.64-12.65L145.64-12.65Q146.93-12.10 147.85-11.13L147.85-11.13L146.55-9.90L146.55-9.90Q146.32-10.18 145.99-10.46L145.99-10.46L145.99-10.46Q145.65-10.75 145.16-10.99L145.16-10.99L145.16-10.99Q144.68-11.23 144.03-11.38L144.03-11.38L144.03-11.38Q143.38-11.53 142.53-11.53L142.53-11.53L142.53-11.53Q141-11.53 140.19-11L140.19-11L140.19-11Q139.38-10.48 139.38-9.47L139.38-9.47L139.38-9.47Q139.38-8.97 139.56-8.64L139.56-8.64L139.56-8.64Q139.75-8.30 140.07-8.10L140.07-8.10L140.07-8.10Q140.40-7.90 140.81-7.79L140.81-7.79L140.81-7.79Q141.22-7.68 141.65-7.60L141.65-7.60L143.68-7.30L143.68-7.30Q144.38-7.20 145.15-7.03L145.15-7.03L145.15-7.03Q145.93-6.85 146.57-6.46L146.57-6.46L146.57-6.46Q147.22-6.08 147.66-5.43L147.66-5.43L147.66-5.43Q148.10-4.78 148.10-3.73L148.10-3.73L148.10-3.73Q148.10-1.80 146.61-0.75L146.61-0.75L146.61-0.75Q145.13 0.30 142.65 0.30ZM172.65 0.30L172.65 0.30L172.65 0.30Q170.63 0.30 169.16-0.39L169.16-0.39L169.16-0.39Q167.70-1.07 166.68-2.23L166.68-2.23L168.03-3.40L168.03-3.40Q168.95-2.43 170.05-1.90L170.05-1.90L170.05-1.90Q171.15-1.38 172.70-1.38L172.70-1.38L172.70-1.38Q174.20-1.38 175.16-1.91L175.16-1.91L175.16-1.91Q176.13-2.45 176.13-3.60L176.13-3.60L176.13-3.60Q176.13-4.10 175.94-4.44L175.94-4.44L175.94-4.44Q175.75-4.78 175.43-4.98L175.43-4.98L175.43-4.98Q175.10-5.18 174.70-5.29L174.70-5.29L174.70-5.29Q174.30-5.40 173.85-5.48L173.85-5.48L171.82-5.78L171.82-5.78Q171.15-5.88 170.36-6.05L170.36-6.05L170.36-6.05Q169.57-6.23 168.93-6.61L168.93-6.61L168.93-6.61Q168.28-7 167.84-7.65L167.84-7.65L167.84-7.65Q167.40-8.30 167.40-9.35L167.40-9.35L167.40-9.35Q167.40-10.33 167.79-11.04L167.79-11.04L167.79-11.04Q168.18-11.75 168.88-12.24L168.88-12.24L168.88-12.24Q169.57-12.73 170.53-12.96L170.53-12.96L170.53-12.96Q171.47-13.20 172.60-13.20L172.60-13.20L172.60-13.20Q174.35-13.20 175.64-12.65L175.64-12.65L175.64-12.65Q176.93-12.10 177.85-11.13L177.85-11.13L176.55-9.90L176.55-9.90Q176.32-10.18 175.99-10.46L175.99-10.46L175.99-10.46Q175.65-10.75 175.16-10.99L175.16-10.99L175.16-10.99Q174.68-11.23 174.03-11.38L174.03-11.38L174.03-11.38Q173.38-11.53 172.53-11.53L172.53-11.53L172.53-11.53Q171-11.53 170.19-11L170.19-11L170.19-11Q169.38-10.48 169.38-9.47L169.38-9.47L169.38-9.47Q169.38-8.97 169.56-8.64L169.56-8.64L169.56-8.64Q169.75-8.30 170.07-8.10L170.07-8.10L170.07-8.10Q170.40-7.90 170.81-7.79L170.81-7.79L170.81-7.79Q171.22-7.68 171.65-7.60L171.65-7.60L173.68-7.30L173.68-7.30Q174.38-7.20 175.15-7.03L175.15-7.03L175.15-7.03Q175.93-6.85 176.57-6.46L176.57-6.46L176.57-6.46Q177.22-6.08 177.66-5.43L177.66-5.43L177.66-5.43Q178.10-4.78 178.10-3.73L178.10-3.73L178.10-3.73Q178.10-1.80 176.61-0.75L176.61-0.75L176.61-0.75Q175.13 0.30 172.65 0.30ZM187.50 0.30L187.50 0.30L187.50 0.30Q186.15 0.30 185.06-0.18L185.06-0.18L185.06-0.18Q183.97-0.65 183.21-1.54L183.21-1.54L183.21-1.54Q182.45-2.43 182.05-3.66L182.05-3.66L182.05-3.66Q181.65-4.90 181.65-6.45L181.65-6.45L181.65-6.45Q181.65-7.98 182.05-9.22L182.05-9.22L182.05-9.22Q182.45-10.48 183.21-11.36L183.21-11.36L183.21-11.36Q183.97-12.25 185.06-12.73L185.06-12.73L185.06-12.73Q186.15-13.20 187.50-13.20L187.50-13.20L187.50-13.20Q188.85-13.20 189.94-12.73L189.94-12.73L189.94-12.73Q191.03-12.25 191.79-11.36L191.79-11.36L191.79-11.36Q192.55-10.48 192.95-9.22L192.95-9.22L192.95-9.22Q193.35-7.98 193.35-6.45L193.35-6.45L193.35-6.45Q193.35-4.90 192.95-3.66L192.95-3.66L192.95-3.66Q192.55-2.43 191.79-1.54L191.79-1.54L191.79-1.54Q191.03-0.65 189.94-0.18L189.94-0.18L189.94-0.18Q188.85 0.30 187.50 0.30ZM187.50-1.43L187.50-1.43L187.50-1.43Q189.18-1.43 190.20-2.43L190.20-2.43L190.20-2.43Q191.22-3.43 191.22-5.53L191.22-5.53L191.22-7.38L191.22-7.38Q191.22-9.47 190.20-10.48L190.20-10.48L190.20-10.48Q189.18-11.48 187.50-11.48L187.50-11.48L187.50-11.48Q185.82-11.48 184.80-10.48L184.80-10.48L184.80-10.48Q183.78-9.47 183.78-7.38L183.78-7.38L183.78-5.53L183.78-5.53Q183.78-3.43 184.80-2.43L184.80-2.43L184.80-2.43Q185.82-1.43 187.50-1.43ZM205.55 0L205.55-2.10L205.45-2.10L205.45-2.10Q205.25-1.63 204.95-1.19L204.95-1.19L204.95-1.19Q204.65-0.75 204.21-0.43L204.21-0.43L204.21-0.43Q203.78-0.10 203.18 0.10L203.18 0.10L203.18 0.10Q202.57 0.30 201.78 0.30L201.78 0.30L201.78 0.30Q199.75 0.30 198.53-0.99L198.53-0.99L198.53-0.99Q197.30-2.27 197.30-4.63L197.30-4.63L197.30-12.90L199.30-12.90L199.30-4.98L199.30-4.98Q199.30-3.20 200.07-2.34L200.07-2.34L200.07-2.34Q200.85-1.48 202.35-1.48L202.35-1.48L202.35-1.48Q202.95-1.48 203.53-1.63L203.53-1.63L203.53-1.63Q204.10-1.78 204.55-2.08L204.55-2.08L204.55-2.08Q205-2.38 205.28-2.84L205.28-2.84L205.28-2.84Q205.55-3.30 205.55-3.95L205.55-3.95L205.55-12.90L207.55-12.90L207.55 0L205.55 0ZM214.45 0L212.45 0L212.45-12.90L214.45-12.90L214.45-10.80L214.55-10.80L214.55-10.80Q214.75-11.28 215.05-11.71L215.05-11.71L215.05-11.71Q215.35-12.15 215.79-12.48L215.79-12.48L215.79-12.48Q216.22-12.80 216.82-13L216.82-13L216.82-13Q217.43-13.20 218.22-13.20L218.22-13.20L218.22-13.20Q220.25-13.20 221.47-11.91L221.47-11.91L221.47-11.91Q222.70-10.63 222.70-8.28L222.70-8.28L222.70 0L220.70 0L220.70-7.93L220.70-7.93Q220.70-9.70 219.93-10.56L219.93-10.56L219.93-10.56Q219.15-11.43 217.65-11.43L217.65-11.43L217.65-11.43Q217.05-11.43 216.47-11.28L216.47-11.28L216.47-11.28Q215.90-11.13 215.45-10.83L215.45-10.83L215.45-10.83Q215-10.53 214.72-10.05L214.72-10.05L214.72-10.05Q214.45-9.58 214.45-8.95L214.45-8.95L214.45 0ZM235.63 0L235.63-2.10L235.53-2.10L235.53-2.10Q234.28 0.30 231.55 0.30L231.55 0.30L231.55 0.30Q229.18 0.30 227.84-1.48L227.84-1.48L227.84-1.48Q226.50-3.25 226.50-6.45L226.50-6.45L226.50-6.45Q226.50-9.65 227.84-11.43L227.84-11.43L227.84-11.43Q229.18-13.20 231.55-13.20L231.55-13.20L231.55-13.20Q234.28-13.20 235.53-10.80L235.53-10.80L235.63-10.80L235.63-18.50L237.63-18.50L237.63 0L235.63 0ZM232.32-1.48L232.32-1.48L232.32-1.48Q233-1.48 233.60-1.65L233.60-1.65L233.60-1.65Q234.20-1.83 234.65-2.16L234.65-2.16L234.65-2.16Q235.10-2.50 235.36-2.99L235.36-2.99L235.36-2.99Q235.63-3.48 235.63-4.13L235.63-4.13L235.63-8.78L235.63-8.78Q235.63-9.43 235.36-9.91L235.36-9.91L235.36-9.91Q235.10-10.40 234.65-10.74L234.65-10.74L234.65-10.74Q234.20-11.08 233.60-11.25L233.60-11.25L233.60-11.25Q233-11.43 232.32-11.43L232.32-11.43L232.32-11.43Q230.57-11.43 229.61-10.36L229.61-10.36L229.61-10.36Q228.65-9.30 228.65-7.55L228.65-7.55L228.65-5.35L228.65-5.35Q228.65-3.60 229.61-2.54L229.61-2.54L229.61-2.54Q230.57-1.48 232.32-1.48ZM262.65 0.30L262.65 0.30L262.65 0.30Q260.63 0.30 259.16-0.39L259.16-0.39L259.16-0.39Q257.70-1.07 256.68-2.23L256.68-2.23L258.02-3.40L258.02-3.40Q258.95-2.43 260.05-1.90L260.05-1.90L260.05-1.90Q261.15-1.38 262.70-1.38L262.70-1.38L262.70-1.38Q264.20-1.38 265.16-1.91L265.16-1.91L265.16-1.91Q266.13-2.45 266.13-3.60L266.13-3.60L266.13-3.60Q266.13-4.10 265.94-4.44L265.94-4.44L265.94-4.44Q265.75-4.78 265.43-4.98L265.43-4.98L265.43-4.98Q265.10-5.18 264.70-5.29L264.70-5.29L264.70-5.29Q264.30-5.40 263.85-5.48L263.85-5.48L261.82-5.78L261.82-5.78Q261.15-5.88 260.36-6.05L260.36-6.05L260.36-6.05Q259.57-6.23 258.93-6.61L258.93-6.61L258.93-6.61Q258.27-7 257.84-7.65L257.84-7.65L257.84-7.65Q257.40-8.30 257.40-9.35L257.40-9.35L257.40-9.35Q257.40-10.33 257.79-11.04L257.79-11.04L257.79-11.04Q258.18-11.75 258.88-12.24L258.88-12.24L258.88-12.24Q259.57-12.73 260.52-12.96L260.52-12.96L260.52-12.96Q261.48-13.20 262.60-13.20L262.60-13.20L262.60-13.20Q264.35-13.20 265.64-12.65L265.64-12.65L265.64-12.65Q266.93-12.10 267.85-11.13L267.85-11.13L266.55-9.90L266.55-9.90Q266.32-10.18 265.99-10.46L265.99-10.46L265.99-10.46Q265.65-10.75 265.16-10.99L265.16-10.99L265.16-10.99Q264.68-11.23 264.02-11.38L264.02-11.38L264.02-11.38Q263.38-11.53 262.52-11.53L262.52-11.53L262.52-11.53Q261-11.53 260.19-11L260.19-11L260.19-11Q259.38-10.48 259.38-9.47L259.38-9.47L259.38-9.47Q259.38-8.97 259.56-8.64L259.56-8.64L259.56-8.64Q259.75-8.30 260.07-8.10L260.07-8.10L260.07-8.10Q260.40-7.90 260.81-7.79L260.81-7.79L260.81-7.79Q261.23-7.68 261.65-7.60L261.65-7.60L263.68-7.30L263.68-7.30Q264.38-7.20 265.15-7.03L265.15-7.03L265.15-7.03Q265.93-6.85 266.57-6.46L266.57-6.46L266.57-6.46Q267.23-6.08 267.66-5.43L267.66-5.43L267.66-5.43Q268.10-4.78 268.10-3.73L268.10-3.73L268.10-3.73Q268.10-1.80 266.61-0.75L266.61-0.75L266.61-0.75Q265.13 0.30 262.65 0.30ZM273.20 0L271.35 0L271.35-12.90L273.20-12.90L273.20-11.40L273.30-11.40L273.30-11.40Q273.60-12.15 274.15-12.68L274.15-12.68L274.15-12.68Q274.70-13.20 275.77-13.20L275.77-13.20L275.77-13.20Q276.90-13.20 277.45-12.64L277.45-12.64L277.45-12.64Q278-12.08 278.13-11.18L278.13-11.18L278.20-11.18L278.20-11.18Q278.55-12.05 279.20-12.63L279.20-12.63L279.20-12.63Q279.85-13.20 281-13.20L281-13.20L281-13.20Q282.57-13.20 283.11-12.10L283.11-12.10L283.11-12.10Q283.65-11 283.65-8.95L283.65-8.95L283.65 0L281.80 0L281.80-8.63L281.80-8.63Q281.80-10.28 281.46-10.91L281.46-10.91L281.46-10.91Q281.13-11.55 280.23-11.55L280.23-11.55L280.23-11.55Q279.43-11.55 278.93-11.04L278.93-11.04L278.93-11.04Q278.43-10.53 278.43-9.47L278.43-9.47L278.43 0L276.57 0L276.57-8.63L276.57-8.63Q276.57-10.28 276.24-10.91L276.24-10.91L276.24-10.91Q275.90-11.55 275.02-11.55L275.02-11.55L275.02-11.55Q274.23-11.55 273.71-11.04L273.71-11.04L273.71-11.04Q273.20-10.53 273.20-9.47L273.20-9.47L273.20 0ZM298.75 0L297.38 0L297.38 0Q296.20 0 295.70-0.60L295.70-0.60L295.70-0.60Q295.20-1.20 295.07-2.10L295.07-2.10L294.95-2.10L294.95-2.10Q294.52-0.98 293.59-0.34L293.59-0.34L293.59-0.34Q292.65 0.30 291.07 0.30L291.07 0.30L291.07 0.30Q289.05 0.30 287.85-0.75L287.85-0.75L287.85-0.75Q286.65-1.80 286.65-3.63L286.65-3.63L286.65-3.63Q286.65-5.43 287.96-6.40L287.96-6.40L287.96-6.40Q289.27-7.38 292.20-7.38L292.20-7.38L294.95-7.38L294.95-8.65L294.95-8.65Q294.95-10.08 294.15-10.79L294.15-10.79L294.15-10.79Q293.35-11.50 291.88-11.50L291.88-11.50L291.88-11.50Q290.57-11.50 289.75-10.99L289.75-10.99L289.75-10.99Q288.93-10.48 288.43-9.60L288.43-9.60L287.07-10.60L287.07-10.60Q287.32-11.10 287.75-11.58L287.75-11.58L287.75-11.58Q288.18-12.05 288.80-12.41L288.80-12.41L288.80-12.41Q289.43-12.78 290.23-12.99L290.23-12.99L290.23-12.99Q291.02-13.20 292-13.20L292-13.20L292-13.20Q294.27-13.20 295.61-12.05L295.61-12.05L295.61-12.05Q296.95-10.90 296.95-8.85L296.95-8.85L296.95-1.75L298.75-1.75L298.75 0ZM291.43-1.38L291.43-1.38L291.43-1.38Q292.20-1.38 292.84-1.56L292.84-1.56L292.84-1.56Q293.48-1.75 293.95-2.06L293.95-2.06L293.95-2.06Q294.43-2.38 294.69-2.81L294.69-2.81L294.69-2.81Q294.95-3.25 294.95-3.75L294.95-3.75L294.95-5.88L292.20-5.88L292.20-5.88Q290.40-5.88 289.57-5.38L289.57-5.38L289.57-5.38Q288.75-4.88 288.75-3.93L288.75-3.93L288.75-3.40L288.75-3.40Q288.75-2.40 289.46-1.89L289.46-1.89L289.46-1.89Q290.18-1.38 291.43-1.38ZM301.93 0L301.93-1.70L305.70-1.70L305.70-11.20L301.93-11.20L301.93-12.90L307.70-12.90L307.70-9.65L307.82-9.65L307.82-9.65Q308.23-11.18 309.34-12.04L309.34-12.04L309.34-12.04Q310.45-12.90 312.18-12.90L312.18-12.90L313.98-12.90L313.98-10.90L311.55-10.90L311.55-10.90Q309.82-10.90 308.76-9.90L308.76-9.90L308.76-9.90Q307.70-8.90 307.70-7.28L307.70-7.28L307.70-1.70L312.70-1.70L312.70 0L301.93 0ZM328.15 0L323.13 0L323.13 0Q321.65 0 320.96-0.83L320.96-0.83L320.96-0.83Q320.27-1.65 320.27-2.95L320.27-2.95L320.27-11.20L315.98-11.20L315.98-12.90L319.18-12.90L319.18-12.90Q319.82-12.90 320.09-13.16L320.09-13.16L320.09-13.16Q320.35-13.43 320.35-14.08L320.35-14.08L320.35-17.45L322.27-17.45L322.27-12.90L328.15-12.90L328.15-11.20L322.27-11.20L322.27-1.70L328.15-1.70L328.15 0ZM335.10 3.53L336.43-3.40L339.65-3.40L336.77 3.53L335.10 3.53ZM367.50 0.30L367.50 0.30L367.50 0.30Q366.15 0.30 365.06-0.18L365.06-0.18L365.06-0.18Q363.98-0.65 363.21-1.54L363.21-1.54L363.21-1.54Q362.45-2.43 362.05-3.66L362.05-3.66L362.05-3.66Q361.65-4.90 361.65-6.45L361.65-6.45L361.65-6.45Q361.65-7.98 362.05-9.22L362.05-9.22L362.05-9.22Q362.45-10.48 363.21-11.36L363.21-11.36L363.21-11.36Q363.98-12.25 365.06-12.73L365.06-12.73L365.06-12.73Q366.15-13.20 367.50-13.20L367.50-13.20L367.50-13.20Q368.85-13.20 369.94-12.73L369.94-12.73L369.94-12.73Q371.02-12.25 371.79-11.36L371.79-11.36L371.79-11.36Q372.55-10.48 372.95-9.22L372.95-9.22L372.95-9.22Q373.35-7.98 373.35-6.45L373.35-6.45L373.35-6.45Q373.35-4.90 372.95-3.66L372.95-3.66L372.95-3.66Q372.55-2.43 371.79-1.54L371.79-1.54L371.79-1.54Q371.02-0.65 369.94-0.18L369.94-0.18L369.94-0.18Q368.85 0.30 367.50 0.30ZM367.50-1.43L367.50-1.43L367.50-1.43Q369.18-1.43 370.20-2.43L370.20-2.43L370.20-2.43Q371.23-3.43 371.23-5.53L371.23-5.53L371.23-7.38L371.23-7.38Q371.23-9.47 370.20-10.48L370.20-10.48L370.20-10.48Q369.18-11.48 367.50-11.48L367.50-11.48L367.50-11.48Q365.82-11.48 364.80-10.48L364.80-10.48L364.80-10.48Q363.77-9.47 363.77-7.38L363.77-7.38L363.77-5.53L363.77-5.53Q363.77-3.43 364.80-2.43L364.80-2.43L364.80-2.43Q365.82-1.43 367.50-1.43ZM377.38 5L377.38-12.90L379.38-12.90L379.38-10.80L379.48-10.80L379.48-10.80Q380.73-13.20 383.45-13.20L383.45-13.20L383.45-13.20Q385.82-13.20 387.16-11.43L387.16-11.43L387.16-11.43Q388.50-9.65 388.50-6.45L388.50-6.45L388.50-6.45Q388.50-3.25 387.16-1.48L387.16-1.48L387.16-1.48Q385.82 0.30 383.45 0.30L383.45 0.30L383.45 0.30Q380.73 0.30 379.48-2.10L379.48-2.10L379.38-2.10L379.38 5L377.38 5ZM382.68-1.48L382.68-1.48L382.68-1.48Q384.43-1.48 385.39-2.54L385.39-2.54L385.39-2.54Q386.35-3.60 386.35-5.35L386.35-5.35L386.35-7.55L386.35-7.55Q386.35-9.30 385.39-10.36L385.39-10.36L385.39-10.36Q384.43-11.43 382.68-11.43L382.68-11.43L382.68-11.43Q382-11.43 381.40-11.25L381.40-11.25L381.40-11.25Q380.80-11.08 380.35-10.74L380.35-10.74L380.35-10.74Q379.90-10.40 379.64-9.91L379.64-9.91L379.64-9.91Q379.38-9.43 379.38-8.78L379.38-8.78L379.38-4.13L379.38-4.13Q379.38-3.48 379.64-2.99L379.64-2.99L379.64-2.99Q379.90-2.50 380.35-2.16L380.35-2.16L380.35-2.16Q380.80-1.83 381.40-1.65L381.40-1.65L381.40-1.65Q382-1.48 382.68-1.48ZM403.15 0L398.13 0L398.13 0Q396.65 0 395.96-0.83L395.96-0.83L395.96-0.83Q395.27-1.65 395.27-2.95L395.27-2.95L395.27-11.20L390.98-11.20L390.98-12.90L394.18-12.90L394.18-12.90Q394.82-12.90 395.09-13.16L395.09-13.16L395.09-13.16Q395.35-13.43 395.35-14.08L395.35-14.08L395.35-17.45L397.27-17.45L397.27-12.90L403.15-12.90L403.15-11.20L397.27-11.20L397.27-1.70L403.15-1.70L403.15 0ZM413.30-15.75L413.30-15.75L413.30-15.75Q412.43-15.75 412.07-16.11L412.07-16.11L412.07-16.11Q411.73-16.48 411.73-17.03L411.73-17.03L411.73-17.43L411.73-17.43Q411.73-17.98 412.07-18.34L412.07-18.34L412.07-18.34Q412.43-18.70 413.30-18.70L413.30-18.70L413.30-18.70Q414.18-18.70 414.52-18.34L414.52-18.34L414.52-18.34Q414.88-17.98 414.88-17.43L414.88-17.43L414.88-17.03L414.88-17.03Q414.88-16.48 414.52-16.11L414.52-16.11L414.52-16.11Q414.18-15.75 413.30-15.75ZM407.65 0L407.65-1.70L412.30-1.70L412.30-11.20L407.65-11.20L407.65-12.90L414.30-12.90L414.30-1.70L418.65-1.70L418.65 0L407.65 0ZM423.20 0L421.35 0L421.35-12.90L423.20-12.90L423.20-11.40L423.30-11.40L423.30-11.40Q423.60-12.15 424.15-12.68L424.15-12.68L424.15-12.68Q424.70-13.20 425.77-13.20L425.77-13.20L425.77-13.20Q426.90-13.20 427.45-12.64L427.45-12.64L427.45-12.64Q428-12.08 428.13-11.18L428.13-11.18L428.20-11.18L428.20-11.18Q428.55-12.05 429.20-12.63L429.20-12.63L429.20-12.63Q429.85-13.20 431-13.20L431-13.20L431-13.20Q432.57-13.20 433.11-12.10L433.11-12.10L433.11-12.10Q433.65-11 433.65-8.95L433.65-8.95L433.65 0L431.80 0L431.80-8.63L431.80-8.63Q431.80-10.28 431.46-10.91L431.46-10.91L431.46-10.91Q431.13-11.55 430.23-11.55L430.23-11.55L430.23-11.55Q429.43-11.55 428.93-11.04L428.93-11.04L428.93-11.04Q428.43-10.53 428.43-9.47L428.43-9.47L428.43 0L426.57 0L426.57-8.63L426.57-8.63Q426.57-10.28 426.24-10.91L426.24-10.91L426.24-10.91Q425.90-11.55 425.02-11.55L425.02-11.55L425.02-11.55Q424.23-11.55 423.71-11.04L423.71-11.04L423.71-11.04Q423.20-10.53 423.20-9.47L423.20-9.47L423.20 0ZM443.30-15.75L443.30-15.75L443.30-15.75Q442.43-15.75 442.07-16.11L442.07-16.11L442.07-16.11Q441.73-16.48 441.73-17.03L441.73-17.03L441.73-17.43L441.73-17.43Q441.73-17.98 442.07-18.34L442.07-18.34L442.07-18.34Q442.43-18.70 443.30-18.70L443.30-18.70L443.30-18.70Q444.18-18.70 444.52-18.34L444.52-18.34L444.52-18.34Q444.88-17.98 444.88-17.43L444.88-17.43L444.88-17.03L444.88-17.03Q444.88-16.48 444.52-16.11L444.52-16.11L444.52-16.11Q444.18-15.75 443.30-15.75ZM437.65 0L437.65-1.70L442.30-1.70L442.30-11.20L437.65-11.20L437.65-12.90L444.30-12.90L444.30-1.70L448.65-1.70L448.65 0L437.65 0ZM457.65 0.30L457.65 0.30L457.65 0.30Q455.63 0.30 454.16-0.39L454.16-0.39L454.16-0.39Q452.70-1.07 451.68-2.23L451.68-2.23L453.02-3.40L453.02-3.40Q453.95-2.43 455.05-1.90L455.05-1.90L455.05-1.90Q456.15-1.38 457.70-1.38L457.70-1.38L457.70-1.38Q459.20-1.38 460.16-1.91L460.16-1.91L460.16-1.91Q461.13-2.45 461.13-3.60L461.13-3.60L461.13-3.60Q461.13-4.10 460.94-4.44L460.94-4.44L460.94-4.44Q460.75-4.78 460.43-4.98L460.43-4.98L460.43-4.98Q460.10-5.18 459.70-5.29L459.70-5.29L459.70-5.29Q459.30-5.40 458.85-5.48L458.85-5.48L456.82-5.78L456.82-5.78Q456.15-5.88 455.36-6.05L455.36-6.05L455.36-6.05Q454.57-6.23 453.93-6.61L453.93-6.61L453.93-6.61Q453.27-7 452.84-7.65L452.84-7.65L452.84-7.65Q452.40-8.30 452.40-9.35L452.40-9.35L452.40-9.35Q452.40-10.33 452.79-11.04L452.79-11.04L452.79-11.04Q453.18-11.75 453.88-12.24L453.88-12.24L453.88-12.24Q454.57-12.73 455.52-12.96L455.52-12.96L455.52-12.96Q456.48-13.20 457.60-13.20L457.60-13.20L457.60-13.20Q459.35-13.20 460.64-12.65L460.64-12.65L460.64-12.65Q461.93-12.10 462.85-11.13L462.85-11.13L461.55-9.90L461.55-9.90Q461.32-10.18 460.99-10.46L460.99-10.46L460.99-10.46Q460.65-10.75 460.16-10.99L460.16-10.99L460.16-10.99Q459.68-11.23 459.02-11.38L459.02-11.38L459.02-11.38Q458.38-11.53 457.52-11.53L457.52-11.53L457.52-11.53Q456-11.53 455.19-11L455.19-11L455.19-11Q454.38-10.48 454.38-9.47L454.38-9.47L454.38-9.47Q454.38-8.97 454.56-8.64L454.56-8.64L454.56-8.64Q454.75-8.30 455.07-8.10L455.07-8.10L455.07-8.10Q455.40-7.90 455.81-7.79L455.81-7.79L455.81-7.79Q456.23-7.68 456.65-7.60L456.65-7.60L458.68-7.30L458.68-7.30Q459.38-7.20 460.15-7.03L460.15-7.03L460.15-7.03Q460.93-6.85 461.57-6.46L461.57-6.46L461.57-6.46Q462.23-6.08 462.66-5.43L462.66-5.43L462.66-5.43Q463.10-4.78 463.10-3.73L463.10-3.73L463.10-3.73Q463.10-1.80 461.61-0.75L461.61-0.75L461.61-0.75Q460.13 0.30 457.65 0.30ZM478.15 0L473.13 0L473.13 0Q471.65 0 470.96-0.83L470.96-0.83L470.96-0.83Q470.27-1.65 470.27-2.95L470.27-2.95L470.27-11.20L465.98-11.20L465.98-12.90L469.18-12.90L469.18-12.90Q469.82-12.90 470.09-13.16L470.09-13.16L470.09-13.16Q470.35-13.43 470.35-14.08L470.35-14.08L470.35-17.45L472.27-17.45L472.27-12.90L478.15-12.90L478.15-11.20L472.27-11.20L472.27-1.70L478.15-1.70L478.15 0ZM487.65 0.30L487.65 0.30L487.65 0.30Q485.63 0.30 484.16-0.39L484.16-0.39L484.16-0.39Q482.70-1.07 481.68-2.23L481.68-2.23L483.02-3.40L483.02-3.40Q483.95-2.43 485.05-1.90L485.05-1.90L485.05-1.90Q486.15-1.38 487.70-1.38L487.70-1.38L487.70-1.38Q489.20-1.38 490.16-1.91L490.16-1.91L490.16-1.91Q491.13-2.45 491.13-3.60L491.13-3.60L491.13-3.60Q491.13-4.10 490.94-4.44L490.94-4.44L490.94-4.44Q490.75-4.78 490.43-4.98L490.43-4.98L490.43-4.98Q490.10-5.18 489.70-5.29L489.70-5.29L489.70-5.29Q489.30-5.40 488.85-5.48L488.85-5.48L486.82-5.78L486.82-5.78Q486.15-5.88 485.36-6.05L485.36-6.05L485.36-6.05Q484.57-6.23 483.93-6.61L483.93-6.61L483.93-6.61Q483.27-7 482.84-7.65L482.84-7.65L482.84-7.65Q482.40-8.30 482.40-9.35L482.40-9.35L482.40-9.35Q482.40-10.33 482.79-11.04L482.79-11.04L482.79-11.04Q483.18-11.75 483.88-12.24L483.88-12.24L483.88-12.24Q484.57-12.73 485.52-12.96L485.52-12.96L485.52-12.96Q486.48-13.20 487.60-13.20L487.60-13.20L487.60-13.20Q489.35-13.20 490.64-12.65L490.64-12.65L490.64-12.65Q491.93-12.10 492.85-11.13L492.85-11.13L491.55-9.90L491.55-9.90Q491.32-10.18 490.99-10.46L490.99-10.46L490.99-10.46Q490.65-10.75 490.16-10.99L490.16-10.99L490.16-10.99Q489.68-11.23 489.02-11.38L489.02-11.38L489.02-11.38Q488.38-11.53 487.52-11.53L487.52-11.53L487.52-11.53Q486-11.53 485.19-11L485.19-11L485.19-11Q484.38-10.48 484.38-9.47L484.38-9.47L484.38-9.47Q484.38-8.97 484.56-8.64L484.56-8.64L484.56-8.64Q484.75-8.30 485.07-8.10L485.07-8.10L485.07-8.10Q485.40-7.90 485.81-7.79L485.81-7.79L485.81-7.79Q486.23-7.68 486.65-7.60L486.65-7.60L488.68-7.30L488.68-7.30Q489.38-7.20 490.15-7.03L490.15-7.03L490.15-7.03Q490.93-6.85 491.57-6.46L491.57-6.46L491.57-6.46Q492.23-6.08 492.66-5.43L492.66-5.43L492.66-5.43Q493.10-4.78 493.10-3.73L493.10-3.73L493.10-3.73Q493.10-1.80 491.61-0.75L491.61-0.75L491.61-0.75Q490.13 0.30 487.65 0.30ZM520.63 0L520.63-2.10L520.52-2.10L520.52-2.10Q519.27 0.30 516.55 0.30L516.55 0.30L516.55 0.30Q514.17 0.30 512.84-1.48L512.84-1.48L512.84-1.48Q511.50-3.25 511.50-6.45L511.50-6.45L511.50-6.45Q511.50-9.65 512.84-11.43L512.84-11.43L512.84-11.43Q514.17-13.20 516.55-13.20L516.55-13.20L516.55-13.20Q519.27-13.20 520.52-10.80L520.52-10.80L520.63-10.80L520.63-18.50L522.63-18.50L522.63 0L520.63 0ZM517.33-1.48L517.33-1.48L517.33-1.48Q518-1.48 518.60-1.65L518.60-1.65L518.60-1.65Q519.20-1.83 519.65-2.16L519.65-2.16L519.65-2.16Q520.10-2.50 520.36-2.99L520.36-2.99L520.36-2.99Q520.63-3.48 520.63-4.13L520.63-4.13L520.63-8.78L520.63-8.78Q520.63-9.43 520.36-9.91L520.36-9.91L520.36-9.91Q520.10-10.40 519.65-10.74L519.65-10.74L519.65-10.74Q519.20-11.08 518.60-11.25L518.60-11.25L518.60-11.25Q518-11.43 517.33-11.43L517.33-11.43L517.33-11.43Q515.58-11.43 514.61-10.36L514.61-10.36L514.61-10.36Q513.65-9.30 513.65-7.55L513.65-7.55L513.65-5.35L513.65-5.35Q513.65-3.60 514.61-2.54L514.61-2.54L514.61-2.54Q515.58-1.48 517.33-1.48ZM532.50 0.30L532.50 0.30L532.50 0.30Q531.15 0.30 530.06-0.18L530.06-0.18L530.06-0.18Q528.98-0.65 528.21-1.54L528.21-1.54L528.21-1.54Q527.45-2.43 527.05-3.66L527.05-3.66L527.05-3.66Q526.65-4.90 526.65-6.45L526.65-6.45L526.65-6.45Q526.65-7.98 527.05-9.22L527.05-9.22L527.05-9.22Q527.45-10.48 528.21-11.36L528.21-11.36L528.21-11.36Q528.98-12.25 530.06-12.73L530.06-12.73L530.06-12.73Q531.15-13.20 532.50-13.20L532.50-13.20L532.50-13.20Q533.85-13.20 534.94-12.73L534.94-12.73L534.94-12.73Q536.02-12.25 536.79-11.36L536.79-11.36L536.79-11.36Q537.55-10.48 537.95-9.22L537.95-9.22L537.95-9.22Q538.35-7.98 538.35-6.45L538.35-6.45L538.35-6.45Q538.35-4.90 537.95-3.66L537.95-3.66L537.95-3.66Q537.55-2.43 536.79-1.54L536.79-1.54L536.79-1.54Q536.02-0.65 534.94-0.18L534.94-0.18L534.94-0.18Q533.85 0.30 532.50 0.30ZM532.50-1.43L532.50-1.43L532.50-1.43Q534.17-1.43 535.20-2.43L535.20-2.43L535.20-2.43Q536.23-3.43 536.23-5.53L536.23-5.53L536.23-7.38L536.23-7.38Q536.23-9.47 535.20-10.48L535.20-10.48L535.20-10.48Q534.17-11.48 532.50-11.48L532.50-11.48L532.50-11.48Q530.83-11.48 529.80-10.48L529.80-10.48L529.80-10.48Q528.77-9.47 528.77-7.38L528.77-7.38L528.77-5.53L528.77-5.53Q528.77-3.43 529.80-2.43L529.80-2.43L529.80-2.43Q530.83-1.43 532.50-1.43ZM569.02 1.48L569.02 1.48L569.02 1.48Q569.02 3.43 567.40 4.36L567.40 4.36L567.40 4.36Q565.77 5.30 562.52 5.30L562.52 5.30L562.52 5.30Q559.40 5.30 558.04 4.48L558.04 4.48L558.04 4.48Q556.67 3.65 556.67 2.10L556.67 2.10L556.67 2.10Q556.67 1.05 557.23 0.48L557.23 0.48L557.23 0.48Q557.77-0.10 558.77-0.38L558.77-0.38L558.77-0.68L558.77-0.68Q558.23-0.95 557.92-1.38L557.92-1.38L557.92-1.38Q557.63-1.80 557.63-2.45L557.63-2.45L557.63-2.45Q557.63-3.45 558.29-3.95L558.29-3.95L558.29-3.95Q558.95-4.45 559.95-4.70L559.95-4.70L559.95-4.80L559.95-4.80Q558.75-5.33 558.09-6.35L558.09-6.35L558.09-6.35Q557.42-7.38 557.42-8.75L557.42-8.75L557.42-8.75Q557.42-9.73 557.77-10.55L557.77-10.55L557.77-10.55Q558.13-11.38 558.79-11.96L558.79-11.96L558.79-11.96Q559.45-12.55 560.38-12.88L560.38-12.88L560.38-12.88Q561.30-13.20 562.42-13.20L562.42-13.20L562.42-13.20Q563.88-13.20 564.98-12.68L564.98-12.68L564.98-12.90L564.98-12.90Q564.98-13.65 565.33-14.15L565.33-14.15L565.33-14.15Q565.67-14.65 566.52-14.65L566.52-14.65L568.90-14.65L568.90-12.90L566-12.90L566-12.03L566-12.03Q566.70-11.43 567.08-10.60L567.08-10.60L567.08-10.60Q567.45-9.78 567.45-8.75L567.45-8.75L567.45-8.75Q567.45-7.78 567.09-6.95L567.09-6.95L567.09-6.95Q566.73-6.13 566.08-5.54L566.08-5.54L566.08-5.54Q565.42-4.95 564.49-4.63L564.49-4.63L564.49-4.63Q563.55-4.30 562.42-4.30L562.42-4.30L562.42-4.30Q562.10-4.30 561.80-4.33L561.80-4.33L561.80-4.33Q561.50-4.35 561.20-4.40L561.20-4.40L561.20-4.40Q560.90-4.35 560.58-4.24L560.58-4.24L560.58-4.24Q560.25-4.13 559.98-3.94L559.98-3.94L559.98-3.94Q559.70-3.75 559.52-3.50L559.52-3.50L559.52-3.50Q559.35-3.25 559.35-2.93L559.35-2.93L559.35-2.93Q559.35-2.35 559.92-2.16L559.92-2.16L559.92-2.16Q560.50-1.98 561.42-1.98L561.42-1.98L564.27-1.98L564.27-1.98Q566.77-1.98 567.90-1.04L567.90-1.04L567.90-1.04Q569.02-0.10 569.02 1.48ZM567.15 1.58L567.15 1.58L567.15 1.58Q567.15 0.80 566.52 0.34L566.52 0.34L566.52 0.34Q565.90-0.13 564.35-0.13L564.35-0.13L559.88-0.13L559.88-0.13Q558.58 0.40 558.58 1.63L558.58 1.63L558.58 1.63Q558.58 2.48 559.25 3.09L559.25 3.09L559.25 3.09Q559.92 3.70 561.50 3.70L561.50 3.70L563.45 3.70L563.45 3.70Q565.20 3.70 566.17 3.16L566.17 3.16L566.17 3.16Q567.15 2.63 567.15 1.58ZM562.42-5.85L562.42-5.85L562.42-5.85Q563.92-5.85 564.64-6.55L564.64-6.55L564.64-6.55Q565.35-7.25 565.35-8.40L565.35-8.40L565.35-9.13L565.35-9.13Q565.35-10.28 564.64-10.96L564.64-10.96L564.64-10.96Q563.92-11.65 562.42-11.65L562.42-11.65L562.42-11.65Q560.92-11.65 560.23-10.96L560.23-10.96L560.23-10.96Q559.52-10.28 559.52-9.13L559.52-9.13L559.52-8.40L559.52-8.40Q559.52-7.25 560.23-6.55L560.23-6.55L560.23-6.55Q560.92-5.85 562.42-5.85ZM571.92 0L571.92-1.70L575.70-1.70L575.70-11.20L571.92-11.20L571.92-12.90L577.70-12.90L577.70-9.65L577.83-9.65L577.83-9.65Q578.23-11.18 579.34-12.04L579.34-12.04L579.34-12.04Q580.45-12.90 582.17-12.90L582.17-12.90L583.98-12.90L583.98-10.90L581.55-10.90L581.55-10.90Q579.83-10.90 578.76-9.90L578.76-9.90L578.76-9.90Q577.70-8.90 577.70-7.28L577.70-7.28L577.70-1.70L582.70-1.70L582.70 0L571.92 0ZM592.73 0.30L592.73 0.30L592.73 0.30Q591.33 0.30 590.21-0.18L590.21-0.18L590.21-0.18Q589.10-0.65 588.31-1.54L588.31-1.54L588.31-1.54Q587.52-2.43 587.10-3.66L587.10-3.66L587.10-3.66Q586.67-4.90 586.67-6.43L586.67-6.43L586.67-6.43Q586.67-7.98 587.11-9.22L587.11-9.22L587.11-9.22Q587.55-10.48 588.33-11.36L588.33-11.36L588.33-11.36Q589.10-12.25 590.19-12.73L590.19-12.73L590.19-12.73Q591.27-13.20 592.60-13.20L592.60-13.20L592.60-13.20Q593.90-13.20 594.96-12.73L594.96-12.73L594.96-12.73Q596.02-12.25 596.77-11.41L596.77-11.41L596.77-11.41Q597.52-10.58 597.92-9.43L597.92-9.43L597.92-9.43Q598.33-8.28 598.33-6.90L598.33-6.90L598.33-5.95L588.77-5.95L588.77-5.35L588.77-5.35Q588.77-4.50 589.05-3.78L589.05-3.78L589.05-3.78Q589.33-3.05 589.84-2.53L589.84-2.53L589.84-2.53Q590.35-2 591.09-1.71L591.09-1.71L591.09-1.71Q591.83-1.43 592.73-1.43L592.73-1.43L592.73-1.43Q594.02-1.43 594.98-2.02L594.98-2.02L594.98-2.02Q595.92-2.63 596.42-3.68L596.42-3.68L597.90-2.68L597.90-2.68Q597.33-1.38 595.99-0.54L595.99-0.54L595.99-0.54Q594.65 0.30 592.73 0.30ZM592.60-11.55L592.60-11.55L592.60-11.55Q591.77-11.55 591.08-11.25L591.08-11.25L591.08-11.25Q590.38-10.95 589.86-10.43L589.86-10.43L589.86-10.43Q589.35-9.90 589.06-9.19L589.06-9.19L589.06-9.19Q588.77-8.47 588.77-7.63L588.77-7.63L588.77-7.45L596.17-7.45L596.17-7.73L596.17-7.73Q596.17-8.58 595.91-9.28L595.91-9.28L595.91-9.28Q595.65-9.98 595.19-10.49L595.19-10.49L595.19-10.49Q594.73-11 594.06-11.28L594.06-11.28L594.06-11.28Q593.40-11.55 592.60-11.55ZM613.75 0L612.38 0L612.38 0Q611.20 0 610.70-0.60L610.70-0.60L610.70-0.60Q610.20-1.20 610.08-2.10L610.08-2.10L609.95-2.10L609.95-2.10Q609.52-0.98 608.59-0.34L608.59-0.34L608.59-0.34Q607.65 0.30 606.08 0.30L606.08 0.30L606.08 0.30Q604.05 0.30 602.85-0.75L602.85-0.75L602.85-0.75Q601.65-1.80 601.65-3.63L601.65-3.63L601.65-3.63Q601.65-5.43 602.96-6.40L602.96-6.40L602.96-6.40Q604.27-7.38 607.20-7.38L607.20-7.38L609.95-7.38L609.95-8.65L609.95-8.65Q609.95-10.08 609.15-10.79L609.15-10.79L609.15-10.79Q608.35-11.50 606.88-11.50L606.88-11.50L606.88-11.50Q605.58-11.50 604.75-10.99L604.75-10.99L604.75-10.99Q603.92-10.48 603.42-9.60L603.42-9.60L602.08-10.60L602.08-10.60Q602.33-11.10 602.75-11.58L602.75-11.58L602.75-11.58Q603.17-12.05 603.80-12.41L603.80-12.41L603.80-12.41Q604.42-12.78 605.23-12.99L605.23-12.99L605.23-12.99Q606.02-13.20 607-13.20L607-13.20L607-13.20Q609.27-13.20 610.61-12.05L610.61-12.05L610.61-12.05Q611.95-10.90 611.95-8.85L611.95-8.85L611.95-1.75L613.75-1.75L613.75 0ZM606.42-1.38L606.42-1.38L606.42-1.38Q607.20-1.38 607.84-1.56L607.84-1.56L607.84-1.56Q608.48-1.75 608.95-2.06L608.95-2.06L608.95-2.06Q609.42-2.38 609.69-2.81L609.69-2.81L609.69-2.81Q609.95-3.25 609.95-3.75L609.95-3.75L609.95-5.88L607.20-5.88L607.20-5.88Q605.40-5.88 604.58-5.38L604.58-5.38L604.58-5.38Q603.75-4.88 603.75-3.93L603.75-3.93L603.75-3.40L603.75-3.40Q603.75-2.40 604.46-1.89L604.46-1.89L604.46-1.89Q605.17-1.38 606.42-1.38ZM628.15 0L623.13 0L623.13 0Q621.65 0 620.96-0.83L620.96-0.83L620.96-0.83Q620.27-1.65 620.27-2.95L620.27-2.95L620.27-11.20L615.98-11.20L615.98-12.90L619.17-12.90L619.17-12.90Q619.83-12.90 620.09-13.16L620.09-13.16L620.09-13.16Q620.35-13.43 620.35-14.08L620.35-14.08L620.35-17.45L622.27-17.45L622.27-12.90L628.15-12.90L628.15-11.20L622.27-11.20L622.27-1.70L628.15-1.70L628.15 0ZM658.15 0L653.13 0L653.13 0Q651.65 0 650.96-0.83L650.96-0.83L650.96-0.83Q650.27-1.65 650.27-2.95L650.27-2.95L650.27-11.20L645.98-11.20L645.98-12.90L649.17-12.90L649.17-12.90Q649.83-12.90 650.09-13.16L650.09-13.16L650.09-13.16Q650.35-13.43 650.35-14.08L650.35-14.08L650.35-17.45L652.27-17.45L652.27-12.90L658.15-12.90L658.15-11.20L652.27-11.20L652.27-1.70L658.15-1.70L658.15 0ZM662.45 0L662.45-18.50L664.45-18.50L664.45-10.80L664.55-10.80L664.55-10.80Q664.75-11.28 665.05-11.71L665.05-11.71L665.05-11.71Q665.35-12.15 665.79-12.48L665.79-12.48L665.79-12.48Q666.23-12.80 666.83-13L666.83-13L666.83-13Q667.42-13.20 668.23-13.20L668.23-13.20L668.23-13.20Q670.25-13.20 671.48-11.91L671.48-11.91L671.48-11.91Q672.70-10.63 672.70-8.28L672.70-8.28L672.70 0L670.70 0L670.70-7.93L670.70-7.93Q670.70-9.70 669.92-10.56L669.92-10.56L669.92-10.56Q669.15-11.43 667.65-11.43L667.65-11.43L667.65-11.43Q667.05-11.43 666.48-11.28L666.48-11.28L666.48-11.28Q665.90-11.13 665.45-10.83L665.45-10.83L665.45-10.83Q665-10.53 664.73-10.05L664.73-10.05L664.73-10.05Q664.45-9.58 664.45-8.95L664.45-8.95L664.45 0L662.45 0ZM683.30-15.75L683.30-15.75L683.30-15.75Q682.42-15.75 682.08-16.11L682.08-16.11L682.08-16.11Q681.73-16.48 681.73-17.03L681.73-17.03L681.73-17.43L681.73-17.43Q681.73-17.98 682.08-18.34L682.08-18.34L682.08-18.34Q682.42-18.70 683.30-18.70L683.30-18.70L683.30-18.70Q684.17-18.70 684.52-18.34L684.52-18.34L684.52-18.34Q684.88-17.98 684.88-17.43L684.88-17.43L684.88-17.03L684.88-17.03Q684.88-16.48 684.52-16.11L684.52-16.11L684.52-16.11Q684.17-15.75 683.30-15.75ZM677.65 0L677.65-1.70L682.30-1.70L682.30-11.20L677.65-11.20L677.65-12.90L684.30-12.90L684.30-1.70L688.65-1.70L688.65 0L677.65 0ZM694.45 0L692.45 0L692.45-12.90L694.45-12.90L694.45-10.80L694.55-10.80L694.55-10.80Q694.75-11.28 695.05-11.71L695.05-11.71L695.05-11.71Q695.35-12.15 695.79-12.48L695.79-12.48L695.79-12.48Q696.23-12.80 696.83-13L696.83-13L696.83-13Q697.42-13.20 698.23-13.20L698.23-13.20L698.23-13.20Q700.25-13.20 701.48-11.91L701.48-11.91L701.48-11.91Q702.70-10.63 702.70-8.28L702.70-8.28L702.70 0L700.70 0L700.70-7.93L700.70-7.93Q700.70-9.70 699.92-10.56L699.92-10.56L699.92-10.56Q699.15-11.43 697.65-11.43L697.65-11.43L697.65-11.43Q697.05-11.43 696.48-11.28L696.48-11.28L696.48-11.28Q695.90-11.13 695.45-10.83L695.45-10.83L695.45-10.83Q695-10.53 694.73-10.05L694.73-10.05L694.73-10.05Q694.45-9.58 694.45-8.95L694.45-8.95L694.45 0ZM719.02 1.48L719.02 1.48L719.02 1.48Q719.02 3.43 717.40 4.36L717.40 4.36L717.40 4.36Q715.77 5.30 712.52 5.30L712.52 5.30L712.52 5.30Q709.40 5.30 708.04 4.48L708.04 4.48L708.04 4.48Q706.67 3.65 706.67 2.10L706.67 2.10L706.67 2.10Q706.67 1.05 707.23 0.48L707.23 0.48L707.23 0.48Q707.77-0.10 708.77-0.38L708.77-0.38L708.77-0.68L708.77-0.68Q708.23-0.95 707.92-1.38L707.92-1.38L707.92-1.38Q707.63-1.80 707.63-2.45L707.63-2.45L707.63-2.45Q707.63-3.45 708.29-3.95L708.29-3.95L708.29-3.95Q708.95-4.45 709.95-4.70L709.95-4.70L709.95-4.80L709.95-4.80Q708.75-5.33 708.09-6.35L708.09-6.35L708.09-6.35Q707.42-7.38 707.42-8.75L707.42-8.75L707.42-8.75Q707.42-9.73 707.77-10.55L707.77-10.55L707.77-10.55Q708.13-11.38 708.79-11.96L708.79-11.96L708.79-11.96Q709.45-12.55 710.38-12.88L710.38-12.88L710.38-12.88Q711.30-13.20 712.42-13.20L712.42-13.20L712.42-13.20Q713.88-13.20 714.98-12.68L714.98-12.68L714.98-12.90L714.98-12.90Q714.98-13.65 715.33-14.15L715.33-14.15L715.33-14.15Q715.67-14.65 716.52-14.65L716.52-14.65L718.90-14.65L718.90-12.90L716-12.90L716-12.03L716-12.03Q716.70-11.43 717.08-10.60L717.08-10.60L717.08-10.60Q717.45-9.78 717.45-8.75L717.45-8.75L717.45-8.75Q717.45-7.78 717.09-6.95L717.09-6.95L717.09-6.95Q716.73-6.13 716.08-5.54L716.08-5.54L716.08-5.54Q715.42-4.95 714.49-4.63L714.49-4.63L714.49-4.63Q713.55-4.30 712.42-4.30L712.42-4.30L712.42-4.30Q712.10-4.30 711.80-4.33L711.80-4.33L711.80-4.33Q711.50-4.35 711.20-4.40L711.20-4.40L711.20-4.40Q710.90-4.35 710.58-4.24L710.58-4.24L710.58-4.24Q710.25-4.13 709.98-3.94L709.98-3.94L709.98-3.94Q709.70-3.75 709.52-3.50L709.52-3.50L709.52-3.50Q709.35-3.25 709.35-2.93L709.35-2.93L709.35-2.93Q709.35-2.35 709.92-2.16L709.92-2.16L709.92-2.16Q710.50-1.98 711.42-1.98L711.42-1.98L714.27-1.98L714.27-1.98Q716.77-1.98 717.90-1.04L717.90-1.04L717.90-1.04Q719.02-0.10 719.02 1.48ZM717.15 1.58L717.15 1.58L717.15 1.58Q717.15 0.80 716.52 0.34L716.52 0.34L716.52 0.34Q715.90-0.13 714.35-0.13L714.35-0.13L709.88-0.13L709.88-0.13Q708.58 0.40 708.58 1.63L708.58 1.63L708.58 1.63Q708.58 2.48 709.25 3.09L709.25 3.09L709.25 3.09Q709.92 3.70 711.50 3.70L711.50 3.70L713.45 3.70L713.45 3.70Q715.20 3.70 716.17 3.16L716.17 3.16L716.17 3.16Q717.15 2.63 717.15 1.58ZM712.42-5.85L712.42-5.85L712.42-5.85Q713.92-5.85 714.64-6.55L714.64-6.55L714.64-6.55Q715.35-7.25 715.35-8.40L715.35-8.40L715.35-9.13L715.35-9.13Q715.35-10.28 714.64-10.96L714.64-10.96L714.64-10.96Q713.92-11.65 712.42-11.65L712.42-11.65L712.42-11.65Q710.92-11.65 710.23-10.96L710.23-10.96L710.23-10.96Q709.52-10.28 709.52-9.13L709.52-9.13L709.52-8.40L709.52-8.40Q709.52-7.25 710.23-6.55L710.23-6.55L710.23-6.55Q710.92-5.85 712.42-5.85ZM727.65 0.30L727.65 0.30L727.65 0.30Q725.63 0.30 724.16-0.39L724.16-0.39L724.16-0.39Q722.70-1.07 721.67-2.23L721.67-2.23L723.02-3.40L723.02-3.40Q723.95-2.43 725.05-1.90L725.05-1.90L725.05-1.90Q726.15-1.38 727.70-1.38L727.70-1.38L727.70-1.38Q729.20-1.38 730.16-1.91L730.16-1.91L730.16-1.91Q731.13-2.45 731.13-3.60L731.13-3.60L731.13-3.60Q731.13-4.10 730.94-4.44L730.94-4.44L730.94-4.44Q730.75-4.78 730.42-4.98L730.42-4.98L730.42-4.98Q730.10-5.18 729.70-5.29L729.70-5.29L729.70-5.29Q729.30-5.40 728.85-5.48L728.85-5.48L726.83-5.78L726.83-5.78Q726.15-5.88 725.36-6.05L725.36-6.05L725.36-6.05Q724.58-6.23 723.92-6.61L723.92-6.61L723.92-6.61Q723.27-7 722.84-7.65L722.84-7.65L722.84-7.65Q722.40-8.30 722.40-9.35L722.40-9.35L722.40-9.35Q722.40-10.33 722.79-11.04L722.79-11.04L722.79-11.04Q723.17-11.75 723.88-12.24L723.88-12.24L723.88-12.24Q724.58-12.73 725.52-12.96L725.52-12.96L725.52-12.96Q726.48-13.20 727.60-13.20L727.60-13.20L727.60-13.20Q729.35-13.20 730.64-12.65L730.64-12.65L730.64-12.65Q731.92-12.10 732.85-11.13L732.85-11.13L731.55-9.90L731.55-9.90Q731.33-10.18 730.99-10.46L730.99-10.46L730.99-10.46Q730.65-10.75 730.16-10.99L730.16-10.99L730.16-10.99Q729.67-11.23 729.02-11.38L729.02-11.38L729.02-11.38Q728.38-11.53 727.52-11.53L727.52-11.53L727.52-11.53Q726-11.53 725.19-11L725.19-11L725.19-11Q724.38-10.48 724.38-9.47L724.38-9.47L724.38-9.47Q724.38-8.97 724.56-8.64L724.56-8.64L724.56-8.64Q724.75-8.30 725.08-8.10L725.08-8.10L725.08-8.10Q725.40-7.90 725.81-7.79L725.81-7.79L725.81-7.79Q726.23-7.68 726.65-7.60L726.65-7.60L728.67-7.30L728.67-7.30Q729.38-7.20 730.15-7.03L730.15-7.03L730.15-7.03Q730.92-6.85 731.58-6.46L731.58-6.46L731.58-6.46Q732.23-6.08 732.66-5.43L732.66-5.43L732.66-5.43Q733.10-4.78 733.10-3.73L733.10-3.73L733.10-3.73Q733.10-1.80 731.61-0.75L731.61-0.75L731.61-0.75Q730.13 0.30 727.65 0.30Z" fill="#e7e7e7"></path></g></g><style>text {
  font-size: 64px;
  font-family: Arial Black;
  dominant-baseline: central;
  text-anchor: middle;
}</style></svg>