<svg width="693.125px" height="64.4px" xmlns="http://www.w3.org/2000/svg" viewBox="-96.5625 42.8 693.125 64.4" style="background: rgba(89, 104, 134, 0);" preserveAspectRatio="xMidYMid"><defs><filter id="editing-hover" x="-100%" y="-100%" width="300%" height="300%"><feFlood flood-color="rgba(1.9607843137254888%,16.862745098039188%,29.01960784313726%,0)" result="flood"></feFlood><feComposite operator="in" in2="SourceAlpha" in="flood" result="shadow"></feComposite><feOffset dx="-4" dy="-4" in="SourceGraphic" result="offset-1"></feOffset><feOffset dx="4" dy="4" in="shadow" result="offset-2"></feOffset><feMerge><feMergeNode in="offset-2"></feMergeNode><feMergeNode in="offset-1"></feMergeNode></feMerge></filter></defs><g filter="url(#editing-hover)"><g transform="translate(2.584976315498352, 86.85000228881836)"><path d="M9.50-7.50L11.68-12.90L13.68-12.90L7.28 2.83L7.28 2.83Q7.05 3.38 6.78 3.79L6.78 3.79L6.78 3.79Q6.50 4.20 6.13 4.46L6.13 4.46L6.13 4.46Q5.75 4.73 5.23 4.86L5.23 4.86L5.23 4.86Q4.70 5 3.98 5L3.98 5L2.08 5L2.08 3.30L5.08 3.30L6.53-0.25L1.33-12.90L3.38-12.90L5.55-7.50L7.48-2.60L7.58-2.60L9.50-7.50ZM22.50 0.30L22.50 0.30L22.50 0.30Q21.15 0.30 20.06-0.18L20.06-0.18L20.06-0.18Q18.98-0.65 18.21-1.54L18.21-1.54L18.21-1.54Q17.45-2.43 17.05-3.66L17.05-3.66L17.05-3.66Q16.65-4.90 16.65-6.45L16.65-6.45L16.65-6.45Q16.65-7.98 17.05-9.22L17.05-9.22L17.05-9.22Q17.45-10.48 18.21-11.36L18.21-11.36L18.21-11.36Q18.98-12.25 20.06-12.73L20.06-12.73L20.06-12.73Q21.15-13.20 22.50-13.20L22.50-13.20L22.50-13.20Q23.85-13.20 24.94-12.73L24.94-12.73L24.94-12.73Q26.02-12.25 26.79-11.36L26.79-11.36L26.79-11.36Q27.55-10.48 27.95-9.22L27.95-9.22L27.95-9.22Q28.35-7.98 28.35-6.45L28.35-6.45L28.35-6.45Q28.35-4.90 27.95-3.66L27.95-3.66L27.95-3.66Q27.55-2.43 26.79-1.54L26.79-1.54L26.79-1.54Q26.02-0.65 24.94-0.18L24.94-0.18L24.94-0.18Q23.85 0.30 22.50 0.30ZM22.50-1.43L22.50-1.43L22.50-1.43Q24.18-1.43 25.20-2.43L25.20-2.43L25.20-2.43Q26.23-3.43 26.23-5.53L26.23-5.53L26.23-7.38L26.23-7.38Q26.23-9.47 25.20-10.48L25.20-10.48L25.20-10.48Q24.18-11.48 22.50-11.48L22.50-11.48L22.50-11.48Q20.82-11.48 19.80-10.48L19.80-10.48L19.80-10.48Q18.77-9.47 18.77-7.38L18.77-7.38L18.77-5.53L18.77-5.53Q18.77-3.43 19.80-2.43L19.80-2.43L19.80-2.43Q20.82-1.43 22.50-1.43ZM40.55 0L40.55-2.10L40.45-2.10L40.45-2.10Q40.25-1.63 39.95-1.19L39.95-1.19L39.95-1.19Q39.65-0.75 39.21-0.43L39.21-0.43L39.21-0.43Q38.77-0.10 38.17 0.10L38.17 0.10L38.17 0.10Q37.58 0.30 36.77 0.30L36.77 0.30L36.77 0.30Q34.75 0.30 33.52-0.99L33.52-0.99L33.52-0.99Q32.30-2.27 32.30-4.63L32.30-4.63L32.30-12.90L34.30-12.90L34.30-4.98L34.30-4.98Q34.30-3.20 35.08-2.34L35.08-2.34L35.08-2.34Q35.85-1.48 37.35-1.48L37.35-1.48L37.35-1.48Q37.95-1.48 38.52-1.63L38.52-1.63L38.52-1.63Q39.10-1.78 39.55-2.08L39.55-2.08L39.55-2.08Q40-2.38 40.27-2.84L40.27-2.84L40.27-2.84Q40.55-3.30 40.55-3.95L40.55-3.95L40.55-12.90L42.55-12.90L42.55 0L40.55 0ZM67.95 0.30L67.95 0.30L67.95 0.30Q66.55 0.30 65.46-0.19L65.46-0.19L65.46-0.19Q64.38-0.68 63.63-1.55L63.63-1.55L63.63-1.55Q62.88-2.43 62.49-3.68L62.49-3.68L62.49-3.68Q62.10-4.93 62.10-6.45L62.10-6.45L62.10-6.45Q62.10-7.98 62.50-9.22L62.50-9.22L62.50-9.22Q62.90-10.48 63.65-11.36L63.65-11.36L63.65-11.36Q64.40-12.25 65.47-12.73L65.47-12.73L65.47-12.73Q66.55-13.20 67.92-13.20L67.92-13.20L67.92-13.20Q69.80-13.20 70.97-12.38L70.97-12.38L70.97-12.38Q72.15-11.55 72.70-10.23L72.70-10.23L71.10-9.38L71.10-9.38Q70.75-10.38 69.94-10.93L69.94-10.93L69.94-10.93Q69.13-11.48 67.92-11.48L67.92-11.48L67.92-11.48Q67.05-11.48 66.36-11.19L66.36-11.19L66.36-11.19Q65.67-10.90 65.20-10.38L65.20-10.38L65.20-10.38Q64.72-9.85 64.49-9.13L64.49-9.13L64.49-9.13Q64.25-8.40 64.25-7.55L64.25-7.55L64.25-5.35L64.25-5.35Q64.25-4.50 64.49-3.78L64.49-3.78L64.49-3.78Q64.72-3.05 65.20-2.53L65.20-2.53L65.20-2.53Q65.67-2 66.38-1.71L66.38-1.71L66.38-1.71Q67.08-1.43 67.97-1.43L67.97-1.43L67.97-1.43Q69.28-1.43 70.13-2.02L70.13-2.02L70.13-2.02Q70.97-2.63 71.47-3.68L71.47-3.68L72.90-2.70L72.90-2.70Q72.33-1.40 71.11-0.55L71.11-0.55L71.11-0.55Q69.90 0.30 67.95 0.30ZM88.75 0L87.38 0L87.38 0Q86.20 0 85.70-0.60L85.70-0.60L85.70-0.60Q85.20-1.20 85.08-2.10L85.08-2.10L84.95-2.10L84.95-2.10Q84.53-0.98 83.59-0.34L83.59-0.34L83.59-0.34Q82.65 0.30 81.08 0.30L81.08 0.30L81.08 0.30Q79.05 0.30 77.85-0.75L77.85-0.75L77.85-0.75Q76.65-1.80 76.65-3.63L76.65-3.63L76.65-3.63Q76.65-5.43 77.96-6.40L77.96-6.40L77.96-6.40Q79.28-7.38 82.20-7.38L82.20-7.38L84.95-7.38L84.95-8.65L84.95-8.65Q84.95-10.08 84.15-10.79L84.15-10.79L84.15-10.79Q83.35-11.50 81.88-11.50L81.88-11.50L81.88-11.50Q80.58-11.50 79.75-10.99L79.75-10.99L79.75-10.99Q78.92-10.48 78.42-9.60L78.42-9.60L77.08-10.60L77.08-10.60Q77.33-11.10 77.75-11.58L77.75-11.58L77.75-11.58Q78.17-12.05 78.80-12.41L78.80-12.41L78.80-12.41Q79.42-12.78 80.22-12.99L80.22-12.99L80.22-12.99Q81.03-13.20 82-13.20L82-13.20L82-13.20Q84.28-13.20 85.61-12.05L85.61-12.05L85.61-12.05Q86.95-10.90 86.95-8.85L86.95-8.85L86.95-1.75L88.75-1.75L88.75 0ZM81.42-1.38L81.42-1.38L81.42-1.38Q82.20-1.38 82.84-1.56L82.84-1.56L82.84-1.56Q83.47-1.75 83.95-2.06L83.95-2.06L83.95-2.06Q84.42-2.38 84.69-2.81L84.69-2.81L84.69-2.81Q84.95-3.25 84.95-3.75L84.95-3.75L84.95-5.88L82.20-5.88L82.20-5.88Q80.40-5.88 79.58-5.38L79.58-5.38L79.58-5.38Q78.75-4.88 78.75-3.93L78.75-3.93L78.75-3.40L78.75-3.40Q78.75-2.40 79.46-1.89L79.46-1.89L79.46-1.89Q80.17-1.38 81.42-1.38ZM94.45 0L92.45 0L92.45-12.90L94.45-12.90L94.45-10.80L94.55-10.80L94.55-10.80Q94.75-11.28 95.05-11.71L95.05-11.71L95.05-11.71Q95.35-12.15 95.79-12.48L95.79-12.48L95.79-12.48Q96.22-12.80 96.83-13L96.83-13L96.83-13Q97.42-13.20 98.22-13.20L98.22-13.20L98.22-13.20Q100.25-13.20 101.47-11.91L101.47-11.91L101.47-11.91Q102.70-10.63 102.70-8.28L102.70-8.28L102.70 0L100.70 0L100.70-7.93L100.70-7.93Q100.70-9.70 99.92-10.56L99.92-10.56L99.92-10.56Q99.15-11.43 97.65-11.43L97.65-11.43L97.65-11.43Q97.05-11.43 96.47-11.28L96.47-11.28L96.47-11.28Q95.90-11.13 95.45-10.83L95.45-10.83L95.45-10.83Q95-10.53 94.72-10.05L94.72-10.05L94.72-10.05Q94.45-9.58 94.45-8.95L94.45-8.95L94.45 0ZM110.58-11.58L111.90-18.50L115.13-18.50L112.25-11.58L110.58-11.58ZM133.15 0L128.13 0L128.13 0Q126.65 0 125.96-0.83L125.96-0.83L125.96-0.83Q125.28-1.65 125.28-2.95L125.28-2.95L125.28-11.20L120.97-11.20L120.97-12.90L124.17-12.90L124.17-12.90Q124.83-12.90 125.09-13.16L125.09-13.16L125.09-13.16Q125.35-13.43 125.35-14.08L125.35-14.08L125.35-17.45L127.28-17.45L127.28-12.90L133.15-12.90L133.15-11.20L127.28-11.20L127.28-1.70L133.15-1.70L133.15 0ZM152.07 0L152.07-1.70L156.43-1.70L156.43-11.20L151.82-11.20L151.82-12.90L156.43-12.90L156.43-15.55L156.43-15.55Q156.43-16.85 157.11-17.68L157.11-17.68L157.11-17.68Q157.80-18.50 159.28-18.50L159.28-18.50L163.60-18.50L163.60-16.80L158.43-16.80L158.43-12.90L163.60-12.90L163.60-11.20L158.43-11.20L158.43-1.70L163.03-1.70L163.03 0L152.07 0ZM178.75 0L177.38 0L177.38 0Q176.20 0 175.70-0.60L175.70-0.60L175.70-0.60Q175.20-1.20 175.07-2.10L175.07-2.10L174.95-2.10L174.95-2.10Q174.53-0.98 173.59-0.34L173.59-0.34L173.59-0.34Q172.65 0.30 171.07 0.30L171.07 0.30L171.07 0.30Q169.05 0.30 167.85-0.75L167.85-0.75L167.85-0.75Q166.65-1.80 166.65-3.63L166.65-3.63L166.65-3.63Q166.65-5.43 167.96-6.40L167.96-6.40L167.96-6.40Q169.28-7.38 172.20-7.38L172.20-7.38L174.95-7.38L174.95-8.65L174.95-8.65Q174.95-10.08 174.15-10.79L174.15-10.79L174.15-10.79Q173.35-11.50 171.88-11.50L171.88-11.50L171.88-11.50Q170.57-11.50 169.75-10.99L169.75-10.99L169.75-10.99Q168.93-10.48 168.43-9.60L168.43-9.60L167.07-10.60L167.07-10.60Q167.32-11.10 167.75-11.58L167.75-11.58L167.75-11.58Q168.18-12.05 168.80-12.41L168.80-12.41L168.80-12.41Q169.43-12.78 170.22-12.99L170.22-12.99L170.22-12.99Q171.03-13.20 172-13.20L172-13.20L172-13.20Q174.28-13.20 175.61-12.05L175.61-12.05L175.61-12.05Q176.95-10.90 176.95-8.85L176.95-8.85L176.95-1.75L178.75-1.75L178.75 0ZM171.43-1.38L171.43-1.38L171.43-1.38Q172.20-1.38 172.84-1.56L172.84-1.56L172.84-1.56Q173.47-1.75 173.95-2.06L173.95-2.06L173.95-2.06Q174.43-2.38 174.69-2.81L174.69-2.81L174.69-2.81Q174.95-3.25 174.95-3.75L174.95-3.75L174.95-5.88L172.20-5.88L172.20-5.88Q170.40-5.88 169.57-5.38L169.57-5.38L169.57-5.38Q168.75-4.88 168.75-3.93L168.75-3.93L168.75-3.40L168.75-3.40Q168.75-2.40 169.46-1.89L169.46-1.89L169.46-1.89Q170.18-1.38 171.43-1.38ZM182 0L182-1.70L186.50-1.70L186.50-16.80L182-16.80L182-18.50L188.50-18.50L188.50-1.70L193-1.70L193 0L182 0ZM197 0L197-1.70L201.50-1.70L201.50-16.80L197-16.80L197-18.50L203.50-18.50L203.50-1.70L208-1.70L208 0L197 0ZM233.30-15.75L233.30-15.75L233.30-15.75Q232.43-15.75 232.07-16.11L232.07-16.11L232.07-16.11Q231.72-16.48 231.72-17.03L231.72-17.03L231.72-17.43L231.72-17.43Q231.72-17.98 232.07-18.34L232.07-18.34L232.07-18.34Q232.43-18.70 233.30-18.70L233.30-18.70L233.30-18.70Q234.18-18.70 234.53-18.34L234.53-18.34L234.53-18.34Q234.88-17.98 234.88-17.43L234.88-17.43L234.88-17.03L234.88-17.03Q234.88-16.48 234.53-16.11L234.53-16.11L234.53-16.11Q234.18-15.75 233.30-15.75ZM227.65 0L227.65-1.70L232.30-1.70L232.30-11.20L227.65-11.20L227.65-12.90L234.30-12.90L234.30-1.70L238.65-1.70L238.65 0L227.65 0ZM242.07 0L242.07-1.70L246.43-1.70L246.43-11.20L241.82-11.20L241.82-12.90L246.43-12.90L246.43-15.55L246.43-15.55Q246.43-16.85 247.11-17.68L247.11-17.68L247.11-17.68Q247.80-18.50 249.28-18.50L249.28-18.50L253.60-18.50L253.60-16.80L248.43-16.80L248.43-12.90L253.60-12.90L253.60-11.20L248.43-11.20L248.43-1.70L253.03-1.70L253.03 0L242.07 0ZM279.50-7.50L281.68-12.90L283.68-12.90L277.27 2.83L277.27 2.83Q277.05 3.38 276.77 3.79L276.77 3.79L276.77 3.79Q276.50 4.20 276.13 4.46L276.13 4.46L276.13 4.46Q275.75 4.73 275.23 4.86L275.23 4.86L275.23 4.86Q274.70 5 273.98 5L273.98 5L272.07 5L272.07 3.30L275.07 3.30L276.52-0.25L271.32-12.90L273.38-12.90L275.55-7.50L277.48-2.60L277.57-2.60L279.50-7.50ZM292.50 0.30L292.50 0.30L292.50 0.30Q291.15 0.30 290.06-0.18L290.06-0.18L290.06-0.18Q288.98-0.65 288.21-1.54L288.21-1.54L288.21-1.54Q287.45-2.43 287.05-3.66L287.05-3.66L287.05-3.66Q286.65-4.90 286.65-6.45L286.65-6.45L286.65-6.45Q286.65-7.98 287.05-9.22L287.05-9.22L287.05-9.22Q287.45-10.48 288.21-11.36L288.21-11.36L288.21-11.36Q288.98-12.25 290.06-12.73L290.06-12.73L290.06-12.73Q291.15-13.20 292.50-13.20L292.50-13.20L292.50-13.20Q293.85-13.20 294.94-12.73L294.94-12.73L294.94-12.73Q296.02-12.25 296.79-11.36L296.79-11.36L296.79-11.36Q297.55-10.48 297.95-9.22L297.95-9.22L297.95-9.22Q298.35-7.98 298.35-6.45L298.35-6.45L298.35-6.45Q298.35-4.90 297.95-3.66L297.95-3.66L297.95-3.66Q297.55-2.43 296.79-1.54L296.79-1.54L296.79-1.54Q296.02-0.65 294.94-0.18L294.94-0.18L294.94-0.18Q293.85 0.30 292.50 0.30ZM292.50-1.43L292.50-1.43L292.50-1.43Q294.18-1.43 295.20-2.43L295.20-2.43L295.20-2.43Q296.23-3.43 296.23-5.53L296.23-5.53L296.23-7.38L296.23-7.38Q296.23-9.47 295.20-10.48L295.20-10.48L295.20-10.48Q294.18-11.48 292.50-11.48L292.50-11.48L292.50-11.48Q290.82-11.48 289.80-10.48L289.80-10.48L289.80-10.48Q288.77-9.47 288.77-7.38L288.77-7.38L288.77-5.53L288.77-5.53Q288.77-3.43 289.80-2.43L289.80-2.43L289.80-2.43Q290.82-1.43 292.50-1.43ZM310.55 0L310.55-2.10L310.45-2.10L310.45-2.10Q310.25-1.63 309.95-1.19L309.95-1.19L309.95-1.19Q309.65-0.75 309.21-0.43L309.21-0.43L309.21-0.43Q308.77-0.10 308.18 0.10L308.18 0.10L308.18 0.10Q307.57 0.30 306.77 0.30L306.77 0.30L306.77 0.30Q304.75 0.30 303.52-0.99L303.52-0.99L303.52-0.99Q302.30-2.27 302.30-4.63L302.30-4.63L302.30-12.90L304.30-12.90L304.30-4.98L304.30-4.98Q304.30-3.20 305.07-2.34L305.07-2.34L305.07-2.34Q305.85-1.48 307.35-1.48L307.35-1.48L307.35-1.48Q307.95-1.48 308.52-1.63L308.52-1.63L308.52-1.63Q309.10-1.78 309.55-2.08L309.55-2.08L309.55-2.08Q310-2.38 310.27-2.84L310.27-2.84L310.27-2.84Q310.55-3.30 310.55-3.95L310.55-3.95L310.55-12.90L312.55-12.90L312.55 0L310.55 0ZM340.63 0L340.63-2.10L340.52-2.10L340.52-2.10Q339.27 0.30 336.55 0.30L336.55 0.30L336.55 0.30Q334.18 0.30 332.84-1.48L332.84-1.48L332.84-1.48Q331.50-3.25 331.50-6.45L331.50-6.45L331.50-6.45Q331.50-9.65 332.84-11.43L332.84-11.43L332.84-11.43Q334.18-13.20 336.55-13.20L336.55-13.20L336.55-13.20Q339.27-13.20 340.52-10.80L340.52-10.80L340.63-10.80L340.63-18.50L342.63-18.50L342.63 0L340.63 0ZM337.32-1.48L337.32-1.48L337.32-1.48Q338-1.48 338.60-1.65L338.60-1.65L338.60-1.65Q339.20-1.83 339.65-2.16L339.65-2.16L339.65-2.16Q340.10-2.50 340.36-2.99L340.36-2.99L340.36-2.99Q340.63-3.48 340.63-4.13L340.63-4.13L340.63-8.78L340.63-8.78Q340.63-9.43 340.36-9.91L340.36-9.91L340.36-9.91Q340.10-10.40 339.65-10.74L339.65-10.74L339.65-10.74Q339.20-11.08 338.60-11.25L338.60-11.25L338.60-11.25Q338-11.43 337.32-11.43L337.32-11.43L337.32-11.43Q335.57-11.43 334.61-10.36L334.61-10.36L334.61-10.36Q333.65-9.30 333.65-7.55L333.65-7.55L333.65-5.35L333.65-5.35Q333.65-3.60 334.61-2.54L334.61-2.54L334.61-2.54Q335.57-1.48 337.32-1.48ZM352.50 0.30L352.50 0.30L352.50 0.30Q351.15 0.30 350.06-0.18L350.06-0.18L350.06-0.18Q348.98-0.65 348.21-1.54L348.21-1.54L348.21-1.54Q347.45-2.43 347.05-3.66L347.05-3.66L347.05-3.66Q346.65-4.90 346.65-6.45L346.65-6.45L346.65-6.45Q346.65-7.98 347.05-9.22L347.05-9.22L347.05-9.22Q347.45-10.48 348.21-11.36L348.21-11.36L348.21-11.36Q348.98-12.25 350.06-12.73L350.06-12.73L350.06-12.73Q351.15-13.20 352.50-13.20L352.50-13.20L352.50-13.20Q353.85-13.20 354.94-12.73L354.94-12.73L354.94-12.73Q356.02-12.25 356.79-11.36L356.79-11.36L356.79-11.36Q357.55-10.48 357.95-9.22L357.95-9.22L357.95-9.22Q358.35-7.98 358.35-6.45L358.35-6.45L358.35-6.45Q358.35-4.90 357.95-3.66L357.95-3.66L357.95-3.66Q357.55-2.43 356.79-1.54L356.79-1.54L356.79-1.54Q356.02-0.65 354.94-0.18L354.94-0.18L354.94-0.18Q353.85 0.30 352.50 0.30ZM352.50-1.43L352.50-1.43L352.50-1.43Q354.18-1.43 355.20-2.43L355.20-2.43L355.20-2.43Q356.23-3.43 356.23-5.53L356.23-5.53L356.23-7.38L356.23-7.38Q356.23-9.47 355.20-10.48L355.20-10.48L355.20-10.48Q354.18-11.48 352.50-11.48L352.50-11.48L352.50-11.48Q350.82-11.48 349.80-10.48L349.80-10.48L349.80-10.48Q348.77-9.47 348.77-7.38L348.77-7.38L348.77-5.53L348.77-5.53Q348.77-3.43 349.80-2.43L349.80-2.43L349.80-2.43Q350.82-1.43 352.50-1.43ZM364.45 0L362.45 0L362.45-12.90L364.45-12.90L364.45-10.80L364.55-10.80L364.55-10.80Q364.75-11.28 365.05-11.71L365.05-11.71L365.05-11.71Q365.35-12.15 365.79-12.48L365.79-12.48L365.79-12.48Q366.23-12.80 366.82-13L366.82-13L366.82-13Q367.43-13.20 368.23-13.20L368.23-13.20L368.23-13.20Q370.25-13.20 371.48-11.91L371.48-11.91L371.48-11.91Q372.70-10.63 372.70-8.28L372.70-8.28L372.70 0L370.70 0L370.70-7.93L370.70-7.93Q370.70-9.70 369.93-10.56L369.93-10.56L369.93-10.56Q369.15-11.43 367.65-11.43L367.65-11.43L367.65-11.43Q367.05-11.43 366.48-11.28L366.48-11.28L366.48-11.28Q365.90-11.13 365.45-10.83L365.45-10.83L365.45-10.83Q365-10.53 364.73-10.05L364.73-10.05L364.73-10.05Q364.45-9.58 364.45-8.95L364.45-8.95L364.45 0ZM380.57-11.58L381.90-18.50L385.13-18.50L382.25-11.58L380.57-11.58ZM403.15 0L398.13 0L398.13 0Q396.65 0 395.96-0.83L395.96-0.83L395.96-0.83Q395.27-1.65 395.27-2.95L395.27-2.95L395.27-11.20L390.98-11.20L390.98-12.90L394.18-12.90L394.18-12.90Q394.82-12.90 395.09-13.16L395.09-13.16L395.09-13.16Q395.35-13.43 395.35-14.08L395.35-14.08L395.35-17.45L397.27-17.45L397.27-12.90L403.15-12.90L403.15-11.20L397.27-11.20L397.27-1.70L403.15-1.70L403.15 0ZM427.95 0.30L427.95 0.30L427.95 0.30Q426.55 0.30 425.46-0.19L425.46-0.19L425.46-0.19Q424.38-0.68 423.63-1.55L423.63-1.55L423.63-1.55Q422.88-2.43 422.49-3.68L422.49-3.68L422.49-3.68Q422.10-4.93 422.10-6.45L422.10-6.45L422.10-6.45Q422.10-7.98 422.50-9.22L422.50-9.22L422.50-9.22Q422.90-10.48 423.65-11.36L423.65-11.36L423.65-11.36Q424.40-12.25 425.48-12.73L425.48-12.73L425.48-12.73Q426.55-13.20 427.93-13.20L427.93-13.20L427.93-13.20Q429.80-13.20 430.98-12.38L430.98-12.38L430.98-12.38Q432.15-11.55 432.70-10.23L432.70-10.23L431.10-9.38L431.10-9.38Q430.75-10.38 429.94-10.93L429.94-10.93L429.94-10.93Q429.13-11.48 427.93-11.48L427.93-11.48L427.93-11.48Q427.05-11.48 426.36-11.19L426.36-11.19L426.36-11.19Q425.68-10.90 425.20-10.38L425.20-10.38L425.20-10.38Q424.73-9.85 424.49-9.13L424.49-9.13L424.49-9.13Q424.25-8.40 424.25-7.55L424.25-7.55L424.25-5.35L424.25-5.35Q424.25-4.50 424.49-3.78L424.49-3.78L424.49-3.78Q424.73-3.05 425.20-2.53L425.20-2.53L425.20-2.53Q425.68-2 426.38-1.71L426.38-1.71L426.38-1.71Q427.07-1.43 427.98-1.43L427.98-1.43L427.98-1.43Q429.27-1.43 430.13-2.02L430.13-2.02L430.13-2.02Q430.98-2.63 431.48-3.68L431.48-3.68L432.90-2.70L432.90-2.70Q432.32-1.40 431.11-0.55L431.11-0.55L431.11-0.55Q429.90 0.30 427.95 0.30ZM437 0L437-1.70L441.50-1.70L441.50-16.80L437-16.80L437-18.50L443.50-18.50L443.50-1.70L448-1.70L448 0L437 0ZM458.30-15.75L458.30-15.75L458.30-15.75Q457.43-15.75 457.07-16.11L457.07-16.11L457.07-16.11Q456.73-16.48 456.73-17.03L456.73-17.03L456.73-17.43L456.73-17.43Q456.73-17.98 457.07-18.34L457.07-18.34L457.07-18.34Q457.43-18.70 458.30-18.70L458.30-18.70L458.30-18.70Q459.18-18.70 459.52-18.34L459.52-18.34L459.52-18.34Q459.88-17.98 459.88-17.43L459.88-17.43L459.88-17.03L459.88-17.03Q459.88-16.48 459.52-16.11L459.52-16.11L459.52-16.11Q459.18-15.75 458.30-15.75ZM452.65 0L452.65-1.70L457.30-1.70L457.30-11.20L452.65-11.20L452.65-12.90L459.30-12.90L459.30-1.70L463.65-1.70L463.65 0L452.65 0ZM468.20 0L466.35 0L466.35-12.90L468.20-12.90L468.20-11.40L468.30-11.40L468.30-11.40Q468.60-12.15 469.15-12.68L469.15-12.68L469.15-12.68Q469.70-13.20 470.77-13.20L470.77-13.20L470.77-13.20Q471.90-13.20 472.45-12.64L472.45-12.64L472.45-12.64Q473-12.08 473.13-11.18L473.13-11.18L473.20-11.18L473.20-11.18Q473.55-12.05 474.20-12.63L474.20-12.63L474.20-12.63Q474.85-13.20 476-13.20L476-13.20L476-13.20Q477.57-13.20 478.11-12.10L478.11-12.10L478.11-12.10Q478.65-11 478.65-8.95L478.65-8.95L478.65 0L476.80 0L476.80-8.63L476.80-8.63Q476.80-10.28 476.46-10.91L476.46-10.91L476.46-10.91Q476.13-11.55 475.23-11.55L475.23-11.55L475.23-11.55Q474.43-11.55 473.93-11.04L473.93-11.04L473.93-11.04Q473.43-10.53 473.43-9.47L473.43-9.47L473.43 0L471.57 0L471.57-8.63L471.57-8.63Q471.57-10.28 471.24-10.91L471.24-10.91L471.24-10.91Q470.90-11.55 470.02-11.55L470.02-11.55L470.02-11.55Q469.23-11.55 468.71-11.04L468.71-11.04L468.71-11.04Q468.20-10.53 468.20-9.47L468.20-9.47L468.20 0ZM482.38 0L482.38-18.50L484.38-18.50L484.38-10.80L484.48-10.80L484.48-10.80Q485.73-13.20 488.45-13.20L488.45-13.20L488.45-13.20Q490.82-13.20 492.16-11.43L492.16-11.43L492.16-11.43Q493.50-9.65 493.50-6.45L493.50-6.45L493.50-6.45Q493.50-3.25 492.16-1.48L492.16-1.48L492.16-1.48Q490.82 0.30 488.45 0.30L488.45 0.30L488.45 0.30Q485.73 0.30 484.48-2.10L484.48-2.10L484.38-2.10L484.38 0L482.38 0ZM487.68-1.48L487.68-1.48L487.68-1.48Q489.43-1.48 490.39-2.54L490.39-2.54L490.39-2.54Q491.35-3.60 491.35-5.35L491.35-5.35L491.35-7.55L491.35-7.55Q491.35-9.30 490.39-10.36L490.39-10.36L490.39-10.36Q489.43-11.43 487.68-11.43L487.68-11.43L487.68-11.43Q487-11.43 486.40-11.25L486.40-11.25L486.40-11.25Q485.80-11.08 485.35-10.74L485.35-10.74L485.35-10.74Q484.90-10.40 484.64-9.91L484.64-9.91L484.64-9.91Q484.38-9.43 484.38-8.78L484.38-8.78L484.38-4.13L484.38-4.13Q484.38-3.48 484.64-2.99L484.64-2.99L484.64-2.99Q484.90-2.50 485.35-2.16L485.35-2.16L485.35-2.16Q485.80-1.83 486.40-1.65L486.40-1.65L486.40-1.65Q487-1.48 487.68-1.48Z" fill="#e7e7e7"></path></g></g><style>text {
  font-size: 64px;
  font-family: Arial Black;
  dominant-baseline: central;
  text-anchor: middle;
}</style></svg>