<svg width="1264.26875px" height="64.4px" xmlns="http://www.w3.org/2000/svg" viewBox="-382.134375 42.8 1264.26875 64.4" style="background: rgba(89, 104, 134, 0);" preserveAspectRatio="xMidYMid"><defs><filter id="editing-hover" x="-100%" y="-100%" width="300%" height="300%"><feFlood flood-color="rgba(1.9607843137254888%,16.862745098039188%,29.01960784313726%,0)" result="flood"></feFlood><feComposite operator="in" in2="SourceAlpha" in="flood" result="shadow"></feComposite><feOffset dx="-4" dy="-4" in="SourceGraphic" result="offset-1"></feOffset><feOffset dx="4" dy="4" in="shadow" result="offset-2"></feOffset><feMerge><feMergeNode in="offset-2"></feMergeNode><feMergeNode in="offset-1"></feMergeNode></feMerge></filter></defs><g filter="url(#editing-hover)"><g transform="translate(-208.07497262954712, 87.00000190734863)"><path d="M8.30-15.75L8.30-15.75L8.30-15.75Q7.43-15.75 7.08-16.11L7.08-16.11L7.08-16.11Q6.73-16.48 6.73-17.03L6.73-17.03L6.73-17.43L6.73-17.43Q6.73-17.98 7.08-18.34L7.08-18.34L7.08-18.34Q7.43-18.70 8.30-18.70L8.30-18.70L8.30-18.70Q9.18-18.70 9.53-18.34L9.53-18.34L9.53-18.34Q9.88-17.98 9.88-17.43L9.88-17.43L9.88-17.03L9.88-17.03Q9.88-16.48 9.53-16.11L9.53-16.11L9.53-16.11Q9.18-15.75 8.30-15.75ZM2.65 0L2.65-1.70L7.30-1.70L7.30-11.20L2.65-11.20L2.65-12.90L9.30-12.90L9.30-1.70L13.65-1.70L13.65 0L2.65 0ZM28.15 0L23.13 0L23.13 0Q21.65 0 20.96-0.83L20.96-0.83L20.96-0.83Q20.27-1.65 20.27-2.95L20.27-2.95L20.27-11.20L15.97-11.20L15.97-12.90L19.18-12.90L19.18-12.90Q19.82-12.90 20.09-13.16L20.09-13.16L20.09-13.16Q20.35-13.43 20.35-14.08L20.35-14.08L20.35-17.45L22.27-17.45L22.27-12.90L28.15-12.90L28.15-11.20L22.27-11.20L22.27-1.70L28.15-1.70L28.15 0ZM55.63 0L55.63-2.10L55.52-2.10L55.52-2.10Q54.27 0.30 51.55 0.30L51.55 0.30L51.55 0.30Q49.17 0.30 47.84-1.48L47.84-1.48L47.84-1.48Q46.50-3.25 46.50-6.45L46.50-6.45L46.50-6.45Q46.50-9.65 47.84-11.43L47.84-11.43L47.84-11.43Q49.17-13.20 51.55-13.20L51.55-13.20L51.55-13.20Q54.27-13.20 55.52-10.80L55.52-10.80L55.63-10.80L55.63-18.50L57.63-18.50L57.63 0L55.63 0ZM52.33-1.48L52.33-1.48L52.33-1.48Q53-1.48 53.60-1.65L53.60-1.65L53.60-1.65Q54.20-1.83 54.65-2.16L54.65-2.16L54.65-2.16Q55.10-2.50 55.36-2.99L55.36-2.99L55.36-2.99Q55.63-3.48 55.63-4.13L55.63-4.13L55.63-8.78L55.63-8.78Q55.63-9.43 55.36-9.91L55.36-9.91L55.36-9.91Q55.10-10.40 54.65-10.74L54.65-10.74L54.65-10.74Q54.20-11.08 53.60-11.25L53.60-11.25L53.60-11.25Q53-11.43 52.33-11.43L52.33-11.43L52.33-11.43Q50.58-11.43 49.61-10.36L49.61-10.36L49.61-10.36Q48.65-9.30 48.65-7.55L48.65-7.55L48.65-5.35L48.65-5.35Q48.65-3.60 49.61-2.54L49.61-2.54L49.61-2.54Q50.58-1.48 52.33-1.48ZM67.50 0.30L67.50 0.30L67.50 0.30Q66.15 0.30 65.06-0.18L65.06-0.18L65.06-0.18Q63.98-0.65 63.21-1.54L63.21-1.54L63.21-1.54Q62.45-2.43 62.05-3.66L62.05-3.66L62.05-3.66Q61.65-4.90 61.65-6.45L61.65-6.45L61.65-6.45Q61.65-7.98 62.05-9.22L62.05-9.22L62.05-9.22Q62.45-10.48 63.21-11.36L63.21-11.36L63.21-11.36Q63.98-12.25 65.06-12.73L65.06-12.73L65.06-12.73Q66.15-13.20 67.50-13.20L67.50-13.20L67.50-13.20Q68.85-13.20 69.94-12.73L69.94-12.73L69.94-12.73Q71.03-12.25 71.79-11.36L71.79-11.36L71.79-11.36Q72.55-10.48 72.95-9.22L72.95-9.22L72.95-9.22Q73.35-7.98 73.35-6.45L73.35-6.45L73.35-6.45Q73.35-4.90 72.95-3.66L72.95-3.66L72.95-3.66Q72.55-2.43 71.79-1.54L71.79-1.54L71.79-1.54Q71.03-0.65 69.94-0.18L69.94-0.18L69.94-0.18Q68.85 0.30 67.50 0.30ZM67.50-1.43L67.50-1.43L67.50-1.43Q69.17-1.43 70.20-2.43L70.20-2.43L70.20-2.43Q71.22-3.43 71.22-5.53L71.22-5.53L71.22-7.38L71.22-7.38Q71.22-9.47 70.20-10.48L70.20-10.48L70.20-10.48Q69.17-11.48 67.50-11.48L67.50-11.48L67.50-11.48Q65.83-11.48 64.80-10.48L64.80-10.48L64.80-10.48Q63.77-9.47 63.77-7.38L63.77-7.38L63.77-5.53L63.77-5.53Q63.77-3.43 64.80-2.43L64.80-2.43L64.80-2.43Q65.83-1.43 67.50-1.43ZM82.72 0.30L82.72 0.30L82.72 0.30Q81.33 0.30 80.21-0.18L80.21-0.18L80.21-0.18Q79.10-0.65 78.31-1.54L78.31-1.54L78.31-1.54Q77.53-2.43 77.10-3.66L77.10-3.66L77.10-3.66Q76.67-4.90 76.67-6.43L76.67-6.43L76.67-6.43Q76.67-7.98 77.11-9.22L77.11-9.22L77.11-9.22Q77.55-10.48 78.33-11.36L78.33-11.36L78.33-11.36Q79.10-12.25 80.19-12.73L80.19-12.73L80.19-12.73Q81.28-13.20 82.60-13.20L82.60-13.20L82.60-13.20Q83.90-13.20 84.96-12.73L84.96-12.73L84.96-12.73Q86.03-12.25 86.78-11.41L86.78-11.41L86.78-11.41Q87.53-10.58 87.92-9.43L87.92-9.43L87.92-9.43Q88.33-8.28 88.33-6.90L88.33-6.90L88.33-5.95L78.78-5.95L78.78-5.35L78.78-5.35Q78.78-4.50 79.05-3.78L79.05-3.78L79.05-3.78Q79.33-3.05 79.84-2.53L79.84-2.53L79.84-2.53Q80.35-2 81.09-1.71L81.09-1.71L81.09-1.71Q81.83-1.43 82.72-1.43L82.72-1.43L82.72-1.43Q84.03-1.43 84.97-2.02L84.97-2.02L84.97-2.02Q85.92-2.63 86.42-3.68L86.42-3.68L87.90-2.68L87.90-2.68Q87.33-1.38 85.99-0.54L85.99-0.54L85.99-0.54Q84.65 0.30 82.72 0.30ZM82.60-11.55L82.60-11.55L82.60-11.55Q81.78-11.55 81.08-11.25L81.08-11.25L81.08-11.25Q80.38-10.95 79.86-10.43L79.86-10.43L79.86-10.43Q79.35-9.90 79.06-9.19L79.06-9.19L79.06-9.19Q78.78-8.47 78.78-7.63L78.78-7.63L78.78-7.45L86.17-7.45L86.17-7.73L86.17-7.73Q86.17-8.58 85.91-9.28L85.91-9.28L85.91-9.28Q85.65-9.98 85.19-10.49L85.19-10.49L85.19-10.49Q84.72-11 84.06-11.28L84.06-11.28L84.06-11.28Q83.40-11.55 82.60-11.55ZM97.65 0.30L97.65 0.30L97.65 0.30Q95.63 0.30 94.16-0.39L94.16-0.39L94.16-0.39Q92.70-1.07 91.67-2.23L91.67-2.23L93.03-3.40L93.03-3.40Q93.95-2.43 95.05-1.90L95.05-1.90L95.05-1.90Q96.15-1.38 97.70-1.38L97.70-1.38L97.70-1.38Q99.20-1.38 100.16-1.91L100.16-1.91L100.16-1.91Q101.13-2.45 101.13-3.60L101.13-3.60L101.13-3.60Q101.13-4.10 100.94-4.44L100.94-4.44L100.94-4.44Q100.75-4.78 100.42-4.98L100.42-4.98L100.42-4.98Q100.10-5.18 99.70-5.29L99.70-5.29L99.70-5.29Q99.30-5.40 98.85-5.48L98.85-5.48L96.83-5.78L96.83-5.78Q96.15-5.88 95.36-6.05L95.36-6.05L95.36-6.05Q94.58-6.23 93.92-6.61L93.92-6.61L93.92-6.61Q93.28-7 92.84-7.65L92.84-7.65L92.84-7.65Q92.40-8.30 92.40-9.35L92.40-9.35L92.40-9.35Q92.40-10.33 92.79-11.04L92.79-11.04L92.79-11.04Q93.17-11.75 93.88-12.24L93.88-12.24L93.88-12.24Q94.58-12.73 95.53-12.96L95.53-12.96L95.53-12.96Q96.47-13.20 97.60-13.20L97.60-13.20L97.60-13.20Q99.35-13.20 100.64-12.65L100.64-12.65L100.64-12.65Q101.92-12.10 102.85-11.13L102.85-11.13L101.55-9.90L101.55-9.90Q101.33-10.18 100.99-10.46L100.99-10.46L100.99-10.46Q100.65-10.75 100.16-10.99L100.16-10.99L100.16-10.99Q99.67-11.23 99.03-11.38L99.03-11.38L99.03-11.38Q98.38-11.53 97.53-11.53L97.53-11.53L97.53-11.53Q96-11.53 95.19-11L95.19-11L95.19-11Q94.38-10.48 94.38-9.47L94.38-9.47L94.38-9.47Q94.38-8.97 94.56-8.64L94.56-8.64L94.56-8.64Q94.75-8.30 95.08-8.10L95.08-8.10L95.08-8.10Q95.40-7.90 95.81-7.79L95.81-7.79L95.81-7.79Q96.22-7.68 96.65-7.60L96.65-7.60L98.67-7.30L98.67-7.30Q99.38-7.20 100.15-7.03L100.15-7.03L100.15-7.03Q100.92-6.85 101.58-6.46L101.58-6.46L101.58-6.46Q102.22-6.08 102.66-5.43L102.66-5.43L102.66-5.43Q103.10-4.78 103.10-3.73L103.10-3.73L103.10-3.73Q103.10-1.80 101.61-0.75L101.61-0.75L101.61-0.75Q100.13 0.30 97.65 0.30ZM109.45 0L107.45 0L107.45-12.90L109.45-12.90L109.45-10.80L109.55-10.80L109.55-10.80Q109.75-11.28 110.05-11.71L110.05-11.71L110.05-11.71Q110.35-12.15 110.79-12.48L110.79-12.48L110.79-12.48Q111.22-12.80 111.83-13L111.83-13L111.83-13Q112.42-13.20 113.22-13.20L113.22-13.20L113.22-13.20Q115.25-13.20 116.47-11.91L116.47-11.91L116.47-11.91Q117.70-10.63 117.70-8.28L117.70-8.28L117.70 0L115.70 0L115.70-7.93L115.70-7.93Q115.70-9.70 114.92-10.56L114.92-10.56L114.92-10.56Q114.15-11.43 112.65-11.43L112.65-11.43L112.65-11.43Q112.05-11.43 111.47-11.28L111.47-11.28L111.47-11.28Q110.90-11.13 110.45-10.83L110.45-10.83L110.45-10.83Q110-10.53 109.72-10.05L109.72-10.05L109.72-10.05Q109.45-9.58 109.45-8.95L109.45-8.95L109.45 0ZM133.15 0L128.13 0L128.13 0Q126.65 0 125.96-0.83L125.96-0.83L125.96-0.83Q125.28-1.65 125.28-2.95L125.28-2.95L125.28-11.20L120.97-11.20L120.97-12.90L124.17-12.90L124.17-12.90Q124.83-12.90 125.09-13.16L125.09-13.16L125.09-13.16Q125.35-13.43 125.35-14.08L125.35-14.08L125.35-17.45L127.28-17.45L127.28-12.90L133.15-12.90L133.15-11.20L127.28-11.20L127.28-1.70L133.15-1.70L133.15 0ZM153.20 0L151.35 0L151.35-12.90L153.20-12.90L153.20-11.40L153.30-11.40L153.30-11.40Q153.60-12.15 154.15-12.68L154.15-12.68L154.15-12.68Q154.70-13.20 155.78-13.20L155.78-13.20L155.78-13.20Q156.90-13.20 157.45-12.64L157.45-12.64L157.45-12.64Q158-12.08 158.13-11.18L158.13-11.18L158.20-11.18L158.20-11.18Q158.55-12.05 159.20-12.63L159.20-12.63L159.20-12.63Q159.85-13.20 161-13.20L161-13.20L161-13.20Q162.57-13.20 163.11-12.10L163.11-12.10L163.11-12.10Q163.65-11 163.65-8.95L163.65-8.95L163.65 0L161.80 0L161.80-8.63L161.80-8.63Q161.80-10.28 161.46-10.91L161.46-10.91L161.46-10.91Q161.13-11.55 160.22-11.55L160.22-11.55L160.22-11.55Q159.43-11.55 158.93-11.04L158.93-11.04L158.93-11.04Q158.43-10.53 158.43-9.47L158.43-9.47L158.43 0L156.57 0L156.57-8.63L156.57-8.63Q156.57-10.28 156.24-10.91L156.24-10.91L156.24-10.91Q155.90-11.55 155.03-11.55L155.03-11.55L155.03-11.55Q154.22-11.55 153.71-11.04L153.71-11.04L153.71-11.04Q153.20-10.53 153.20-9.47L153.20-9.47L153.20 0ZM178.75 0L177.38 0L177.38 0Q176.20 0 175.70-0.60L175.70-0.60L175.70-0.60Q175.20-1.20 175.07-2.10L175.07-2.10L174.95-2.10L174.95-2.10Q174.53-0.98 173.59-0.34L173.59-0.34L173.59-0.34Q172.65 0.30 171.07 0.30L171.07 0.30L171.07 0.30Q169.05 0.30 167.85-0.75L167.85-0.75L167.85-0.75Q166.65-1.80 166.65-3.63L166.65-3.63L166.65-3.63Q166.65-5.43 167.96-6.40L167.96-6.40L167.96-6.40Q169.28-7.38 172.20-7.38L172.20-7.38L174.95-7.38L174.95-8.65L174.95-8.65Q174.95-10.08 174.15-10.79L174.15-10.79L174.15-10.79Q173.35-11.50 171.88-11.50L171.88-11.50L171.88-11.50Q170.57-11.50 169.75-10.99L169.75-10.99L169.75-10.99Q168.93-10.48 168.43-9.60L168.43-9.60L167.07-10.60L167.07-10.60Q167.32-11.10 167.75-11.58L167.75-11.58L167.75-11.58Q168.18-12.05 168.80-12.41L168.80-12.41L168.80-12.41Q169.43-12.78 170.22-12.99L170.22-12.99L170.22-12.99Q171.03-13.20 172-13.20L172-13.20L172-13.20Q174.28-13.20 175.61-12.05L175.61-12.05L175.61-12.05Q176.95-10.90 176.95-8.85L176.95-8.85L176.95-1.75L178.75-1.75L178.75 0ZM171.43-1.38L171.43-1.38L171.43-1.38Q172.20-1.38 172.84-1.56L172.84-1.56L172.84-1.56Q173.47-1.75 173.95-2.06L173.95-2.06L173.95-2.06Q174.43-2.38 174.69-2.81L174.69-2.81L174.69-2.81Q174.95-3.25 174.95-3.75L174.95-3.75L174.95-5.88L172.20-5.88L172.20-5.88Q170.40-5.88 169.57-5.38L169.57-5.38L169.57-5.38Q168.75-4.88 168.75-3.93L168.75-3.93L168.75-3.40L168.75-3.40Q168.75-2.40 169.46-1.89L169.46-1.89L169.46-1.89Q170.18-1.38 171.43-1.38ZM193.15 0L188.13 0L188.13 0Q186.65 0 185.96-0.83L185.96-0.83L185.96-0.83Q185.28-1.65 185.28-2.95L185.28-2.95L185.28-11.20L180.97-11.20L180.97-12.90L184.18-12.90L184.18-12.90Q184.82-12.90 185.09-13.16L185.09-13.16L185.09-13.16Q185.35-13.43 185.35-14.08L185.35-14.08L185.35-17.45L187.28-17.45L187.28-12.90L193.15-12.90L193.15-11.20L187.28-11.20L187.28-1.70L193.15-1.70L193.15 0ZM208.15 0L203.13 0L203.13 0Q201.65 0 200.96-0.83L200.96-0.83L200.96-0.83Q200.28-1.65 200.28-2.95L200.28-2.95L200.28-11.20L195.97-11.20L195.97-12.90L199.18-12.90L199.18-12.90Q199.82-12.90 200.09-13.16L200.09-13.16L200.09-13.16Q200.35-13.43 200.35-14.08L200.35-14.08L200.35-17.45L202.28-17.45L202.28-12.90L208.15-12.90L208.15-11.20L202.28-11.20L202.28-1.70L208.15-1.70L208.15 0ZM217.72 0.30L217.72 0.30L217.72 0.30Q216.32 0.30 215.21-0.18L215.21-0.18L215.21-0.18Q214.10-0.65 213.31-1.54L213.31-1.54L213.31-1.54Q212.53-2.43 212.10-3.66L212.10-3.66L212.10-3.66Q211.68-4.90 211.68-6.43L211.68-6.43L211.68-6.43Q211.68-7.98 212.11-9.22L212.11-9.22L212.11-9.22Q212.55-10.48 213.32-11.36L213.32-11.36L213.32-11.36Q214.10-12.25 215.19-12.73L215.19-12.73L215.19-12.73Q216.28-13.20 217.60-13.20L217.60-13.20L217.60-13.20Q218.90-13.20 219.96-12.73L219.96-12.73L219.96-12.73Q221.03-12.25 221.78-11.41L221.78-11.41L221.78-11.41Q222.53-10.58 222.93-9.43L222.93-9.43L222.93-9.43Q223.32-8.28 223.32-6.90L223.32-6.90L223.32-5.95L213.78-5.95L213.78-5.35L213.78-5.35Q213.78-4.50 214.05-3.78L214.05-3.78L214.05-3.78Q214.32-3.05 214.84-2.53L214.84-2.53L214.84-2.53Q215.35-2 216.09-1.71L216.09-1.71L216.09-1.71Q216.82-1.43 217.72-1.43L217.72-1.43L217.72-1.43Q219.03-1.43 219.97-2.02L219.97-2.02L219.97-2.02Q220.93-2.63 221.43-3.68L221.43-3.68L222.90-2.68L222.90-2.68Q222.32-1.38 220.99-0.54L220.99-0.54L220.99-0.54Q219.65 0.30 217.72 0.30ZM217.60-11.55L217.60-11.55L217.60-11.55Q216.78-11.55 216.07-11.25L216.07-11.25L216.07-11.25Q215.38-10.95 214.86-10.43L214.86-10.43L214.86-10.43Q214.35-9.90 214.06-9.19L214.06-9.19L214.06-9.19Q213.78-8.47 213.78-7.63L213.78-7.63L213.78-7.45L221.18-7.45L221.18-7.73L221.18-7.73Q221.18-8.58 220.91-9.28L220.91-9.28L220.91-9.28Q220.65-9.98 220.19-10.49L220.19-10.49L220.19-10.49Q219.72-11 219.06-11.28L219.06-11.28L219.06-11.28Q218.40-11.55 217.60-11.55ZM226.93 0L226.93-1.70L230.70-1.70L230.70-11.20L226.93-11.20L226.93-12.90L232.70-12.90L232.70-9.65L232.82-9.65L232.82-9.65Q233.22-11.18 234.34-12.04L234.34-12.04L234.34-12.04Q235.45-12.90 237.18-12.90L237.18-12.90L238.97-12.90L238.97-10.90L236.55-10.90L236.55-10.90Q234.82-10.90 233.76-9.90L233.76-9.90L233.76-9.90Q232.70-8.90 232.70-7.28L232.70-7.28L232.70-1.70L237.70-1.70L237.70 0L226.93 0ZM257.45 0L257.45-18.50L259.45-18.50L259.45-10.80L259.55-10.80L259.55-10.80Q259.75-11.28 260.05-11.71L260.05-11.71L260.05-11.71Q260.35-12.15 260.79-12.48L260.79-12.48L260.79-12.48Q261.23-12.80 261.82-13L261.82-13L261.82-13Q262.43-13.20 263.23-13.20L263.23-13.20L263.23-13.20Q265.25-13.20 266.48-11.91L266.48-11.91L266.48-11.91Q267.70-10.63 267.70-8.28L267.70-8.28L267.70 0L265.70 0L265.70-7.93L265.70-7.93Q265.70-9.70 264.93-10.56L264.93-10.56L264.93-10.56Q264.15-11.43 262.65-11.43L262.65-11.43L262.65-11.43Q262.05-11.43 261.48-11.28L261.48-11.28L261.48-11.28Q260.90-11.13 260.45-10.83L260.45-10.83L260.45-10.83Q260-10.53 259.73-10.05L259.73-10.05L259.73-10.05Q259.45-9.58 259.45-8.95L259.45-8.95L259.45 0L257.45 0ZM277.50 0.30L277.50 0.30L277.50 0.30Q276.15 0.30 275.06-0.18L275.06-0.18L275.06-0.18Q273.98-0.65 273.21-1.54L273.21-1.54L273.21-1.54Q272.45-2.43 272.05-3.66L272.05-3.66L272.05-3.66Q271.65-4.90 271.65-6.45L271.65-6.45L271.65-6.45Q271.65-7.98 272.05-9.22L272.05-9.22L272.05-9.22Q272.45-10.48 273.21-11.36L273.21-11.36L273.21-11.36Q273.98-12.25 275.06-12.73L275.06-12.73L275.06-12.73Q276.15-13.20 277.50-13.20L277.50-13.20L277.50-13.20Q278.85-13.20 279.94-12.73L279.94-12.73L279.94-12.73Q281.02-12.25 281.79-11.36L281.79-11.36L281.79-11.36Q282.55-10.48 282.95-9.22L282.95-9.22L282.95-9.22Q283.35-7.98 283.35-6.45L283.35-6.45L283.35-6.45Q283.35-4.90 282.95-3.66L282.95-3.66L282.95-3.66Q282.55-2.43 281.79-1.54L281.79-1.54L281.79-1.54Q281.02-0.65 279.94-0.18L279.94-0.18L279.94-0.18Q278.85 0.30 277.50 0.30ZM277.50-1.43L277.50-1.43L277.50-1.43Q279.18-1.43 280.20-2.43L280.20-2.43L280.20-2.43Q281.23-3.43 281.23-5.53L281.23-5.53L281.23-7.38L281.23-7.38Q281.23-9.47 280.20-10.48L280.20-10.48L280.20-10.48Q279.18-11.48 277.50-11.48L277.50-11.48L277.50-11.48Q275.82-11.48 274.80-10.48L274.80-10.48L274.80-10.48Q273.77-9.47 273.77-7.38L273.77-7.38L273.77-5.53L273.77-5.53Q273.77-3.43 274.80-2.43L274.80-2.43L274.80-2.43Q275.82-1.43 277.50-1.43ZM287.73 0L285.75-12.90L287.52-12.90L289-1.75L289.23-1.75L291.43-12.90L293.63-12.90L295.82-1.75L296.05-1.75L297.52-12.90L299.25-12.90L297.27 0L294.68 0L292.63-10.80L292.43-10.80L290.32 0L287.73 0ZM322.65 0.30L322.65 0.30L322.65 0.30Q320.63 0.30 319.16-0.39L319.16-0.39L319.16-0.39Q317.70-1.07 316.68-2.23L316.68-2.23L318.02-3.40L318.02-3.40Q318.95-2.43 320.05-1.90L320.05-1.90L320.05-1.90Q321.15-1.38 322.70-1.38L322.70-1.38L322.70-1.38Q324.20-1.38 325.16-1.91L325.16-1.91L325.16-1.91Q326.13-2.45 326.13-3.60L326.13-3.60L326.13-3.60Q326.13-4.10 325.94-4.44L325.94-4.44L325.94-4.44Q325.75-4.78 325.43-4.98L325.43-4.98L325.43-4.98Q325.10-5.18 324.70-5.29L324.70-5.29L324.70-5.29Q324.30-5.40 323.85-5.48L323.85-5.48L321.82-5.78L321.82-5.78Q321.15-5.88 320.36-6.05L320.36-6.05L320.36-6.05Q319.57-6.23 318.93-6.61L318.93-6.61L318.93-6.61Q318.27-7 317.84-7.65L317.84-7.65L317.84-7.65Q317.40-8.30 317.40-9.35L317.40-9.35L317.40-9.35Q317.40-10.33 317.79-11.04L317.79-11.04L317.79-11.04Q318.18-11.75 318.88-12.24L318.88-12.24L318.88-12.24Q319.57-12.73 320.52-12.96L320.52-12.96L320.52-12.96Q321.48-13.20 322.60-13.20L322.60-13.20L322.60-13.20Q324.35-13.20 325.64-12.65L325.64-12.65L325.64-12.65Q326.93-12.10 327.85-11.13L327.85-11.13L326.55-9.90L326.55-9.90Q326.32-10.18 325.99-10.46L325.99-10.46L325.99-10.46Q325.65-10.75 325.16-10.99L325.16-10.99L325.16-10.99Q324.68-11.23 324.02-11.38L324.02-11.38L324.02-11.38Q323.38-11.53 322.52-11.53L322.52-11.53L322.52-11.53Q321-11.53 320.19-11L320.19-11L320.19-11Q319.38-10.48 319.38-9.47L319.38-9.47L319.38-9.47Q319.38-8.97 319.56-8.64L319.56-8.64L319.56-8.64Q319.75-8.30 320.07-8.10L320.07-8.10L320.07-8.10Q320.40-7.90 320.81-7.79L320.81-7.79L320.81-7.79Q321.23-7.68 321.65-7.60L321.65-7.60L323.68-7.30L323.68-7.30Q324.38-7.20 325.15-7.03L325.15-7.03L325.15-7.03Q325.93-6.85 326.57-6.46L326.57-6.46L326.57-6.46Q327.23-6.08 327.66-5.43L327.66-5.43L327.66-5.43Q328.10-4.78 328.10-3.73L328.10-3.73L328.10-3.73Q328.10-1.80 326.61-0.75L326.61-0.75L326.61-0.75Q325.13 0.30 322.65 0.30ZM332 0L332-1.70L336.50-1.70L336.50-16.80L332-16.80L332-18.50L338.50-18.50L338.50-1.70L343-1.70L343 0L332 0ZM352.50 0.30L352.50 0.30L352.50 0.30Q351.15 0.30 350.06-0.18L350.06-0.18L350.06-0.18Q348.98-0.65 348.21-1.54L348.21-1.54L348.21-1.54Q347.45-2.43 347.05-3.66L347.05-3.66L347.05-3.66Q346.65-4.90 346.65-6.45L346.65-6.45L346.65-6.45Q346.65-7.98 347.05-9.22L347.05-9.22L347.05-9.22Q347.45-10.48 348.21-11.36L348.21-11.36L348.21-11.36Q348.98-12.25 350.06-12.73L350.06-12.73L350.06-12.73Q351.15-13.20 352.50-13.20L352.50-13.20L352.50-13.20Q353.85-13.20 354.94-12.73L354.94-12.73L354.94-12.73Q356.02-12.25 356.79-11.36L356.79-11.36L356.79-11.36Q357.55-10.48 357.95-9.22L357.95-9.22L357.95-9.22Q358.35-7.98 358.35-6.45L358.35-6.45L358.35-6.45Q358.35-4.90 357.95-3.66L357.95-3.66L357.95-3.66Q357.55-2.43 356.79-1.54L356.79-1.54L356.79-1.54Q356.02-0.65 354.94-0.18L354.94-0.18L354.94-0.18Q353.85 0.30 352.50 0.30ZM352.50-1.43L352.50-1.43L352.50-1.43Q354.18-1.43 355.20-2.43L355.20-2.43L355.20-2.43Q356.23-3.43 356.23-5.53L356.23-5.53L356.23-7.38L356.23-7.38Q356.23-9.47 355.20-10.48L355.20-10.48L355.20-10.48Q354.18-11.48 352.50-11.48L352.50-11.48L352.50-11.48Q350.82-11.48 349.80-10.48L349.80-10.48L349.80-10.48Q348.77-9.47 348.77-7.38L348.77-7.38L348.77-5.53L348.77-5.53Q348.77-3.43 349.80-2.43L349.80-2.43L349.80-2.43Q350.82-1.43 352.50-1.43ZM362.73 0L360.75-12.90L362.52-12.90L364-1.75L364.23-1.75L366.43-12.90L368.63-12.90L370.82-1.75L371.05-1.75L372.52-12.90L374.25-12.90L372.27 0L369.68 0L367.63-10.80L367.43-10.80L365.32 0L362.73 0ZM377 0L377-1.70L381.50-1.70L381.50-16.80L377-16.80L377-18.50L383.50-18.50L383.50-1.70L388-1.70L388 0L377 0ZM399.50-7.50L401.68-12.90L403.68-12.90L397.27 2.83L397.27 2.83Q397.05 3.38 396.77 3.79L396.77 3.79L396.77 3.79Q396.50 4.20 396.13 4.46L396.13 4.46L396.13 4.46Q395.75 4.73 395.23 4.86L395.23 4.86L395.23 4.86Q394.70 5 393.98 5L393.98 5L392.07 5L392.07 3.30L395.07 3.30L396.52-0.25L391.32-12.90L393.38-12.90L395.55-7.50L397.48-2.60L397.57-2.60L399.50-7.50ZM429.50-7.50L431.68-12.90L433.68-12.90L427.27 2.83L427.27 2.83Q427.05 3.38 426.77 3.79L426.77 3.79L426.77 3.79Q426.50 4.20 426.13 4.46L426.13 4.46L426.13 4.46Q425.75 4.73 425.23 4.86L425.23 4.86L425.23 4.86Q424.70 5 423.98 5L423.98 5L422.07 5L422.07 3.30L425.07 3.30L426.52-0.25L421.32-12.90L423.38-12.90L425.55-7.50L427.48-2.60L427.57-2.60L429.50-7.50ZM442.50 0.30L442.50 0.30L442.50 0.30Q441.15 0.30 440.06-0.18L440.06-0.18L440.06-0.18Q438.98-0.65 438.21-1.54L438.21-1.54L438.21-1.54Q437.45-2.43 437.05-3.66L437.05-3.66L437.05-3.66Q436.65-4.90 436.65-6.45L436.65-6.45L436.65-6.45Q436.65-7.98 437.05-9.22L437.05-9.22L437.05-9.22Q437.45-10.48 438.21-11.36L438.21-11.36L438.21-11.36Q438.98-12.25 440.06-12.73L440.06-12.73L440.06-12.73Q441.15-13.20 442.50-13.20L442.50-13.20L442.50-13.20Q443.85-13.20 444.94-12.73L444.94-12.73L444.94-12.73Q446.02-12.25 446.79-11.36L446.79-11.36L446.79-11.36Q447.55-10.48 447.95-9.22L447.95-9.22L447.95-9.22Q448.35-7.98 448.35-6.45L448.35-6.45L448.35-6.45Q448.35-4.90 447.95-3.66L447.95-3.66L447.95-3.66Q447.55-2.43 446.79-1.54L446.79-1.54L446.79-1.54Q446.02-0.65 444.94-0.18L444.94-0.18L444.94-0.18Q443.85 0.30 442.50 0.30ZM442.50-1.43L442.50-1.43L442.50-1.43Q444.18-1.43 445.20-2.43L445.20-2.43L445.20-2.43Q446.23-3.43 446.23-5.53L446.23-5.53L446.23-7.38L446.23-7.38Q446.23-9.47 445.20-10.48L445.20-10.48L445.20-10.48Q444.18-11.48 442.50-11.48L442.50-11.48L442.50-11.48Q440.82-11.48 439.80-10.48L439.80-10.48L439.80-10.48Q438.77-9.47 438.77-7.38L438.77-7.38L438.77-5.53L438.77-5.53Q438.77-3.43 439.80-2.43L439.80-2.43L439.80-2.43Q440.82-1.43 442.50-1.43ZM460.55 0L460.55-2.10L460.45-2.10L460.45-2.10Q460.25-1.63 459.95-1.19L459.95-1.19L459.95-1.19Q459.65-0.75 459.21-0.43L459.21-0.43L459.21-0.43Q458.77-0.10 458.18 0.10L458.18 0.10L458.18 0.10Q457.57 0.30 456.77 0.30L456.77 0.30L456.77 0.30Q454.75 0.30 453.52-0.99L453.52-0.99L453.52-0.99Q452.30-2.27 452.30-4.63L452.30-4.63L452.30-12.90L454.30-12.90L454.30-4.98L454.30-4.98Q454.30-3.20 455.07-2.34L455.07-2.34L455.07-2.34Q455.85-1.48 457.35-1.48L457.35-1.48L457.35-1.48Q457.95-1.48 458.52-1.63L458.52-1.63L458.52-1.63Q459.10-1.78 459.55-2.08L459.55-2.08L459.55-2.08Q460-2.38 460.27-2.84L460.27-2.84L460.27-2.84Q460.55-3.30 460.55-3.95L460.55-3.95L460.55-12.90L462.55-12.90L462.55 0L460.55 0ZM494.02 1.48L494.02 1.48L494.02 1.48Q494.02 3.43 492.40 4.36L492.40 4.36L492.40 4.36Q490.77 5.30 487.52 5.30L487.52 5.30L487.52 5.30Q484.40 5.30 483.04 4.48L483.04 4.48L483.04 4.48Q481.68 3.65 481.68 2.10L481.68 2.10L481.68 2.10Q481.68 1.05 482.23 0.48L482.23 0.48L482.23 0.48Q482.77-0.10 483.77-0.38L483.77-0.38L483.77-0.68L483.77-0.68Q483.23-0.95 482.93-1.38L482.93-1.38L482.93-1.38Q482.63-1.80 482.63-2.45L482.63-2.45L482.63-2.45Q482.63-3.45 483.29-3.95L483.29-3.95L483.29-3.95Q483.95-4.45 484.95-4.70L484.95-4.70L484.95-4.80L484.95-4.80Q483.75-5.33 483.09-6.35L483.09-6.35L483.09-6.35Q482.43-7.38 482.43-8.75L482.43-8.75L482.43-8.75Q482.43-9.73 482.77-10.55L482.77-10.55L482.77-10.55Q483.13-11.38 483.79-11.96L483.79-11.96L483.79-11.96Q484.45-12.55 485.38-12.88L485.38-12.88L485.38-12.88Q486.30-13.20 487.43-13.20L487.43-13.20L487.43-13.20Q488.88-13.20 489.98-12.68L489.98-12.68L489.98-12.90L489.98-12.90Q489.98-13.65 490.32-14.15L490.32-14.15L490.32-14.15Q490.68-14.65 491.52-14.65L491.52-14.65L493.90-14.65L493.90-12.90L491-12.90L491-12.03L491-12.03Q491.70-11.43 492.07-10.60L492.07-10.60L492.07-10.60Q492.45-9.78 492.45-8.75L492.45-8.75L492.45-8.75Q492.45-7.78 492.09-6.95L492.09-6.95L492.09-6.95Q491.73-6.13 491.07-5.54L491.07-5.54L491.07-5.54Q490.43-4.95 489.49-4.63L489.49-4.63L489.49-4.63Q488.55-4.30 487.43-4.30L487.43-4.30L487.43-4.30Q487.10-4.30 486.80-4.33L486.80-4.33L486.80-4.33Q486.50-4.35 486.20-4.40L486.20-4.40L486.20-4.40Q485.90-4.35 485.57-4.24L485.57-4.24L485.57-4.24Q485.25-4.13 484.98-3.94L484.98-3.94L484.98-3.94Q484.70-3.75 484.52-3.50L484.52-3.50L484.52-3.50Q484.35-3.25 484.35-2.93L484.35-2.93L484.35-2.93Q484.35-2.35 484.93-2.16L484.93-2.16L484.93-2.16Q485.50-1.98 486.43-1.98L486.43-1.98L489.27-1.98L489.27-1.98Q491.77-1.98 492.90-1.04L492.90-1.04L492.90-1.04Q494.02-0.10 494.02 1.48ZM492.15 1.58L492.15 1.58L492.15 1.58Q492.15 0.80 491.52 0.34L491.52 0.34L491.52 0.34Q490.90-0.13 489.35-0.13L489.35-0.13L484.88-0.13L484.88-0.13Q483.57 0.40 483.57 1.63L483.57 1.63L483.57 1.63Q483.57 2.48 484.25 3.09L484.25 3.09L484.25 3.09Q484.93 3.70 486.50 3.70L486.50 3.70L488.45 3.70L488.45 3.70Q490.20 3.70 491.18 3.16L491.18 3.16L491.18 3.16Q492.15 2.63 492.15 1.58ZM487.43-5.85L487.43-5.85L487.43-5.85Q488.93-5.85 489.64-6.55L489.64-6.55L489.64-6.55Q490.35-7.25 490.35-8.40L490.35-8.40L490.35-9.13L490.35-9.13Q490.35-10.28 489.64-10.96L489.64-10.96L489.64-10.96Q488.93-11.65 487.43-11.65L487.43-11.65L487.43-11.65Q485.93-11.65 485.23-10.96L485.23-10.96L485.23-10.96Q484.52-10.28 484.52-9.13L484.52-9.13L484.52-8.40L484.52-8.40Q484.52-7.25 485.23-6.55L485.23-6.55L485.23-6.55Q485.93-5.85 487.43-5.85ZM502.50 0.30L502.50 0.30L502.50 0.30Q501.15 0.30 500.06-0.18L500.06-0.18L500.06-0.18Q498.98-0.65 498.21-1.54L498.21-1.54L498.21-1.54Q497.45-2.43 497.05-3.66L497.05-3.66L497.05-3.66Q496.65-4.90 496.65-6.45L496.65-6.45L496.65-6.45Q496.65-7.98 497.05-9.22L497.05-9.22L497.05-9.22Q497.45-10.48 498.21-11.36L498.21-11.36L498.21-11.36Q498.98-12.25 500.06-12.73L500.06-12.73L500.06-12.73Q501.15-13.20 502.50-13.20L502.50-13.20L502.50-13.20Q503.85-13.20 504.94-12.73L504.94-12.73L504.94-12.73Q506.02-12.25 506.79-11.36L506.79-11.36L506.79-11.36Q507.55-10.48 507.95-9.22L507.95-9.22L507.95-9.22Q508.35-7.98 508.35-6.45L508.35-6.45L508.35-6.45Q508.35-4.90 507.95-3.66L507.95-3.66L507.95-3.66Q507.55-2.43 506.79-1.54L506.79-1.54L506.79-1.54Q506.02-0.65 504.94-0.18L504.94-0.18L504.94-0.18Q503.85 0.30 502.50 0.30ZM502.50-1.43L502.50-1.43L502.50-1.43Q504.18-1.43 505.20-2.43L505.20-2.43L505.20-2.43Q506.23-3.43 506.23-5.53L506.23-5.53L506.23-7.38L506.23-7.38Q506.23-9.47 505.20-10.48L505.20-10.48L505.20-10.48Q504.18-11.48 502.50-11.48L502.50-11.48L502.50-11.48Q500.82-11.48 499.80-10.48L499.80-10.48L499.80-10.48Q498.77-9.47 498.77-7.38L498.77-7.38L498.77-5.53L498.77-5.53Q498.77-3.43 499.80-2.43L499.80-2.43L499.80-2.43Q500.82-1.43 502.50-1.43ZM538.75 0L537.38 0L537.38 0Q536.20 0 535.70-0.60L535.70-0.60L535.70-0.60Q535.20-1.20 535.08-2.10L535.08-2.10L534.95-2.10L534.95-2.10Q534.52-0.98 533.59-0.34L533.59-0.34L533.59-0.34Q532.65 0.30 531.08 0.30L531.08 0.30L531.08 0.30Q529.05 0.30 527.85-0.75L527.85-0.75L527.85-0.75Q526.65-1.80 526.65-3.63L526.65-3.63L526.65-3.63Q526.65-5.43 527.96-6.40L527.96-6.40L527.96-6.40Q529.27-7.38 532.20-7.38L532.20-7.38L534.95-7.38L534.95-8.65L534.95-8.65Q534.95-10.08 534.15-10.79L534.15-10.79L534.15-10.79Q533.35-11.50 531.88-11.50L531.88-11.50L531.88-11.50Q530.58-11.50 529.75-10.99L529.75-10.99L529.75-10.99Q528.92-10.48 528.42-9.60L528.42-9.60L527.08-10.60L527.08-10.60Q527.33-11.10 527.75-11.58L527.75-11.58L527.75-11.58Q528.17-12.05 528.80-12.41L528.80-12.41L528.80-12.41Q529.42-12.78 530.23-12.99L530.23-12.99L530.23-12.99Q531.02-13.20 532-13.20L532-13.20L532-13.20Q534.27-13.20 535.61-12.05L535.61-12.05L535.61-12.05Q536.95-10.90 536.95-8.85L536.95-8.85L536.95-1.75L538.75-1.75L538.75 0ZM531.42-1.38L531.42-1.38L531.42-1.38Q532.20-1.38 532.84-1.56L532.84-1.56L532.84-1.56Q533.48-1.75 533.95-2.06L533.95-2.06L533.95-2.06Q534.42-2.38 534.69-2.81L534.69-2.81L534.69-2.81Q534.95-3.25 534.95-3.75L534.95-3.75L534.95-5.88L532.20-5.88L532.20-5.88Q530.40-5.88 529.58-5.38L529.58-5.38L529.58-5.38Q528.75-4.88 528.75-3.93L528.75-3.93L528.75-3.40L528.75-3.40Q528.75-2.40 529.46-1.89L529.46-1.89L529.46-1.89Q530.17-1.38 531.42-1.38ZM547.65 0.30L547.65 0.30L547.65 0.30Q545.63 0.30 544.16-0.39L544.16-0.39L544.16-0.39Q542.70-1.07 541.67-2.23L541.67-2.23L543.02-3.40L543.02-3.40Q543.95-2.43 545.05-1.90L545.05-1.90L545.05-1.90Q546.15-1.38 547.70-1.38L547.70-1.38L547.70-1.38Q549.20-1.38 550.16-1.91L550.16-1.91L550.16-1.91Q551.13-2.45 551.13-3.60L551.13-3.60L551.13-3.60Q551.13-4.10 550.94-4.44L550.94-4.44L550.94-4.44Q550.75-4.78 550.42-4.98L550.42-4.98L550.42-4.98Q550.10-5.18 549.70-5.29L549.70-5.29L549.70-5.29Q549.30-5.40 548.85-5.48L548.85-5.48L546.83-5.78L546.83-5.78Q546.15-5.88 545.36-6.05L545.36-6.05L545.36-6.05Q544.58-6.23 543.92-6.61L543.92-6.61L543.92-6.61Q543.27-7 542.84-7.65L542.84-7.65L542.84-7.65Q542.40-8.30 542.40-9.35L542.40-9.35L542.40-9.35Q542.40-10.33 542.79-11.04L542.79-11.04L542.79-11.04Q543.17-11.75 543.88-12.24L543.88-12.24L543.88-12.24Q544.58-12.73 545.52-12.96L545.52-12.96L545.52-12.96Q546.48-13.20 547.60-13.20L547.60-13.20L547.60-13.20Q549.35-13.20 550.64-12.65L550.64-12.65L550.64-12.65Q551.92-12.10 552.85-11.13L552.85-11.13L551.55-9.90L551.55-9.90Q551.33-10.18 550.99-10.46L550.99-10.46L550.99-10.46Q550.65-10.75 550.16-10.99L550.16-10.99L550.16-10.99Q549.67-11.23 549.02-11.38L549.02-11.38L549.02-11.38Q548.38-11.53 547.52-11.53L547.52-11.53L547.52-11.53Q546-11.53 545.19-11L545.19-11L545.19-11Q544.38-10.48 544.38-9.47L544.38-9.47L544.38-9.47Q544.38-8.97 544.56-8.64L544.56-8.64L544.56-8.64Q544.75-8.30 545.08-8.10L545.08-8.10L545.08-8.10Q545.40-7.90 545.81-7.79L545.81-7.79L545.81-7.79Q546.23-7.68 546.65-7.60L546.65-7.60L548.67-7.30L548.67-7.30Q549.38-7.20 550.15-7.03L550.15-7.03L550.15-7.03Q550.92-6.85 551.58-6.46L551.58-6.46L551.58-6.46Q552.23-6.08 552.66-5.43L552.66-5.43L552.66-5.43Q553.10-4.78 553.10-3.73L553.10-3.73L553.10-3.73Q553.10-1.80 551.61-0.75L551.61-0.75L551.61-0.75Q550.13 0.30 547.65 0.30ZM572 0L572-1.70L576.50-1.70L576.50-16.80L572-16.80L572-18.50L578.50-18.50L578.50-1.70L583-1.70L583 0L572 0ZM592.50 0.30L592.50 0.30L592.50 0.30Q591.15 0.30 590.06-0.18L590.06-0.18L590.06-0.18Q588.98-0.65 588.21-1.54L588.21-1.54L588.21-1.54Q587.45-2.43 587.05-3.66L587.05-3.66L587.05-3.66Q586.65-4.90 586.65-6.45L586.65-6.45L586.65-6.45Q586.65-7.98 587.05-9.22L587.05-9.22L587.05-9.22Q587.45-10.48 588.21-11.36L588.21-11.36L588.21-11.36Q588.98-12.25 590.06-12.73L590.06-12.73L590.06-12.73Q591.15-13.20 592.50-13.20L592.50-13.20L592.50-13.20Q593.85-13.20 594.94-12.73L594.94-12.73L594.94-12.73Q596.02-12.25 596.79-11.36L596.79-11.36L596.79-11.36Q597.55-10.48 597.95-9.22L597.95-9.22L597.95-9.22Q598.35-7.98 598.35-6.45L598.35-6.45L598.35-6.45Q598.35-4.90 597.95-3.66L597.95-3.66L597.95-3.66Q597.55-2.43 596.79-1.54L596.79-1.54L596.79-1.54Q596.02-0.65 594.94-0.18L594.94-0.18L594.94-0.18Q593.85 0.30 592.50 0.30ZM592.50-1.43L592.50-1.43L592.50-1.43Q594.17-1.43 595.20-2.43L595.20-2.43L595.20-2.43Q596.23-3.43 596.23-5.53L596.23-5.53L596.23-7.38L596.23-7.38Q596.23-9.47 595.20-10.48L595.20-10.48L595.20-10.48Q594.17-11.48 592.50-11.48L592.50-11.48L592.50-11.48Q590.83-11.48 589.80-10.48L589.80-10.48L589.80-10.48Q588.77-9.47 588.77-7.38L588.77-7.38L588.77-5.53L588.77-5.53Q588.77-3.43 589.80-2.43L589.80-2.43L589.80-2.43Q590.83-1.43 592.50-1.43ZM604.45 0L602.45 0L602.45-12.90L604.45-12.90L604.45-10.80L604.55-10.80L604.55-10.80Q604.75-11.28 605.05-11.71L605.05-11.71L605.05-11.71Q605.35-12.15 605.79-12.48L605.79-12.48L605.79-12.48Q606.23-12.80 606.83-13L606.83-13L606.83-13Q607.42-13.20 608.23-13.20L608.23-13.20L608.23-13.20Q610.25-13.20 611.48-11.91L611.48-11.91L611.48-11.91Q612.70-10.63 612.70-8.28L612.70-8.28L612.70 0L610.70 0L610.70-7.93L610.70-7.93Q610.70-9.70 609.92-10.56L609.92-10.56L609.92-10.56Q609.15-11.43 607.65-11.43L607.65-11.43L607.65-11.43Q607.05-11.43 606.48-11.28L606.48-11.28L606.48-11.28Q605.90-11.13 605.45-10.83L605.45-10.83L605.45-10.83Q605-10.53 604.73-10.05L604.73-10.05L604.73-10.05Q604.45-9.58 604.45-8.95L604.45-8.95L604.45 0ZM629.02 1.48L629.02 1.48L629.02 1.48Q629.02 3.43 627.40 4.36L627.40 4.36L627.40 4.36Q625.77 5.30 622.52 5.30L622.52 5.30L622.52 5.30Q619.40 5.30 618.04 4.48L618.04 4.48L618.04 4.48Q616.67 3.65 616.67 2.10L616.67 2.10L616.67 2.10Q616.67 1.05 617.23 0.48L617.23 0.48L617.23 0.48Q617.77-0.10 618.77-0.38L618.77-0.38L618.77-0.68L618.77-0.68Q618.23-0.95 617.92-1.38L617.92-1.38L617.92-1.38Q617.63-1.80 617.63-2.45L617.63-2.45L617.63-2.45Q617.63-3.45 618.29-3.95L618.29-3.95L618.29-3.95Q618.95-4.45 619.95-4.70L619.95-4.70L619.95-4.80L619.95-4.80Q618.75-5.33 618.09-6.35L618.09-6.35L618.09-6.35Q617.42-7.38 617.42-8.75L617.42-8.75L617.42-8.75Q617.42-9.73 617.77-10.55L617.77-10.55L617.77-10.55Q618.13-11.38 618.79-11.96L618.79-11.96L618.79-11.96Q619.45-12.55 620.38-12.88L620.38-12.88L620.38-12.88Q621.30-13.20 622.42-13.20L622.42-13.20L622.42-13.20Q623.88-13.20 624.98-12.68L624.98-12.68L624.98-12.90L624.98-12.90Q624.98-13.65 625.33-14.15L625.33-14.15L625.33-14.15Q625.67-14.65 626.52-14.65L626.52-14.65L628.90-14.65L628.90-12.90L626-12.90L626-12.03L626-12.03Q626.70-11.43 627.08-10.60L627.08-10.60L627.08-10.60Q627.45-9.78 627.45-8.75L627.45-8.75L627.45-8.75Q627.45-7.78 627.09-6.95L627.09-6.95L627.09-6.95Q626.73-6.13 626.08-5.54L626.08-5.54L626.08-5.54Q625.42-4.95 624.49-4.63L624.49-4.63L624.49-4.63Q623.55-4.30 622.42-4.30L622.42-4.30L622.42-4.30Q622.10-4.30 621.80-4.33L621.80-4.33L621.80-4.33Q621.50-4.35 621.20-4.40L621.20-4.40L621.20-4.40Q620.90-4.35 620.58-4.24L620.58-4.24L620.58-4.24Q620.25-4.13 619.98-3.94L619.98-3.94L619.98-3.94Q619.70-3.75 619.52-3.50L619.52-3.50L619.52-3.50Q619.35-3.25 619.35-2.93L619.35-2.93L619.35-2.93Q619.35-2.35 619.92-2.16L619.92-2.16L619.92-2.16Q620.50-1.98 621.42-1.98L621.42-1.98L624.27-1.98L624.27-1.98Q626.77-1.98 627.90-1.04L627.90-1.04L627.90-1.04Q629.02-0.10 629.02 1.48ZM627.15 1.58L627.15 1.58L627.15 1.58Q627.15 0.80 626.52 0.34L626.52 0.34L626.52 0.34Q625.90-0.13 624.35-0.13L624.35-0.13L619.88-0.13L619.88-0.13Q618.58 0.40 618.58 1.63L618.58 1.63L618.58 1.63Q618.58 2.48 619.25 3.09L619.25 3.09L619.25 3.09Q619.92 3.70 621.50 3.70L621.50 3.70L623.45 3.70L623.45 3.70Q625.20 3.70 626.17 3.16L626.17 3.16L626.17 3.16Q627.15 2.63 627.15 1.58ZM622.42-5.85L622.42-5.85L622.42-5.85Q623.92-5.85 624.64-6.55L624.64-6.55L624.64-6.55Q625.35-7.25 625.35-8.40L625.35-8.40L625.35-9.13L625.35-9.13Q625.35-10.28 624.64-10.96L624.64-10.96L624.64-10.96Q623.92-11.65 622.42-11.65L622.42-11.65L622.42-11.65Q620.92-11.65 620.23-10.96L620.23-10.96L620.23-10.96Q619.52-10.28 619.52-9.13L619.52-9.13L619.52-8.40L619.52-8.40Q619.52-7.25 620.23-6.55L620.23-6.55L620.23-6.55Q620.92-5.85 622.42-5.85ZM658.75 0L657.38 0L657.38 0Q656.20 0 655.70-0.60L655.70-0.60L655.70-0.60Q655.20-1.20 655.08-2.10L655.08-2.10L654.95-2.10L654.95-2.10Q654.52-0.98 653.59-0.34L653.59-0.34L653.59-0.34Q652.65 0.30 651.08 0.30L651.08 0.30L651.08 0.30Q649.05 0.30 647.85-0.75L647.85-0.75L647.85-0.75Q646.65-1.80 646.65-3.63L646.65-3.63L646.65-3.63Q646.65-5.43 647.96-6.40L647.96-6.40L647.96-6.40Q649.27-7.38 652.20-7.38L652.20-7.38L654.95-7.38L654.95-8.65L654.95-8.65Q654.95-10.08 654.15-10.79L654.15-10.79L654.15-10.79Q653.35-11.50 651.88-11.50L651.88-11.50L651.88-11.50Q650.58-11.50 649.75-10.99L649.75-10.99L649.75-10.99Q648.92-10.48 648.42-9.60L648.42-9.60L647.08-10.60L647.08-10.60Q647.33-11.10 647.75-11.58L647.75-11.58L647.75-11.58Q648.17-12.05 648.80-12.41L648.80-12.41L648.80-12.41Q649.42-12.78 650.23-12.99L650.23-12.99L650.23-12.99Q651.02-13.20 652-13.20L652-13.20L652-13.20Q654.27-13.20 655.61-12.05L655.61-12.05L655.61-12.05Q656.95-10.90 656.95-8.85L656.95-8.85L656.95-1.75L658.75-1.75L658.75 0ZM651.42-1.38L651.42-1.38L651.42-1.38Q652.20-1.38 652.84-1.56L652.84-1.56L652.84-1.56Q653.48-1.75 653.95-2.06L653.95-2.06L653.95-2.06Q654.42-2.38 654.69-2.81L654.69-2.81L654.69-2.81Q654.95-3.25 654.95-3.75L654.95-3.75L654.95-5.88L652.20-5.88L652.20-5.88Q650.40-5.88 649.58-5.38L649.58-5.38L649.58-5.38Q648.75-4.88 648.75-3.93L648.75-3.93L648.75-3.40L648.75-3.40Q648.75-2.40 649.46-1.89L649.46-1.89L649.46-1.89Q650.17-1.38 651.42-1.38ZM667.65 0.30L667.65 0.30L667.65 0.30Q665.63 0.30 664.16-0.39L664.16-0.39L664.16-0.39Q662.70-1.07 661.67-2.23L661.67-2.23L663.02-3.40L663.02-3.40Q663.95-2.43 665.05-1.90L665.05-1.90L665.05-1.90Q666.15-1.38 667.70-1.38L667.70-1.38L667.70-1.38Q669.20-1.38 670.16-1.91L670.16-1.91L670.16-1.91Q671.13-2.45 671.13-3.60L671.13-3.60L671.13-3.60Q671.13-4.10 670.94-4.44L670.94-4.44L670.94-4.44Q670.75-4.78 670.42-4.98L670.42-4.98L670.42-4.98Q670.10-5.18 669.70-5.29L669.70-5.29L669.70-5.29Q669.30-5.40 668.85-5.48L668.85-5.48L666.83-5.78L666.83-5.78Q666.15-5.88 665.36-6.05L665.36-6.05L665.36-6.05Q664.58-6.23 663.92-6.61L663.92-6.61L663.92-6.61Q663.27-7 662.84-7.65L662.84-7.65L662.84-7.65Q662.40-8.30 662.40-9.35L662.40-9.35L662.40-9.35Q662.40-10.33 662.79-11.04L662.79-11.04L662.79-11.04Q663.17-11.75 663.88-12.24L663.88-12.24L663.88-12.24Q664.58-12.73 665.52-12.96L665.52-12.96L665.52-12.96Q666.48-13.20 667.60-13.20L667.60-13.20L667.60-13.20Q669.35-13.20 670.64-12.65L670.64-12.65L670.64-12.65Q671.92-12.10 672.85-11.13L672.85-11.13L671.55-9.90L671.55-9.90Q671.33-10.18 670.99-10.46L670.99-10.46L670.99-10.46Q670.65-10.75 670.16-10.99L670.16-10.99L670.16-10.99Q669.67-11.23 669.02-11.38L669.02-11.38L669.02-11.38Q668.38-11.53 667.52-11.53L667.52-11.53L667.52-11.53Q666-11.53 665.19-11L665.19-11L665.19-11Q664.38-10.48 664.38-9.47L664.38-9.47L664.38-9.47Q664.38-8.97 664.56-8.64L664.56-8.64L664.56-8.64Q664.75-8.30 665.08-8.10L665.08-8.10L665.08-8.10Q665.40-7.90 665.81-7.79L665.81-7.79L665.81-7.79Q666.23-7.68 666.65-7.60L666.65-7.60L668.67-7.30L668.67-7.30Q669.38-7.20 670.15-7.03L670.15-7.03L670.15-7.03Q670.92-6.85 671.58-6.46L671.58-6.46L671.58-6.46Q672.23-6.08 672.66-5.43L672.66-5.43L672.66-5.43Q673.10-4.78 673.10-3.73L673.10-3.73L673.10-3.73Q673.10-1.80 671.61-0.75L671.61-0.75L671.61-0.75Q670.13 0.30 667.65 0.30ZM699.50-7.50L701.67-12.90L703.67-12.90L697.27 2.83L697.27 2.83Q697.05 3.38 696.77 3.79L696.77 3.79L696.77 3.79Q696.50 4.20 696.13 4.46L696.13 4.46L696.13 4.46Q695.75 4.73 695.23 4.86L695.23 4.86L695.23 4.86Q694.70 5 693.98 5L693.98 5L692.08 5L692.08 3.30L695.08 3.30L696.52-0.25L691.33-12.90L693.38-12.90L695.55-7.50L697.48-2.60L697.58-2.60L699.50-7.50ZM712.50 0.30L712.50 0.30L712.50 0.30Q711.15 0.30 710.06-0.18L710.06-0.18L710.06-0.18Q708.98-0.65 708.21-1.54L708.21-1.54L708.21-1.54Q707.45-2.43 707.05-3.66L707.05-3.66L707.05-3.66Q706.65-4.90 706.65-6.45L706.65-6.45L706.65-6.45Q706.65-7.98 707.05-9.22L707.05-9.22L707.05-9.22Q707.45-10.48 708.21-11.36L708.21-11.36L708.21-11.36Q708.98-12.25 710.06-12.73L710.06-12.73L710.06-12.73Q711.15-13.20 712.50-13.20L712.50-13.20L712.50-13.20Q713.85-13.20 714.94-12.73L714.94-12.73L714.94-12.73Q716.02-12.25 716.79-11.36L716.79-11.36L716.79-11.36Q717.55-10.48 717.95-9.22L717.95-9.22L717.95-9.22Q718.35-7.98 718.35-6.45L718.35-6.45L718.35-6.45Q718.35-4.90 717.95-3.66L717.95-3.66L717.95-3.66Q717.55-2.43 716.79-1.54L716.79-1.54L716.79-1.54Q716.02-0.65 714.94-0.18L714.94-0.18L714.94-0.18Q713.85 0.30 712.50 0.30ZM712.50-1.43L712.50-1.43L712.50-1.43Q714.17-1.43 715.20-2.43L715.20-2.43L715.20-2.43Q716.23-3.43 716.23-5.53L716.23-5.53L716.23-7.38L716.23-7.38Q716.23-9.47 715.20-10.48L715.20-10.48L715.20-10.48Q714.17-11.48 712.50-11.48L712.50-11.48L712.50-11.48Q710.83-11.48 709.80-10.48L709.80-10.48L709.80-10.48Q708.77-9.47 708.77-7.38L708.77-7.38L708.77-5.53L708.77-5.53Q708.77-3.43 709.80-2.43L709.80-2.43L709.80-2.43Q710.83-1.43 712.50-1.43ZM730.55 0L730.55-2.10L730.45-2.10L730.45-2.10Q730.25-1.63 729.95-1.19L729.95-1.19L729.95-1.19Q729.65-0.75 729.21-0.43L729.21-0.43L729.21-0.43Q728.77-0.10 728.17 0.10L728.17 0.10L728.17 0.10Q727.58 0.30 726.77 0.30L726.77 0.30L726.77 0.30Q724.75 0.30 723.52-0.99L723.52-0.99L723.52-0.99Q722.30-2.27 722.30-4.63L722.30-4.63L722.30-12.90L724.30-12.90L724.30-4.98L724.30-4.98Q724.30-3.20 725.08-2.34L725.08-2.34L725.08-2.34Q725.85-1.48 727.35-1.48L727.35-1.48L727.35-1.48Q727.95-1.48 728.52-1.63L728.52-1.63L728.52-1.63Q729.10-1.78 729.55-2.08L729.55-2.08L729.55-2.08Q730-2.38 730.27-2.84L730.27-2.84L730.27-2.84Q730.55-3.30 730.55-3.95L730.55-3.95L730.55-12.90L732.55-12.90L732.55 0L730.55 0ZM760.63 0L760.63-2.10L760.52-2.10L760.52-2.10Q759.27 0.30 756.55 0.30L756.55 0.30L756.55 0.30Q754.17 0.30 752.84-1.48L752.84-1.48L752.84-1.48Q751.50-3.25 751.50-6.45L751.50-6.45L751.50-6.45Q751.50-9.65 752.84-11.43L752.84-11.43L752.84-11.43Q754.17-13.20 756.55-13.20L756.55-13.20L756.55-13.20Q759.27-13.20 760.52-10.80L760.52-10.80L760.63-10.80L760.63-18.50L762.63-18.50L762.63 0L760.63 0ZM757.33-1.48L757.33-1.48L757.33-1.48Q758-1.48 758.60-1.65L758.60-1.65L758.60-1.65Q759.20-1.83 759.65-2.16L759.65-2.16L759.65-2.16Q760.10-2.50 760.36-2.99L760.36-2.99L760.36-2.99Q760.63-3.48 760.63-4.13L760.63-4.13L760.63-8.78L760.63-8.78Q760.63-9.43 760.36-9.91L760.36-9.91L760.36-9.91Q760.10-10.40 759.65-10.74L759.65-10.74L759.65-10.74Q759.20-11.08 758.60-11.25L758.60-11.25L758.60-11.25Q758-11.43 757.33-11.43L757.33-11.43L757.33-11.43Q755.58-11.43 754.61-10.36L754.61-10.36L754.61-10.36Q753.65-9.30 753.65-7.55L753.65-7.55L753.65-5.35L753.65-5.35Q753.65-3.60 754.61-2.54L754.61-2.54L754.61-2.54Q755.58-1.48 757.33-1.48ZM772.50 0.30L772.50 0.30L772.50 0.30Q771.15 0.30 770.06-0.18L770.06-0.18L770.06-0.18Q768.98-0.65 768.21-1.54L768.21-1.54L768.21-1.54Q767.45-2.43 767.05-3.66L767.05-3.66L767.05-3.66Q766.65-4.90 766.65-6.45L766.65-6.45L766.65-6.45Q766.65-7.98 767.05-9.22L767.05-9.22L767.05-9.22Q767.45-10.48 768.21-11.36L768.21-11.36L768.21-11.36Q768.98-12.25 770.06-12.73L770.06-12.73L770.06-12.73Q771.15-13.20 772.50-13.20L772.50-13.20L772.50-13.20Q773.85-13.20 774.94-12.73L774.94-12.73L774.94-12.73Q776.02-12.25 776.79-11.36L776.79-11.36L776.79-11.36Q777.55-10.48 777.95-9.22L777.95-9.22L777.95-9.22Q778.35-7.98 778.35-6.45L778.35-6.45L778.35-6.45Q778.35-4.90 777.95-3.66L777.95-3.66L777.95-3.66Q777.55-2.43 776.79-1.54L776.79-1.54L776.79-1.54Q776.02-0.65 774.94-0.18L774.94-0.18L774.94-0.18Q773.85 0.30 772.50 0.30ZM772.50-1.43L772.50-1.43L772.50-1.43Q774.17-1.43 775.20-2.43L775.20-2.43L775.20-2.43Q776.23-3.43 776.23-5.53L776.23-5.53L776.23-7.38L776.23-7.38Q776.23-9.47 775.20-10.48L775.20-10.48L775.20-10.48Q774.17-11.48 772.50-11.48L772.50-11.48L772.50-11.48Q770.83-11.48 769.80-10.48L769.80-10.48L769.80-10.48Q768.77-9.47 768.77-7.38L768.77-7.38L768.77-5.53L768.77-5.53Q768.77-3.43 769.80-2.43L769.80-2.43L769.80-2.43Q770.83-1.43 772.50-1.43ZM799.45 0L797.45 0L797.45-12.90L799.45-12.90L799.45-10.80L799.55-10.80L799.55-10.80Q799.75-11.28 800.05-11.71L800.05-11.71L800.05-11.71Q800.35-12.15 800.79-12.48L800.79-12.48L800.79-12.48Q801.23-12.80 801.83-13L801.83-13L801.83-13Q802.42-13.20 803.23-13.20L803.23-13.20L803.23-13.20Q805.25-13.20 806.48-11.91L806.48-11.91L806.48-11.91Q807.70-10.63 807.70-8.28L807.70-8.28L807.70 0L805.70 0L805.70-7.93L805.70-7.93Q805.70-9.70 804.92-10.56L804.92-10.56L804.92-10.56Q804.15-11.43 802.65-11.43L802.65-11.43L802.65-11.43Q802.05-11.43 801.48-11.28L801.48-11.28L801.48-11.28Q800.90-11.13 800.45-10.83L800.45-10.83L800.45-10.83Q800-10.53 799.73-10.05L799.73-10.05L799.73-10.05Q799.45-9.58 799.45-8.95L799.45-8.95L799.45 0ZM817.50 0.30L817.50 0.30L817.50 0.30Q816.15 0.30 815.06-0.18L815.06-0.18L815.06-0.18Q813.98-0.65 813.21-1.54L813.21-1.54L813.21-1.54Q812.45-2.43 812.05-3.66L812.05-3.66L812.05-3.66Q811.65-4.90 811.65-6.45L811.65-6.45L811.65-6.45Q811.65-7.98 812.05-9.22L812.05-9.22L812.05-9.22Q812.45-10.48 813.21-11.36L813.21-11.36L813.21-11.36Q813.98-12.25 815.06-12.73L815.06-12.73L815.06-12.73Q816.15-13.20 817.50-13.20L817.50-13.20L817.50-13.20Q818.85-13.20 819.94-12.73L819.94-12.73L819.94-12.73Q821.02-12.25 821.79-11.36L821.79-11.36L821.79-11.36Q822.55-10.48 822.95-9.22L822.95-9.22L822.95-9.22Q823.35-7.98 823.35-6.45L823.35-6.45L823.35-6.45Q823.35-4.90 822.95-3.66L822.95-3.66L822.95-3.66Q822.55-2.43 821.79-1.54L821.79-1.54L821.79-1.54Q821.02-0.65 819.94-0.18L819.94-0.18L819.94-0.18Q818.85 0.30 817.50 0.30ZM817.50-1.43L817.50-1.43L817.50-1.43Q819.17-1.43 820.20-2.43L820.20-2.43L820.20-2.43Q821.23-3.43 821.23-5.53L821.23-5.53L821.23-7.38L821.23-7.38Q821.23-9.47 820.20-10.48L820.20-10.48L820.20-10.48Q819.17-11.48 817.50-11.48L817.50-11.48L817.50-11.48Q815.83-11.48 814.80-10.48L814.80-10.48L814.80-10.48Q813.77-9.47 813.77-7.38L813.77-7.38L813.77-5.53L813.77-5.53Q813.77-3.43 814.80-2.43L814.80-2.43L814.80-2.43Q815.83-1.43 817.50-1.43ZM838.15 0L833.13 0L833.13 0Q831.65 0 830.96-0.83L830.96-0.83L830.96-0.83Q830.27-1.65 830.27-2.95L830.27-2.95L830.27-11.20L825.98-11.20L825.98-12.90L829.17-12.90L829.17-12.90Q829.83-12.90 830.09-13.16L830.09-13.16L830.09-13.16Q830.35-13.43 830.35-14.08L830.35-14.08L830.35-17.45L832.27-17.45L832.27-12.90L838.15-12.90L838.15-11.20L832.27-11.20L832.27-1.70L838.15-1.70L838.15 0ZM862.65 0.30L862.65 0.30L862.65 0.30Q860.63 0.30 859.16-0.39L859.16-0.39L859.16-0.39Q857.70-1.07 856.67-2.23L856.67-2.23L858.02-3.40L858.02-3.40Q858.95-2.43 860.05-1.90L860.05-1.90L860.05-1.90Q861.15-1.38 862.70-1.38L862.70-1.38L862.70-1.38Q864.20-1.38 865.16-1.91L865.16-1.91L865.16-1.91Q866.13-2.45 866.13-3.60L866.13-3.60L866.13-3.60Q866.13-4.10 865.94-4.44L865.94-4.44L865.94-4.44Q865.75-4.78 865.42-4.98L865.42-4.98L865.42-4.98Q865.10-5.18 864.70-5.29L864.70-5.29L864.70-5.29Q864.30-5.40 863.85-5.48L863.85-5.48L861.83-5.78L861.83-5.78Q861.15-5.88 860.36-6.05L860.36-6.05L860.36-6.05Q859.58-6.23 858.92-6.61L858.92-6.61L858.92-6.61Q858.27-7 857.84-7.65L857.84-7.65L857.84-7.65Q857.40-8.30 857.40-9.35L857.40-9.35L857.40-9.35Q857.40-10.33 857.79-11.04L857.79-11.04L857.79-11.04Q858.17-11.75 858.88-12.24L858.88-12.24L858.88-12.24Q859.58-12.73 860.52-12.96L860.52-12.96L860.52-12.96Q861.48-13.20 862.60-13.20L862.60-13.20L862.60-13.20Q864.35-13.20 865.64-12.65L865.64-12.65L865.64-12.65Q866.92-12.10 867.85-11.13L867.85-11.13L866.55-9.90L866.55-9.90Q866.33-10.18 865.99-10.46L865.99-10.46L865.99-10.46Q865.65-10.75 865.16-10.99L865.16-10.99L865.16-10.99Q864.67-11.23 864.02-11.38L864.02-11.38L864.02-11.38Q863.38-11.53 862.52-11.53L862.52-11.53L862.52-11.53Q861-11.53 860.19-11L860.19-11L860.19-11Q859.38-10.48 859.38-9.47L859.38-9.47L859.38-9.47Q859.38-8.97 859.56-8.64L859.56-8.64L859.56-8.64Q859.75-8.30 860.08-8.10L860.08-8.10L860.08-8.10Q860.40-7.90 860.81-7.79L860.81-7.79L860.81-7.79Q861.23-7.68 861.65-7.60L861.65-7.60L863.67-7.30L863.67-7.30Q864.38-7.20 865.15-7.03L865.15-7.03L865.15-7.03Q865.92-6.85 866.58-6.46L866.58-6.46L866.58-6.46Q867.23-6.08 867.66-5.43L867.66-5.43L867.66-5.43Q868.10-4.78 868.10-3.73L868.10-3.73L868.10-3.73Q868.10-1.80 866.61-0.75L866.61-0.75L866.61-0.75Q865.13 0.30 862.65 0.30ZM883.15 0L878.13 0L878.13 0Q876.65 0 875.96-0.83L875.96-0.83L875.96-0.83Q875.27-1.65 875.27-2.95L875.27-2.95L875.27-11.20L870.98-11.20L870.98-12.90L874.17-12.90L874.17-12.90Q874.83-12.90 875.09-13.16L875.09-13.16L875.09-13.16Q875.35-13.43 875.35-14.08L875.35-14.08L875.35-17.45L877.27-17.45L877.27-12.90L883.15-12.90L883.15-11.20L877.27-11.20L877.27-1.70L883.15-1.70L883.15 0ZM892.50 0.30L892.50 0.30L892.50 0.30Q891.15 0.30 890.06-0.18L890.06-0.18L890.06-0.18Q888.98-0.65 888.21-1.54L888.21-1.54L888.21-1.54Q887.45-2.43 887.05-3.66L887.05-3.66L887.05-3.66Q886.65-4.90 886.65-6.45L886.65-6.45L886.65-6.45Q886.65-7.98 887.05-9.22L887.05-9.22L887.05-9.22Q887.45-10.48 888.21-11.36L888.21-11.36L888.21-11.36Q888.98-12.25 890.06-12.73L890.06-12.73L890.06-12.73Q891.15-13.20 892.50-13.20L892.50-13.20L892.50-13.20Q893.85-13.20 894.94-12.73L894.94-12.73L894.94-12.73Q896.02-12.25 896.79-11.36L896.79-11.36L896.79-11.36Q897.55-10.48 897.95-9.22L897.95-9.22L897.95-9.22Q898.35-7.98 898.35-6.45L898.35-6.45L898.35-6.45Q898.35-4.90 897.95-3.66L897.95-3.66L897.95-3.66Q897.55-2.43 896.79-1.54L896.79-1.54L896.79-1.54Q896.02-0.65 894.94-0.18L894.94-0.18L894.94-0.18Q893.85 0.30 892.50 0.30ZM892.50-1.43L892.50-1.43L892.50-1.43Q894.17-1.43 895.20-2.43L895.20-2.43L895.20-2.43Q896.23-3.43 896.23-5.53L896.23-5.53L896.23-7.38L896.23-7.38Q896.23-9.47 895.20-10.48L895.20-10.48L895.20-10.48Q894.17-11.48 892.50-11.48L892.50-11.48L892.50-11.48Q890.83-11.48 889.80-10.48L889.80-10.48L889.80-10.48Q888.77-9.47 888.77-7.38L888.77-7.38L888.77-5.53L888.77-5.53Q888.77-3.43 889.80-2.43L889.80-2.43L889.80-2.43Q890.83-1.43 892.50-1.43ZM902.38 5L902.38-12.90L904.38-12.90L904.38-10.80L904.48-10.80L904.48-10.80Q905.73-13.20 908.45-13.20L908.45-13.20L908.45-13.20Q910.83-13.20 912.16-11.43L912.16-11.43L912.16-11.43Q913.50-9.65 913.50-6.45L913.50-6.45L913.50-6.45Q913.50-3.25 912.16-1.48L912.16-1.48L912.16-1.48Q910.83 0.30 908.45 0.30L908.45 0.30L908.45 0.30Q905.73 0.30 904.48-2.10L904.48-2.10L904.38-2.10L904.38 5L902.38 5ZM907.67-1.48L907.67-1.48L907.67-1.48Q909.42-1.48 910.39-2.54L910.39-2.54L910.39-2.54Q911.35-3.60 911.35-5.35L911.35-5.35L911.35-7.55L911.35-7.55Q911.35-9.30 910.39-10.36L910.39-10.36L910.39-10.36Q909.42-11.43 907.67-11.43L907.67-11.43L907.67-11.43Q907-11.43 906.40-11.25L906.40-11.25L906.40-11.25Q905.80-11.08 905.35-10.74L905.35-10.74L905.35-10.74Q904.90-10.40 904.64-9.91L904.64-9.91L904.64-9.91Q904.38-9.43 904.38-8.78L904.38-8.78L904.38-4.13L904.38-4.13Q904.38-3.48 904.64-2.99L904.64-2.99L904.64-2.99Q904.90-2.50 905.35-2.16L905.35-2.16L905.35-2.16Q905.80-1.83 906.40-1.65L906.40-1.65L906.40-1.65Q907-1.48 907.67-1.48Z" fill="#e7e7e7"></path></g></g><style>text {
  font-size: 64px;
  font-family: Arial Black;
  dominant-baseline: central;
  text-anchor: middle;
}</style></svg>